if (_typeface_js && _typeface_js.loadFace) _typeface_js.loadFace({"glyphs":{"0":{"ha":793,"x_min":0,"x_max":0,"o":"m 397 906 b 50 458 200 906 50 699 b 397 -12 50 206 199 -12 b 744 458 596 -12 744 206 b 397 906 744 699 594 906 z m 99 458 b 397 856 99 683 239 856 b 694 458 556 856 694 683 b 397 38 694 218 554 38 b 99 458 229 38 99 232 z "},"1":{"ha":297,"x_min":0,"x_max":0,"o":"m 81 740 l 147 817 l 149 817 l 149 0 l 199 0 l 199 893 l 150 893 l 43 772 z "},"2":{"ha":644,"x_min":0,"x_max":0,"o":"m 322 906 b 50 632 172 906 50 782 l 99 632 b 322 856 99 754 200 856 b 546 632 444 856 546 754 l 546 631 b 365 344 546 553 501 474 l 50 46 l 50 0 l 596 0 l 596 75 l 546 75 l 546 50 l 126 50 l 400 307 b 596 631 539 438 596 532 l 596 632 b 322 906 596 782 472 906 z "},"3":{"ha":644,"x_min":0,"x_max":0,"o":"m 322 471 b 546 254 446 471 546 374 b 322 38 546 135 446 38 b 99 254 199 38 99 135 l 50 254 b 322 -12 50 107 172 -12 b 596 254 472 -12 596 107 b 415 497 596 369 519 463 l 415 499 b 546 689 492 531 546 601 b 322 906 546 806 443 906 b 99 689 200 906 99 810 l 149 689 b 322 856 149 781 225 856 b 496 689 419 856 496 781 b 322 521 496 597 419 521 z "},"4":{"ha":644,"x_min":0,"x_max":0,"o":"m 496 596 l 496 199 l 111 199 b 394 893 317 511 394 692 l 344 893 b 53 201 344 701 269 529 l 50 194 l 50 149 l 496 149 l 496 0 l 546 0 l 546 149 l 596 149 l 596 199 l 546 199 l 546 596 z "},"5":{"ha":644,"x_min":0,"x_max":0,"o":"m 125 843 l 496 843 l 496 818 l 546 818 l 546 893 l 78 893 l 76 869 b 50 447 68 729 58 588 l 99 439 b 322 596 128 532 247 596 b 546 322 419 596 546 521 b 313 38 546 118 417 38 b 99 153 235 38 140 82 l 99 174 l 50 174 l 50 146 l 50 140 l 53 133 b 313 -12 106 38 221 -12 b 596 322 443 -12 596 89 b 322 644 596 547 449 644 b 106 544 254 644 165 608 z "},"6":{"ha":644,"x_min":0,"x_max":0,"o":"m 99 310 b 335 583 99 463 207 583 b 546 310 447 583 546 465 b 335 38 546 154 447 38 b 99 310 207 38 99 157 z m 335 632 b 100 490 236 632 151 575 l 99 490 b 322 856 115 678 169 856 b 496 774 393 856 456 825 l 496 750 l 546 750 l 546 790 l 540 797 b 322 906 490 863 411 906 b 50 310 53 906 50 486 b 335 -12 50 133 175 -12 b 596 310 476 -12 596 128 b 335 632 596 492 476 632 z "},"7":{"ha":594,"x_min":0,"x_max":0,"o":"m 25 893 l 25 818 l 75 818 l 75 843 l 481 843 l 389 719 b 199 0 229 501 199 215 l 249 0 b 431 689 249 215 281 485 l 546 847 l 546 893 z "},"8":{"ha":644,"x_min":0,"x_max":0,"o":"m 546 689 b 322 906 546 810 444 906 b 99 689 200 906 99 810 b 229 499 99 601 153 531 l 229 497 b 50 254 125 463 50 369 b 322 -12 50 107 172 -12 b 596 254 472 -12 596 107 b 415 497 596 369 519 463 l 415 499 b 546 689 492 531 546 601 z m 546 254 b 322 38 546 135 446 38 b 99 254 199 38 99 135 b 322 471 99 374 199 471 b 546 254 446 471 546 374 z m 149 689 b 322 856 149 781 225 856 b 496 689 419 856 496 781 b 322 521 496 597 419 521 b 149 689 225 521 149 597 z "},"9":{"ha":644,"x_min":0,"x_max":0,"o":"m 546 583 b 310 310 546 431 438 310 b 99 583 197 310 99 428 b 310 856 99 739 197 856 b 546 583 438 856 546 736 z m 310 261 b 546 403 408 261 494 318 l 547 403 b 322 38 531 215 475 38 b 149 119 251 38 189 68 l 149 143 l 99 143 l 99 103 l 104 96 b 322 -12 154 31 233 -12 b 596 583 592 -12 596 407 b 310 906 596 760 469 906 b 50 583 168 906 50 765 b 310 261 50 401 168 261 z "}," ":{"ha":496,"x_min":0,"x_max":0,"o":""},"!":{"ha":247,"x_min":0,"x_max":0,"o":"m 81 31 b 124 -12 81 7 100 -12 b 168 31 147 -12 168 7 b 124 75 168 54 147 75 b 81 31 100 75 81 54 z m 99 943 l 99 249 l 149 249 l 149 893 l 174 893 l 174 943 z "},"\"":{"ha":347,"x_min":0,"x_max":0,"o":"m 210 786 l 199 749 l 247 735 l 258 774 b 272 896 268 810 272 856 b 268 950 272 917 272 933 l 219 942 b 224 896 222 931 224 913 b 210 786 224 861 218 817 z m 74 786 l 63 749 l 110 735 l 122 774 b 136 896 132 810 136 856 b 132 950 136 917 136 933 l 83 942 b 86 896 86 931 86 913 b 74 786 86 861 82 817 z "},"#":{"ha":544,"x_min":0,"x_max":0,"o":"m 339 347 l 190 347 l 207 546 l 356 546 z m 335 297 l 321 149 l 371 149 l 385 297 l 482 297 l 488 347 l 388 347 l 406 546 l 503 546 l 508 596 l 410 596 l 422 744 l 374 744 l 360 596 l 211 596 l 225 744 l 175 744 l 161 596 l 64 596 l 58 546 l 157 546 l 140 347 l 42 347 l 38 297 l 136 297 l 122 149 l 172 149 l 186 297 z "},"$":{"ha":843,"x_min":0,"x_max":0,"o":"m 446 446 b 744 233 599 407 744 368 b 446 50 744 128 629 56 z m 397 511 b 149 689 264 544 149 582 b 397 842 149 756 251 833 z m 397 967 l 397 892 b 99 689 242 883 99 799 b 397 458 99 544 244 497 l 397 51 b 99 179 276 60 151 131 l 99 199 l 50 199 l 50 160 l 57 153 b 397 1 107 101 251 11 l 397 -75 l 446 -75 l 446 0 b 793 233 668 6 793 104 b 446 499 793 410 614 457 l 446 842 b 694 746 532 836 631 806 l 694 719 l 744 719 l 744 767 l 736 774 b 446 892 657 853 539 886 l 446 967 z "},"%":{"ha":892,"x_min":0,"x_max":0,"o":"m 775 860 l 81 65 l 118 33 l 813 828 z m 397 719 b 224 893 397 806 339 893 b 50 719 108 893 50 806 b 224 546 50 632 110 546 b 397 719 338 546 397 632 z m 224 843 b 347 719 310 843 347 781 b 224 596 347 657 310 596 b 99 719 138 596 99 657 b 224 843 99 779 138 843 z m 843 174 b 669 347 843 260 785 347 b 496 174 554 347 496 260 b 669 0 496 86 556 0 b 843 174 783 0 843 86 z m 669 297 b 793 174 756 297 793 235 b 669 50 793 111 756 50 b 546 174 583 50 546 111 b 669 297 546 233 583 297 z "},"&":{"ha":942,"x_min":0,"x_max":0,"o":"m 99 249 b 265 469 99 335 164 419 b 393 321 294 429 338 382 l 618 81 b 425 38 557 51 488 38 b 99 249 188 38 99 150 z m 238 511 b 50 249 119 451 50 350 b 425 -12 50 117 165 -12 b 653 43 499 -12 581 4 b 750 0 681 15 711 0 l 893 0 l 893 50 l 750 50 b 697 69 726 50 711 58 b 843 353 782 129 843 221 b 669 546 843 392 819 546 l 644 546 l 644 471 l 694 471 l 694 493 b 793 353 782 476 793 374 b 663 107 793 238 738 158 l 429 356 b 249 642 282 513 249 564 l 249 644 b 446 843 249 754 336 843 b 642 694 547 843 626 769 l 619 694 l 619 644 l 694 644 l 694 669 b 446 893 694 785 579 893 b 199 644 310 893 199 781 l 199 642 b 238 511 199 594 210 557 z "},"'":{"ha":197,"x_min":0,"x_max":0,"o":"m 74 786 l 63 749 l 110 735 l 122 774 b 136 896 132 810 136 856 b 132 950 136 917 136 933 l 83 942 b 86 896 86 931 86 913 b 74 786 86 861 82 817 z "},"(":{"ha":347,"x_min":0,"x_max":0,"o":"m 50 358 b 283 -297 50 96 121 -199 l 310 -256 b 99 358 179 -178 99 79 l 99 360 b 310 1000 99 643 181 922 l 283 1042 b 50 360 119 943 50 618 z "},")":{"ha":347,"x_min":0,"x_max":0,"o":"m 297 360 b 64 1042 297 618 228 943 l 38 1000 b 249 360 167 922 249 643 b 38 -256 249 81 168 -178 l 64 -297 b 297 360 226 -199 297 96 z "},"*":{"ha":446,"x_min":0,"x_max":0,"o":"m 379 801 l 249 754 l 249 893 l 199 893 l 199 754 l 67 801 l 50 756 l 183 707 l 100 593 l 140 563 l 224 678 l 307 563 l 346 593 l 263 707 l 397 756 z "},"+":{"ha":644,"x_min":0,"x_max":0,"o":"m 347 496 l 347 744 l 297 744 l 297 496 l 50 496 l 50 446 l 297 446 l 297 199 l 347 199 l 347 446 l 596 446 l 596 496 z "},",":{"ha":247,"x_min":0,"x_max":0,"o":"m 75 31 b 106 -10 75 13 89 -4 b 56 -121 106 -57 83 -93 l 78 -143 b 161 31 126 -94 161 -33 b 118 75 161 54 142 75 b 75 31 94 75 75 54 z "},"-":{"ha":446,"x_min":0,"x_max":0,"o":"m 397 347 l 397 397 l 50 397 l 50 347 z "},".":{"ha":247,"x_min":0,"x_max":0,"o":"m 75 31 b 118 -12 75 7 94 -12 b 161 31 142 -12 161 7 b 118 75 161 54 142 75 b 75 31 94 75 75 54 z "},"/":{"ha":743,"x_min":0,"x_max":0,"o":"m 678 967 l 25 -53 l 67 -79 l 719 940 z "},":":{"ha":247,"x_min":0,"x_max":0,"o":"m 75 564 b 118 521 75 540 94 521 b 161 564 142 521 161 540 b 118 608 161 588 142 608 b 75 564 94 608 75 588 z m 75 31 b 118 -12 75 7 94 -12 b 161 31 142 -12 161 7 b 118 75 161 54 142 75 b 75 31 94 75 75 54 z "},";":{"ha":247,"x_min":0,"x_max":0,"o":"m 75 31 b 106 -10 75 13 89 -4 b 56 -121 106 -57 83 -93 l 78 -143 b 161 31 126 -94 161 -33 b 118 75 161 54 142 75 b 75 31 94 75 75 54 z m 75 564 b 118 521 75 540 94 521 b 161 564 142 521 161 540 b 118 608 161 588 142 608 b 75 564 94 608 75 588 z "},"<":{"ha":446,"x_min":0,"x_max":0,"o":"m 422 215 l 99 444 l 99 449 l 422 667 l 394 710 l 50 475 l 50 419 l 393 175 z "},"=":{"ha":644,"x_min":0,"x_max":0,"o":"m 596 297 l 596 347 l 50 347 l 50 297 z m 596 546 l 596 596 l 50 596 l 50 546 z "},">":{"ha":446,"x_min":0,"x_max":0,"o":"m 25 215 l 53 175 l 397 419 l 397 475 l 53 710 l 25 667 l 347 449 l 347 444 z "},"?":{"ha":594,"x_min":0,"x_max":0,"o":"m 229 31 b 272 -12 229 7 249 -12 b 317 31 296 -12 317 7 b 272 75 317 54 296 75 b 229 31 249 75 229 54 z m 249 344 l 249 249 l 297 249 l 297 344 b 546 694 297 476 546 464 b 297 943 546 831 433 943 b 50 694 161 943 50 831 l 99 694 b 297 893 99 804 188 893 b 496 694 407 893 496 804 b 249 344 496 492 249 518 z "},"@":{"ha":1115,"x_min":0,"x_max":0,"o":"m 656 188 l 651 176 b 489 64 615 101 539 64 b 340 246 425 64 340 118 b 601 578 340 453 499 578 l 733 578 z m 494 -186 b 786 -117 611 -186 708 -156 l 765 -74 b 494 -136 667 -124 575 -136 b 75 272 211 -136 75 61 b 626 804 75 549 307 804 b 1042 418 908 804 1042 604 b 776 72 1042 178 875 72 b 700 133 713 72 700 97 b 704 175 700 150 703 167 l 793 628 l 601 628 b 290 246 472 628 290 482 b 489 15 290 89 399 15 b 654 96 543 15 607 43 l 656 96 b 776 22 668 54 706 22 b 1092 418 903 22 1092 151 b 626 853 1092 631 938 853 b 25 272 278 853 25 576 b 494 -186 25 32 186 -186 z "},"A":{"ha":843,"x_min":0,"x_max":0,"o":"m 433 864 l 661 297 l 210 297 z m 681 249 l 783 -8 l 829 8 l 453 954 l 415 954 l 57 50 l 38 50 l 38 0 l 92 0 l 190 249 z "},"B":{"ha":843,"x_min":0,"x_max":0,"o":"m 546 532 l 544 532 l 544 533 l 546 533 b 694 731 643 574 694 651 b 378 943 694 849 581 943 l 75 943 l 75 893 l 99 893 l 99 0 l 478 0 b 793 261 686 0 793 124 b 546 532 793 382 704 501 z m 149 496 l 465 496 b 744 261 646 496 744 371 b 478 50 744 151 658 50 l 149 50 z m 149 546 l 149 893 l 378 893 b 644 731 564 893 644 811 b 378 546 644 647 561 546 z "},"C":{"ha":868,"x_min":0,"x_max":0,"o":"m 769 836 l 769 818 l 818 818 l 818 863 l 807 871 b 533 956 729 924 635 956 b 50 471 267 956 50 738 b 533 -12 50 204 267 -12 b 814 76 638 -12 736 21 l 783 117 b 533 38 713 65 628 38 b 99 471 294 38 99 232 b 533 906 99 710 294 906 b 769 836 619 906 701 879 z "},"D":{"ha":942,"x_min":0,"x_max":0,"o":"m 75 943 l 75 893 l 99 893 l 99 0 l 422 0 b 893 471 683 0 893 210 b 422 943 893 732 683 943 z m 149 50 l 149 893 l 422 893 b 843 471 656 893 843 704 b 422 50 843 238 656 50 z "},"E":{"ha":793,"x_min":0,"x_max":0,"o":"m 644 893 l 644 868 l 694 868 l 694 943 l 75 943 l 75 893 l 99 893 l 99 0 l 744 0 l 744 75 l 694 75 l 694 50 l 149 50 l 149 446 l 446 446 l 446 496 l 149 496 l 149 893 z "},"F":{"ha":793,"x_min":0,"x_max":0,"o":"m 99 893 l 99 0 l 149 0 l 149 446 l 496 446 l 496 496 l 149 496 l 149 893 l 694 893 l 694 868 l 744 868 l 744 943 l 75 943 l 75 893 z "},"G":{"ha":942,"x_min":0,"x_max":0,"o":"m 644 397 l 843 397 l 843 168 b 533 38 764 88 656 38 b 99 471 294 38 99 232 b 533 906 99 710 294 906 b 793 818 632 906 719 872 l 793 793 l 843 793 l 843 842 b 533 956 758 913 651 956 b 50 471 267 956 50 738 b 533 -12 50 204 267 -12 b 843 115 649 -12 767 47 l 843 0 l 893 0 l 893 446 l 644 446 z "},"H":{"ha":892,"x_min":0,"x_max":0,"o":"m 99 943 l 99 0 l 149 0 l 149 446 l 744 446 l 744 0 l 793 0 l 793 943 l 744 943 l 744 496 l 149 496 l 149 943 z "},"I":{"ha":247,"x_min":0,"x_max":0,"o":"m 149 0 l 149 943 l 99 943 l 99 0 z "},"J":{"ha":544,"x_min":0,"x_max":0,"o":"m 99 943 l 99 893 l 397 893 l 397 199 b 218 25 397 86 310 25 b 75 86 161 25 103 47 l 75 99 l 25 99 l 25 72 l 29 65 b 218 -25 67 6 146 -25 b 446 199 336 -25 446 56 l 446 943 z "},"K":{"ha":843,"x_min":0,"x_max":0,"o":"m 151 335 l 149 335 l 149 943 l 99 943 l 99 0 l 149 0 l 149 258 l 315 453 l 647 63 b 793 0 683 21 715 0 l 793 50 b 686 94 731 50 714 63 l 349 492 l 690 893 l 744 893 l 744 943 l 667 943 z "},"L":{"ha":793,"x_min":0,"x_max":0,"o":"m 149 50 l 149 943 l 99 943 l 99 0 l 744 0 l 744 75 l 694 75 l 694 50 z "},"M":{"ha":1339,"x_min":0,"x_max":0,"o":"m 75 50 l 75 0 l 133 0 l 238 844 l 646 -12 l 694 -12 l 1104 846 l 1217 -4 l 1265 3 l 1140 953 l 1099 953 l 669 53 l 240 953 l 200 953 l 89 50 z "},"N":{"ha":892,"x_min":0,"x_max":0,"o":"m 793 943 l 744 943 l 744 86 l 149 943 l 75 943 l 75 893 l 99 893 l 99 0 l 149 0 l 149 857 l 744 0 l 793 0 z "},"O":{"ha":1065,"x_min":0,"x_max":0,"o":"m 99 471 b 533 906 99 710 294 906 b 967 471 772 906 967 710 b 533 38 967 232 772 38 b 99 471 294 38 99 232 z m 533 956 b 50 471 267 956 50 738 b 533 -12 50 204 267 -12 b 1017 471 800 -12 1017 204 b 533 956 1017 738 800 956 z "},"P":{"ha":843,"x_min":0,"x_max":0,"o":"m 99 893 l 99 0 l 149 0 l 149 297 l 471 297 b 793 619 650 297 793 440 b 471 943 793 799 650 943 l 75 943 l 75 893 z m 149 893 l 471 893 b 744 619 621 893 744 769 b 471 347 744 469 621 347 l 149 347 z "},"Q":{"ha":1065,"x_min":0,"x_max":0,"o":"m 533 956 b 50 471 267 956 50 738 b 389 10 50 254 192 71 b 181 -129 276 -18 215 -76 l 171 -144 l 253 -237 l 272 -214 b 386 -164 301 -176 342 -164 b 746 -247 501 -164 647 -247 b 861 -136 813 -247 861 -189 l 811 -136 b 746 -197 811 -158 788 -197 b 386 -114 660 -197 508 -114 b 253 -161 332 -114 288 -129 l 235 -142 b 532 -12 281 -81 361 -12 l 533 -12 b 1017 471 800 -12 1017 204 b 533 956 1017 738 800 956 z m 99 471 b 533 906 99 710 294 906 b 967 471 772 906 967 710 b 533 38 967 232 772 38 b 99 471 294 38 99 232 z "},"R":{"ha":843,"x_min":0,"x_max":0,"o":"m 432 408 l 431 408 l 431 410 l 432 410 b 744 669 638 411 744 533 b 428 943 744 807 638 943 l 75 943 l 75 893 l 99 893 l 99 0 l 149 0 l 149 397 l 272 397 b 474 296 399 397 413 392 l 618 72 b 736 0 654 14 688 0 l 793 0 l 793 50 l 736 50 b 660 99 701 50 686 58 l 515 324 b 432 408 486 368 463 393 z m 428 446 l 149 446 l 149 893 l 428 893 b 694 669 608 893 694 779 b 428 446 694 560 608 446 z "},"S":{"ha":843,"x_min":0,"x_max":0,"o":"m 99 156 l 99 181 l 50 181 l 50 135 l 57 128 b 422 -12 113 74 265 -12 b 793 218 650 -12 793 85 b 450 515 793 393 601 461 b 149 736 271 579 149 629 b 422 906 149 836 271 906 b 694 810 514 906 624 874 l 694 785 l 744 785 l 744 831 l 736 839 b 422 956 649 925 514 956 b 99 736 242 956 99 867 b 433 469 99 583 283 524 b 744 218 607 406 744 349 b 422 38 744 129 640 38 b 99 156 289 38 154 107 z "},"T":{"ha":843,"x_min":0,"x_max":0,"o":"m 50 943 l 50 868 l 99 868 l 99 893 l 397 893 l 397 0 l 446 0 l 446 893 l 744 893 l 744 868 l 793 868 l 793 943 z "},"U":{"ha":892,"x_min":0,"x_max":0,"o":"m 149 943 l 75 943 l 75 893 l 99 893 l 99 335 b 446 -12 99 143 254 -12 b 793 335 638 -12 793 143 l 793 943 l 744 943 l 744 335 b 446 38 744 171 610 38 b 149 335 282 38 149 171 z "},"V":{"ha":843,"x_min":0,"x_max":0,"o":"m 817 933 l 771 951 l 422 78 l 79 943 l 25 943 l 25 893 l 44 893 l 403 -11 l 440 -11 z "},"W":{"ha":1339,"x_min":0,"x_max":0,"o":"m 38 893 l 57 893 l 390 -11 l 428 -11 l 669 631 l 908 -11 l 944 -11 l 1297 933 l 1250 951 l 926 82 l 694 707 l 694 843 l 644 843 l 644 707 l 410 82 l 92 943 l 38 943 z "},"X":{"ha":843,"x_min":0,"x_max":0,"o":"m 747 956 l 422 528 l 94 957 l 54 928 l 390 488 l 32 17 l 72 -12 l 422 446 l 771 -12 l 811 17 l 453 488 l 786 925 z "},"Y":{"ha":843,"x_min":0,"x_max":0,"o":"m 422 396 l 421 396 l 88 943 l 38 943 l 38 893 l 61 893 l 397 339 l 397 0 l 446 0 l 446 339 l 801 928 l 758 953 z "},"Z":{"ha":793,"x_min":0,"x_max":0,"o":"m 719 943 l 75 943 l 75 868 l 124 868 l 124 893 l 647 893 l 647 892 l 646 892 l 50 32 l 50 0 l 744 0 l 744 75 l 694 75 l 694 50 l 121 50 l 121 51 l 122 51 l 719 910 z "},"[":{"ha":297,"x_min":0,"x_max":0,"o":"m 149 992 l 249 992 l 249 1042 l 99 1042 l 99 -297 l 249 -297 l 249 -249 l 149 -249 z "},"\\":{"ha":743,"x_min":0,"x_max":0,"o":"m 67 967 l 25 940 l 678 -79 l 719 -53 z "},"]":{"ha":297,"x_min":0,"x_max":0,"o":"m 149 992 l 149 -249 l 50 -249 l 50 -297 l 199 -297 l 199 1042 l 50 1042 l 50 992 z "},"^":{"ha":710,"x_min":0,"x_max":0,"o":"m 328 956 l 50 608 l 78 583 l 342 913 l 596 585 l 625 607 l 357 956 b 342 963 353 961 347 963 b 328 956 336 963 332 961 z "},"_":{"ha":979,"x_min":0,"x_max":0,"o":"m 893 -261 l 893 -224 l 50 -224 l 50 -261 z "},"`":{"ha":297,"x_min":0,"x_max":0,"o":"m 228 744 l 261 782 l 89 956 l 38 904 z "},"a":{"ha":743,"x_min":0,"x_max":0,"o":"m 596 167 b 322 38 554 85 425 38 b 99 192 200 38 99 106 b 322 347 99 267 167 347 l 596 347 z m 594 101 l 596 101 l 596 0 l 669 0 l 669 50 l 644 50 l 644 433 b 378 657 644 600 511 657 b 149 600 296 657 206 636 l 149 546 l 199 546 l 199 571 b 378 608 243 592 308 608 b 596 433 479 608 596 572 l 596 397 l 322 397 b 50 192 144 397 50 299 b 322 -12 50 78 172 -12 b 594 101 417 -12 529 26 z "},"b":{"ha":793,"x_min":0,"x_max":0,"o":"m 149 157 l 150 157 b 422 -12 203 56 301 -12 b 744 322 601 -12 744 139 b 422 657 744 506 601 657 b 150 488 301 657 203 589 l 149 488 l 149 943 l 75 943 l 75 893 l 99 893 l 99 0 l 149 0 z m 149 322 b 422 608 149 481 272 608 b 694 322 572 608 694 481 b 422 38 694 164 572 38 b 149 322 272 38 149 164 z "},"c":{"ha":669,"x_min":0,"x_max":0,"o":"m 571 539 l 571 521 l 619 521 l 619 561 l 611 568 b 385 657 551 622 472 657 b 50 322 200 657 50 507 b 385 -12 50 138 200 -12 b 631 93 482 -12 568 28 l 593 128 b 385 38 540 72 467 38 b 99 322 228 38 99 165 b 385 608 99 479 228 608 b 571 539 457 608 519 582 z "},"d":{"ha":793,"x_min":0,"x_max":0,"o":"m 644 322 b 372 38 644 164 522 38 b 99 322 222 38 99 164 b 372 608 99 481 222 608 b 644 322 522 608 644 481 z m 694 943 l 619 943 l 619 893 l 644 893 l 644 488 l 643 488 b 372 657 590 589 493 657 b 50 322 193 657 50 506 b 372 -12 50 139 193 -12 b 643 157 493 -12 590 56 l 644 157 l 644 0 l 719 0 l 719 50 l 694 50 z "},"e":{"ha":718,"x_min":0,"x_max":0,"o":"m 335 347 l 100 347 b 385 608 113 493 238 608 b 600 508 471 608 547 569 b 335 347 532 447 429 347 z m 100 297 l 335 297 b 651 486 460 297 589 433 l 668 501 l 654 519 b 385 657 593 603 496 657 b 50 322 201 657 50 507 b 385 -12 50 138 200 -12 b 629 94 482 -12 568 29 l 593 128 b 385 38 540 72 467 38 b 100 297 236 38 113 151 z "},"f":{"ha":496,"x_min":0,"x_max":0,"o":"m 50 596 l 149 596 l 149 0 l 199 0 l 199 596 l 397 596 l 397 644 l 199 644 l 199 744 b 360 906 199 833 271 906 b 496 829 417 906 467 875 l 496 806 l 546 806 l 546 843 l 542 850 b 360 956 506 914 438 956 b 149 744 243 956 149 861 l 149 644 l 50 644 z "},"g":{"ha":694,"x_min":0,"x_max":0,"o":"m 167 44 l 536 -44 b 632 -154 600 -60 632 -110 b 493 -249 632 -200 593 -249 l 240 -249 b 75 -126 117 -249 75 -192 b 167 44 75 -62 118 13 z m 128 126 b 201 243 128 150 151 193 b 347 199 242 215 293 199 b 596 428 482 199 596 300 b 517 596 596 494 565 554 l 669 596 l 669 644 l 428 644 b 347 657 403 653 376 657 b 99 428 213 657 99 557 b 163 274 99 368 122 314 b 78 126 133 243 78 179 b 113 64 78 113 79 85 b 25 -126 64 19 25 -54 b 240 -297 25 -215 85 -297 l 493 -297 b 682 -154 621 -297 682 -229 b 547 4 682 -85 631 -15 l 165 97 b 128 126 136 104 128 114 z m 149 428 b 347 608 149 526 236 608 b 546 428 457 608 546 526 b 347 249 546 329 458 249 b 149 428 236 249 149 329 z "},"h":{"ha":793,"x_min":0,"x_max":0,"o":"m 150 461 l 149 461 l 149 943 l 75 943 l 75 893 l 99 893 l 99 0 l 149 0 l 149 285 b 446 608 149 471 288 608 b 644 433 567 608 644 546 l 644 50 l 644 0 l 719 0 l 719 50 l 694 50 l 694 433 b 446 657 694 572 594 657 b 150 461 314 657 206 579 z "},"i":{"ha":247,"x_min":0,"x_max":0,"o":"m 75 850 b 118 806 75 826 94 806 b 161 850 142 806 161 826 b 118 893 161 874 142 893 b 75 850 94 893 75 874 z m 99 596 l 99 0 l 149 0 l 149 644 l 75 644 l 75 596 z "},"j":{"ha":222,"x_min":0,"x_max":0,"o":"m 74 850 b 118 806 74 826 94 806 b 161 850 142 806 161 826 b 118 893 161 874 142 893 b 74 850 94 893 74 874 z m 75 644 l 75 596 l 99 596 l 99 -111 b -37 -249 99 -186 38 -249 b -149 -190 -83 -249 -124 -225 l -149 -174 l -199 -174 l -199 -204 l -194 -211 b -37 -297 -161 -264 -103 -297 b 149 -111 65 -297 149 -214 l 149 644 z "},"k":{"ha":743,"x_min":0,"x_max":0,"o":"m 150 203 l 149 203 l 149 943 l 75 943 l 75 893 l 99 893 l 99 0 l 149 0 l 149 128 l 331 319 l 561 63 b 694 0 604 14 650 0 l 694 50 b 597 94 674 50 638 51 l 364 356 l 590 596 l 644 596 l 644 644 l 569 644 z "},"l":{"ha":247,"x_min":0,"x_max":0,"o":"m 75 943 l 75 893 l 99 893 l 99 0 l 149 0 l 149 943 z "},"m":{"ha":1239,"x_min":0,"x_max":0,"o":"m 150 476 l 149 476 l 149 644 l 75 644 l 75 596 l 99 596 l 99 0 l 149 0 l 149 285 b 422 608 149 472 265 608 b 596 433 546 608 596 542 l 596 0 l 644 0 l 644 285 b 918 608 644 472 761 608 b 1092 433 1042 608 1092 542 l 1092 50 l 1092 0 l 1165 0 l 1165 50 l 1140 50 l 1140 433 b 918 657 1140 578 1063 657 b 644 471 836 657 710 625 l 643 471 b 422 657 631 592 556 657 b 150 476 346 657 215 628 z "},"n":{"ha":793,"x_min":0,"x_max":0,"o":"m 150 461 l 149 461 l 149 644 l 75 644 l 75 596 l 99 596 l 99 0 l 149 0 l 149 285 b 446 608 149 471 288 608 b 644 433 567 608 644 546 l 644 50 l 644 0 l 719 0 l 719 50 l 694 50 l 694 433 b 446 657 694 572 594 657 b 150 461 314 657 206 579 z "},"o":{"ha":768,"x_min":0,"x_max":0,"o":"m 99 322 b 385 608 99 479 228 608 b 669 322 542 608 669 479 b 385 38 669 165 542 38 b 99 322 228 38 99 165 z m 385 657 b 50 322 200 657 50 507 b 385 -12 50 138 200 -12 b 719 322 569 -12 719 138 b 385 657 719 507 569 657 z "},"p":{"ha":793,"x_min":0,"x_max":0,"o":"m 149 157 l 150 157 b 422 -12 203 56 301 -12 b 744 322 601 -12 744 139 b 422 657 744 506 601 657 b 150 488 301 657 203 589 l 149 488 l 149 644 l 75 644 l 75 596 l 99 596 l 99 -297 l 149 -297 z m 149 322 b 422 608 149 481 272 608 b 694 322 572 608 694 481 b 422 38 694 164 572 38 b 149 322 272 38 149 164 z "},"q":{"ha":793,"x_min":0,"x_max":0,"o":"m 644 322 b 372 38 644 164 522 38 b 99 322 222 38 99 164 b 372 608 99 481 222 608 b 644 322 522 608 644 481 z m 694 644 l 644 644 l 644 488 l 643 488 b 372 657 590 589 493 657 b 50 322 193 657 50 506 b 372 -12 50 139 193 -12 b 643 157 493 -12 590 56 l 644 157 l 644 -297 l 719 -297 l 719 -249 l 694 -249 z "},"r":{"ha":496,"x_min":0,"x_max":0,"o":"m 150 433 l 149 433 l 149 644 l 75 644 l 75 596 l 99 596 l 99 0 l 149 0 l 149 249 b 397 606 149 447 296 586 l 397 583 l 446 583 l 446 657 l 422 657 b 150 433 329 657 210 572 z "},"s":{"ha":644,"x_min":0,"x_max":0,"o":"m 322 367 b 149 501 229 399 149 431 b 322 608 149 543 221 608 b 496 550 388 608 450 590 l 496 533 l 546 533 l 546 571 l 539 578 b 322 657 481 635 401 657 b 99 501 207 657 99 583 b 322 315 99 394 211 353 b 546 156 435 278 546 246 b 322 38 546 103 478 38 b 99 117 193 38 128 83 l 99 136 l 50 136 l 50 99 l 54 93 b 322 -12 96 40 183 -12 b 596 156 488 -12 596 57 b 322 367 596 285 449 325 z "},"t":{"ha":594,"x_min":0,"x_max":0,"o":"m 50 596 l 149 596 l 149 199 b 360 -12 149 82 243 -12 b 542 93 438 -12 506 29 l 546 99 l 546 124 l 496 124 l 496 113 b 360 38 467 67 417 38 b 199 199 271 38 199 110 l 199 596 l 496 596 l 496 644 l 199 644 l 199 793 l 149 793 l 149 644 l 50 644 z "},"u":{"ha":793,"x_min":0,"x_max":0,"o":"m 149 644 l 75 644 l 75 596 l 99 596 l 99 211 b 347 -12 99 72 199 -12 b 643 183 479 -12 588 65 l 644 183 l 644 0 l 719 0 l 719 50 l 694 50 l 694 644 l 644 644 l 644 360 b 347 38 644 174 506 38 b 149 211 226 38 149 99 l 149 596 z "},"v":{"ha":743,"x_min":0,"x_max":0,"o":"m 731 633 l 686 656 l 385 65 l 89 644 l 38 644 l 38 596 l 60 596 l 368 -11 l 400 -11 z "},"w":{"ha":1115,"x_min":0,"x_max":0,"o":"m 347 72 l 90 644 l 38 644 l 38 596 l 58 596 l 331 -11 l 364 -11 l 571 446 l 776 -11 l 811 -11 l 1100 635 l 1056 654 l 793 72 l 596 513 l 596 619 l 546 619 l 546 513 z "},"x":{"ha":694,"x_min":0,"x_max":0,"o":"m 599 658 l 347 374 l 108 644 l 63 644 l 63 596 l 86 596 l 315 336 l 33 18 l 71 -14 l 347 299 l 624 -14 l 661 18 l 381 336 l 636 626 z "},"y":{"ha":743,"x_min":0,"x_max":0,"o":"m 719 613 l 719 644 l 669 644 l 669 625 l 374 10 l 372 10 l 90 644 l 38 644 l 38 596 l 58 596 l 344 -50 l 300 -143 b 179 -249 260 -225 217 -249 b 75 -186 139 -249 99 -219 l 75 -175 l 25 -175 l 25 -201 l 29 -207 b 179 -297 57 -249 113 -297 b 344 -165 239 -297 299 -261 z "},"z":{"ha":694,"x_min":0,"x_max":0,"o":"m 539 596 l 539 594 l 50 35 l 50 0 l 644 0 l 644 75 l 596 75 l 596 50 l 131 50 l 131 51 l 619 610 l 619 644 l 75 644 l 75 571 l 124 571 l 124 596 z "},"{":{"ha":297,"x_min":0,"x_max":0,"o":"m 99 -124 b 249 -297 99 -275 176 -297 l 249 -249 b 149 -124 192 -249 149 -233 l 149 236 b 75 372 149 313 113 354 b 149 508 113 390 149 431 l 149 868 b 249 992 149 978 192 992 l 249 1042 b 99 868 176 1042 99 1019 l 99 508 b 25 410 99 425 44 410 l 0 410 l 0 335 l 25 335 b 99 236 44 335 99 319 z "},"|":{"ha":247,"x_min":0,"x_max":0,"o":"m 99 893 l 99 -249 l 149 -249 l 149 893 z "},"}":{"ha":297,"x_min":0,"x_max":0,"o":"m 199 -124 l 199 236 b 272 335 199 319 253 335 l 297 335 l 297 410 l 272 410 b 199 508 253 410 199 425 l 199 868 b 50 1042 199 1019 122 1042 l 50 992 b 149 868 107 992 149 978 l 149 508 b 224 372 149 431 186 390 b 149 236 186 354 149 313 l 149 -124 b 50 -249 149 -233 107 -249 l 50 -297 b 199 -124 122 -297 199 -275 z "},"~":{"ha":496,"x_min":0,"x_max":0,"o":"m 142 536 b 42 446 94 536 51 507 l 92 439 b 142 486 94 451 101 486 b 179 476 153 486 164 483 l 294 422 b 356 407 314 413 336 407 b 454 496 408 407 444 442 l 404 504 b 356 457 401 493 396 457 b 318 467 346 457 333 460 l 201 521 b 142 536 182 531 161 536 z "},"¡":{"ha":247,"x_min":0,"x_max":0,"o":"m 81 614 b 124 571 81 590 100 571 b 168 614 147 571 168 590 b 124 657 168 638 147 657 b 81 614 100 657 81 638 z m 149 -297 l 149 397 l 99 397 l 99 -249 l 75 -249 l 75 -297 z "},"¢":{"ha":694,"x_min":0,"x_max":0,"o":"m 347 78 b 99 372 207 101 99 226 b 347 665 99 518 207 642 z m 644 615 b 397 719 581 679 494 719 l 397 793 l 347 793 l 347 715 b 50 372 179 690 50 546 b 347 29 50 199 179 54 l 347 -50 l 397 -50 l 397 25 b 650 135 496 25 586 68 l 615 168 b 397 75 561 110 483 75 l 397 669 b 596 594 472 669 543 642 l 596 571 l 644 571 z "},"£":{"ha":743,"x_min":0,"x_max":0,"o":"m 38 50 l 38 0 l 694 0 l 694 75 l 644 75 l 644 50 l 174 50 b 249 211 219 89 249 147 l 249 446 l 446 446 l 446 496 l 249 496 l 249 707 b 410 868 249 796 321 868 b 546 793 467 868 517 839 l 546 781 l 596 781 l 596 806 l 592 813 b 410 918 556 876 488 918 b 199 707 293 918 199 824 l 199 496 l 99 496 l 99 446 l 199 446 l 199 211 b 38 50 199 122 126 50 z "},"¤":{"ha":446,"x_min":0,"x_max":0,"o":"m 226 603 b 124 571 176 603 143 586 l 65 628 l 29 596 l 88 536 b 50 425 63 504 50 467 b 86 318 50 388 60 351 l 33 265 l 65 228 l 122 283 b 226 249 151 261 186 249 b 338 286 268 249 306 261 l 389 235 l 426 267 l 372 322 b 404 425 388 342 404 375 b 369 531 404 465 392 501 l 428 589 l 394 626 l 335 565 b 226 603 301 592 264 603 z m 136 515 b 226 553 161 540 192 553 b 318 515 261 553 293 540 b 354 425 343 490 354 460 b 318 335 354 390 343 360 b 226 297 293 310 261 297 b 136 335 192 297 161 310 b 99 425 111 360 99 390 b 136 515 99 460 111 490 z "},"¥":{"ha":843,"x_min":0,"x_max":0,"o":"m 199 347 l 392 347 l 397 339 l 397 249 l 199 249 l 199 199 l 397 199 l 397 0 l 446 0 l 446 199 l 644 199 l 644 249 l 446 249 l 446 339 l 451 347 l 644 347 l 644 397 l 481 397 l 804 931 l 760 956 l 424 397 l 419 397 l 88 943 l 38 943 l 38 893 l 61 893 l 363 397 l 199 397 z "},"¦":{"ha":247,"x_min":0,"x_max":0,"o":"m 99 446 l 149 446 l 149 943 l 99 943 z m 149 199 l 99 199 l 99 -297 l 149 -297 z "},"§":{"ha":793,"x_min":0,"x_max":0,"o":"m 554 75 b 99 411 399 189 99 197 b 239 569 99 475 142 538 b 694 233 394 456 694 447 b 554 75 694 169 651 107 z m 397 893 b 596 694 507 893 596 804 l 644 694 b 397 943 644 831 533 943 b 149 739 224 943 149 847 b 197 607 149 683 168 642 b 50 411 93 563 50 485 b 596 -94 50 81 596 163 b 397 -249 596 -178 540 -249 b 199 -50 288 -249 199 -160 l 149 -50 b 397 -297 149 -186 261 -297 b 644 -94 571 -297 644 -203 b 596 39 644 -39 625 4 b 744 233 692 79 744 151 b 199 739 744 564 199 482 b 397 893 199 822 254 893 z "},"¨":{"ha":496,"x_min":0,"x_max":0,"o":"m 353 825 b 397 781 353 801 374 781 b 440 825 421 781 440 801 b 397 868 440 849 421 868 b 353 825 374 868 353 849 z m 63 825 b 106 781 63 801 82 781 b 149 825 129 781 149 801 b 106 868 149 849 129 868 b 63 825 82 868 63 849 z "},"©":{"ha":1140,"x_min":0,"x_max":0,"o":"m 744 675 l 744 644 l 793 644 l 793 699 l 785 706 b 583 781 731 751 660 781 b 272 471 413 781 272 642 b 583 161 272 300 413 161 b 810 260 667 161 747 194 l 774 293 b 583 211 721 238 653 211 b 322 471 439 211 322 326 b 583 732 322 615 439 732 b 744 675 644 732 700 710 z m 1028 235 b 1097 474 1053 274 1097 354 b 1028 713 1097 593 1053 674 b 838 890 975 799 907 853 b 571 957 743 940 653 957 b 304 890 489 957 399 940 b 113 713 235 853 165 799 b 43 474 88 674 43 593 b 113 235 43 354 88 274 b 304 57 165 149 235 94 b 571 -7 399 7 492 -7 b 838 57 653 -7 743 7 b 1028 235 907 94 975 149 z m 1047 474 b 986 261 1047 367 1008 296 b 814 100 938 185 876 133 b 571 42 729 54 646 42 b 328 100 499 42 414 54 b 156 261 265 133 204 185 b 93 474 133 296 93 367 b 156 688 93 581 133 653 b 328 847 204 764 265 814 b 571 908 413 893 496 908 b 814 847 646 908 729 893 b 986 688 876 814 938 764 b 1047 474 1008 653 1047 581 z "},"ª":{"ha":544,"x_min":0,"x_max":0,"o":"m 446 563 b 263 471 417 506 339 471 b 99 589 174 471 99 513 b 263 694 99 642 151 694 l 446 694 z m 508 446 l 508 496 l 496 496 l 496 793 b 297 967 496 921 401 967 b 110 914 228 967 151 947 l 99 907 l 99 868 l 149 868 l 149 882 b 297 918 178 899 232 918 b 446 793 375 918 446 890 l 446 744 l 263 744 b 50 589 129 744 50 675 b 263 422 50 489 139 422 b 446 485 326 422 396 442 l 446 446 z "},"«":{"ha":496,"x_min":0,"x_max":0,"o":"m 86 324 l 249 521 l 210 553 l 38 342 l 38 303 l 210 94 l 249 125 l 86 319 z m 285 324 l 446 521 l 408 553 l 236 342 l 236 303 l 408 94 l 446 125 l 285 319 z "},"¬":{"ha":743,"x_min":0,"x_max":0,"o":"m 50 496 l 50 446 l 596 446 l 596 149 l 644 149 l 644 496 z "},"­":{"ha":446,"x_min":0,"x_max":0,"o":"m 397 347 l 397 397 l 50 397 l 50 347 z "},"®":{"ha":1140,"x_min":0,"x_max":0,"o":"m 604 483 l 446 483 l 446 732 l 604 732 b 754 608 707 732 754 669 b 604 483 754 547 706 483 z m 793 186 l 828 186 l 828 236 l 793 236 b 757 261 775 236 771 240 l 665 406 b 631 447 654 424 640 438 b 804 608 743 457 804 526 b 604 781 804 696 736 781 l 397 781 l 397 186 l 446 186 l 446 433 l 511 433 b 624 378 585 433 590 431 l 714 233 b 793 186 725 217 746 186 z m 1047 474 b 986 261 1047 367 1008 296 b 814 100 938 185 876 133 b 571 42 729 54 646 42 b 328 100 499 42 414 54 b 156 261 265 133 204 185 b 93 474 133 296 93 367 b 156 688 93 581 133 653 b 328 847 204 764 265 814 b 571 908 413 893 496 908 b 814 847 646 908 729 893 b 986 688 876 814 938 764 b 1047 474 1008 653 1047 581 z m 1028 235 b 1097 474 1053 274 1097 354 b 1028 713 1097 593 1053 674 b 838 890 975 799 907 853 b 571 957 743 940 653 957 b 304 890 489 957 399 940 b 113 713 235 853 165 799 b 43 474 88 674 43 593 b 113 235 43 354 88 274 b 304 57 165 149 235 94 b 571 -7 399 7 492 -7 b 838 57 653 -7 743 7 b 1028 235 907 94 975 149 z "},"¯":{"ha":496,"x_min":0,"x_max":0,"o":"m 446 843 l 446 893 l 50 893 l 50 843 z "},"°":{"ha":347,"x_min":0,"x_max":0,"o":"m 174 893 b 249 818 208 893 249 858 b 174 744 249 778 208 744 b 99 818 139 744 99 778 b 174 893 99 858 139 893 z m 174 943 b 50 818 111 943 50 885 b 174 694 50 751 111 694 b 297 818 236 694 297 751 b 174 943 297 885 236 943 z "},"±":{"ha":644,"x_min":0,"x_max":0,"o":"m 596 99 l 596 149 l 50 149 l 50 99 z m 347 546 l 347 793 l 297 793 l 297 546 l 50 546 l 50 496 l 297 496 l 297 249 l 347 249 l 347 496 l 596 496 l 596 546 z "},"²":{"ha":446,"x_min":0,"x_max":0,"o":"m 397 596 l 397 668 l 347 668 l 347 644 l 132 644 l 276 778 b 397 979 361 857 397 915 b 224 1154 397 1075 319 1154 b 50 979 128 1154 50 1075 l 99 979 b 224 1104 99 1047 156 1104 b 347 979 292 1104 347 1047 b 243 815 347 936 325 890 l 50 638 l 50 596 z "},"³":{"ha":446,"x_min":0,"x_max":0,"o":"m 99 753 l 50 753 b 224 583 50 658 128 583 b 397 753 319 583 397 658 b 294 899 397 817 356 872 l 294 900 b 367 1014 336 924 367 967 b 224 1154 367 1092 303 1154 b 79 1014 144 1154 79 1092 l 129 1014 b 224 1104 129 1064 171 1104 b 318 1014 276 1104 318 1064 b 224 922 318 964 276 922 l 224 874 b 347 753 293 874 347 818 b 224 632 347 688 293 632 b 99 753 154 632 99 688 z "},"´":{"ha":297,"x_min":0,"x_max":0,"o":"m 82 757 l 221 896 l 185 931 l 47 792 z "},"µ":{"ha":793,"x_min":0,"x_max":0,"o":"m 149 644 l 75 644 l 75 596 l 99 596 l 99 222 l 99 211 l 99 36 b 113 -121 99 -29 113 -81 b 96 -185 113 -146 108 -164 l 138 -211 b 161 -121 156 -182 161 -151 b 136 36 161 -74 136 -26 l 136 82 b 347 -12 178 22 253 -12 b 643 183 479 -12 588 65 l 644 183 l 644 0 l 719 0 l 719 50 l 694 50 l 694 644 l 644 644 l 644 360 b 347 38 644 174 506 38 b 149 211 226 38 149 99 l 149 596 z "},"¶":{"ha":594,"x_min":0,"x_max":0,"o":"m 249 -249 l 297 -249 l 297 843 l 446 843 l 446 -249 l 496 -249 l 496 893 l 249 893 b 108 835 194 893 147 874 b 50 694 69 796 50 749 b 108 554 50 640 69 593 b 249 496 147 515 194 496 z m 249 843 l 249 546 b 143 589 207 546 172 560 b 99 694 114 618 99 653 b 143 800 99 736 114 771 b 249 843 172 829 207 843 z "},"·":{"ha":247,"x_min":0,"x_max":0,"o":"m 75 328 b 118 285 75 304 94 285 b 161 328 142 285 161 304 b 118 372 161 351 142 372 b 75 328 94 372 75 351 z "},"¸":{"ha":557,"x_min":0,"x_max":0,"o":"m 197 -99 b 256 -82 219 -89 232 -82 b 322 -158 300 -82 322 -121 b 250 -233 322 -196 300 -233 b 174 -193 217 -233 189 -218 l 142 -212 b 250 -271 164 -250 206 -271 b 372 -164 307 -271 372 -236 b 256 -44 372 -106 331 -44 b 217 -50 240 -44 229 -46 l 233 7 l 197 17 l 167 -90 z "},"¹":{"ha":247,"x_min":0,"x_max":0,"o":"m 99 1058 l 99 596 l 149 596 l 149 1140 l 106 1140 l 39 1065 l 75 1033 z "},"º":{"ha":644,"x_min":0,"x_max":0,"o":"m 322 918 b 546 694 444 918 546 817 b 322 471 546 572 444 471 b 99 694 200 471 99 572 b 322 918 99 817 200 918 z m 596 694 b 322 967 596 844 472 967 b 50 694 172 967 50 844 b 322 422 50 544 172 422 b 596 694 472 422 596 544 z "},"»":{"ha":496,"x_min":0,"x_max":0,"o":"m 410 321 l 249 124 l 286 92 l 458 303 l 458 342 l 286 550 l 249 519 l 410 325 z m 211 321 l 50 124 l 88 92 l 261 303 l 261 342 l 88 550 l 50 519 l 211 325 z "},"¼":{"ha":892,"x_min":0,"x_max":0,"o":"m 744 297 l 744 99 l 538 99 b 703 496 654 276 703 374 l 654 496 b 475 97 654 386 606 294 l 471 90 l 471 50 l 744 50 l 744 -50 l 793 -50 l 793 50 l 843 50 l 843 99 l 793 99 l 793 297 z m 700 860 l 6 65 l 43 33 l 738 828 z m 99 861 l 99 397 l 149 397 l 149 943 l 106 943 l 39 867 l 75 835 z "},"½":{"ha":892,"x_min":0,"x_max":0,"o":"m 843 -50 l 843 22 l 793 22 l 793 0 l 578 0 l 724 133 b 843 333 810 211 843 269 l 843 335 b 669 508 843 431 765 508 b 496 335 574 508 496 431 l 546 335 b 669 458 546 403 601 458 b 793 335 738 458 793 403 l 793 333 b 689 169 793 290 771 244 l 496 -7 l 496 -50 z m 99 861 l 99 397 l 149 397 l 149 943 l 106 943 l 39 867 l 75 835 z m 700 860 l 6 65 l 43 33 l 738 828 z "},"¾":{"ha":1042,"x_min":0,"x_max":0,"o":"m 99 554 l 50 554 b 224 385 50 460 128 385 b 397 554 319 385 397 460 b 294 700 397 618 356 674 l 294 701 b 367 815 336 725 367 768 b 224 956 367 893 303 956 b 79 815 144 956 79 893 l 129 815 b 224 906 129 865 171 906 b 318 815 276 906 318 865 b 224 724 318 765 276 724 l 224 675 b 347 554 293 675 347 619 b 224 433 347 489 293 433 b 99 554 154 433 99 489 z m 893 297 l 893 99 l 686 99 b 851 496 803 276 851 374 l 803 496 b 624 97 803 386 754 294 l 619 90 l 619 50 l 893 50 l 893 -50 l 943 -50 l 943 50 l 992 50 l 992 99 l 943 99 l 943 297 z m 850 860 l 156 65 l 192 33 l 886 828 z "},"¿":{"ha":594,"x_min":0,"x_max":0,"o":"m 279 614 b 322 571 279 590 299 571 b 365 614 346 571 365 590 b 322 657 365 638 346 657 b 279 614 299 657 279 638 z m 347 300 l 347 397 l 297 397 l 297 300 b 50 -50 297 168 50 181 b 297 -297 50 -186 161 -297 b 546 -50 433 -297 546 -186 l 496 -50 b 297 -249 496 -160 407 -249 b 99 -50 188 -249 99 -160 b 347 300 99 153 347 126 z "},"À":{"ha":843,"x_min":0,"x_max":0,"o":"m 464 1054 l 500 1089 l 363 1228 l 326 1193 z m 682 249 l 783 -10 l 829 10 l 451 967 l 417 967 l 57 50 l 38 50 l 38 0 l 92 0 l 189 249 z m 433 874 l 435 874 l 663 297 l 208 297 z "},"Á":{"ha":843,"x_min":0,"x_max":0,"o":"m 404 1054 l 543 1193 l 507 1228 l 369 1089 z m 682 249 l 783 -10 l 829 10 l 451 967 l 417 967 l 57 50 l 38 50 l 38 0 l 92 0 l 189 249 z m 433 874 l 435 874 l 663 297 l 208 297 z "},"Â":{"ha":843,"x_min":0,"x_max":0,"o":"m 436 1178 l 608 1042 l 639 1081 l 454 1228 l 414 1228 l 229 1081 l 261 1042 l 432 1178 z m 682 249 l 783 -10 l 829 10 l 451 967 l 417 967 l 57 50 l 38 50 l 38 0 l 92 0 l 189 249 z m 433 874 l 435 874 l 663 297 l 208 297 z "},"Ã":{"ha":843,"x_min":0,"x_max":0,"o":"m 481 1168 l 404 1210 b 344 1224 386 1219 364 1224 b 253 1140 303 1224 264 1200 l 247 1107 l 294 1099 l 303 1132 b 344 1175 308 1163 324 1175 b 388 1164 357 1175 372 1171 l 464 1121 b 524 1107 482 1111 504 1107 b 615 1190 565 1107 604 1131 l 621 1224 l 572 1233 l 565 1199 b 524 1156 560 1168 544 1156 b 481 1168 511 1156 496 1161 z m 682 249 l 783 -10 l 829 10 l 451 967 l 417 967 l 57 50 l 38 50 l 38 0 l 92 0 l 189 249 z m 433 874 l 435 874 l 663 297 l 208 297 z "},"Ä":{"ha":843,"x_min":0,"x_max":0,"o":"m 539 1122 b 583 1079 539 1099 560 1079 b 626 1122 607 1079 626 1099 b 583 1165 626 1146 607 1165 b 539 1122 560 1165 539 1146 z m 249 1122 b 292 1079 249 1099 268 1079 b 335 1122 315 1079 335 1099 b 292 1165 335 1146 315 1165 b 249 1122 268 1165 249 1146 z m 682 249 l 783 -10 l 829 10 l 451 967 l 417 967 l 57 50 l 38 50 l 38 0 l 92 0 l 189 249 z m 433 874 l 435 874 l 663 297 l 208 297 z "},"Å":{"ha":843,"x_min":0,"x_max":0,"o":"m 433 1240 b 350 1203 404 1240 376 1228 b 310 1117 324 1178 310 1149 b 350 1031 310 1085 324 1056 b 433 992 376 1006 404 992 b 518 1029 463 992 492 1004 b 558 1117 544 1054 558 1085 b 518 1203 558 1149 544 1178 b 433 1240 492 1228 463 1240 z m 433 1203 b 493 1175 446 1203 465 1200 b 521 1117 510 1158 521 1140 b 493 1057 521 1093 510 1074 b 433 1029 465 1032 446 1029 b 375 1057 421 1029 401 1031 b 347 1117 349 1083 347 1104 b 375 1175 347 1140 358 1158 b 433 1203 403 1200 421 1203 z m 682 249 l 783 -10 l 829 10 l 451 967 l 417 967 l 57 50 l 38 50 l 38 0 l 92 0 l 189 249 z m 433 874 l 435 874 l 663 297 l 208 297 z "},"Æ":{"ha":1190,"x_min":0,"x_max":0,"o":"m 190 249 l 583 249 l 583 0 l 1140 0 l 1140 75 l 1092 75 l 1092 50 l 632 50 l 632 446 l 843 446 l 843 496 l 632 496 l 632 893 l 1042 893 l 1042 868 l 1092 868 l 1092 943 l 482 943 l 35 50 l 25 50 l 25 0 l 64 0 z m 214 297 l 514 893 l 583 893 l 583 297 z "},"Ç":{"ha":868,"x_min":0,"x_max":0,"o":"m 415 -118 b 474 -101 438 -108 450 -101 b 540 -178 518 -101 540 -140 b 468 -253 540 -215 518 -253 b 392 -212 435 -253 407 -237 l 360 -232 b 468 -290 382 -269 424 -290 b 590 -183 525 -290 590 -256 b 474 -64 590 -125 549 -64 b 435 -69 458 -64 447 -65 l 451 -12 l 415 -3 l 385 -110 z m 769 836 l 769 818 l 818 818 l 818 863 l 807 871 b 533 956 729 924 635 956 b 50 471 267 956 50 738 b 533 -12 50 204 267 -12 b 814 76 638 -12 736 21 l 783 117 b 533 38 713 65 628 38 b 99 471 294 38 99 232 b 533 906 99 710 294 906 b 769 836 619 906 701 879 z "},"È":{"ha":793,"x_min":0,"x_max":0,"o":"m 428 1054 l 463 1089 l 325 1228 l 289 1193 z m 644 893 l 644 868 l 694 868 l 694 943 l 75 943 l 75 893 l 99 893 l 99 0 l 744 0 l 744 75 l 694 75 l 694 50 l 149 50 l 149 446 l 446 446 l 446 496 l 149 496 l 149 893 z "},"É":{"ha":793,"x_min":0,"x_max":0,"o":"m 368 1054 l 507 1193 l 471 1228 l 333 1089 z m 644 893 l 644 868 l 694 868 l 694 943 l 75 943 l 75 893 l 99 893 l 99 0 l 744 0 l 744 75 l 694 75 l 694 50 l 149 50 l 149 446 l 446 446 l 446 496 l 149 496 l 149 893 z "},"Ê":{"ha":793,"x_min":0,"x_max":0,"o":"m 399 1178 l 571 1042 l 601 1079 l 417 1228 l 376 1228 l 192 1079 l 224 1042 l 394 1178 z m 644 893 l 644 868 l 694 868 l 694 943 l 75 943 l 75 893 l 99 893 l 99 0 l 744 0 l 744 75 l 694 75 l 694 50 l 149 50 l 149 446 l 446 446 l 446 496 l 149 496 l 149 893 z "},"Ë":{"ha":793,"x_min":0,"x_max":0,"o":"m 501 1122 b 546 1078 501 1099 522 1078 b 589 1122 569 1078 589 1099 b 546 1165 589 1146 569 1165 b 501 1122 522 1165 501 1146 z m 211 1122 b 254 1078 211 1099 231 1078 b 297 1122 278 1078 297 1099 b 254 1165 297 1146 278 1165 b 211 1122 231 1165 211 1146 z m 644 893 l 644 868 l 694 868 l 694 943 l 75 943 l 75 893 l 99 893 l 99 0 l 744 0 l 744 75 l 694 75 l 694 50 l 149 50 l 149 446 l 446 446 l 446 496 l 149 496 l 149 893 z "},"Ì":{"ha":247,"x_min":0,"x_max":0,"o":"m 154 1054 l 190 1089 l 53 1228 l 17 1193 z m 149 0 l 149 943 l 99 943 l 99 0 z "},"Í":{"ha":247,"x_min":0,"x_max":0,"o":"m 94 1054 l 233 1193 l 197 1228 l 60 1089 z m 149 0 l 149 943 l 99 943 l 99 0 z "},"Î":{"ha":247,"x_min":0,"x_max":0,"o":"m 126 1178 l 297 1042 l 329 1081 l 144 1228 l 104 1228 l -81 1081 l -50 1042 l 122 1178 z m 149 0 l 149 943 l 99 943 l 99 0 z "},"Ï":{"ha":247,"x_min":0,"x_max":0,"o":"m 229 1122 b 272 1079 229 1099 249 1079 b 317 1122 296 1079 317 1099 b 272 1165 317 1146 296 1165 b 229 1122 249 1165 229 1146 z m -62 1122 b -18 1079 -62 1099 -42 1079 b 25 1122 6 1079 25 1099 b -18 1165 25 1146 6 1165 b -62 1122 -42 1165 -62 1146 z m 149 0 l 149 943 l 99 943 l 99 0 z "},"Ð":{"ha":942,"x_min":0,"x_max":0,"o":"m 149 50 l 149 446 l 397 446 l 397 496 l 149 496 l 149 893 l 422 893 b 843 471 656 893 843 704 b 422 50 843 238 656 50 z m 99 893 l 99 496 l 50 496 l 50 446 l 99 446 l 99 0 l 422 0 b 893 471 683 0 893 210 b 422 943 893 732 683 943 l 125 943 l 99 943 l 75 943 l 75 893 z "},"Ñ":{"ha":892,"x_min":0,"x_max":0,"o":"m 518 1168 l 442 1210 b 382 1224 424 1219 401 1224 b 290 1140 340 1224 301 1200 l 283 1107 l 332 1099 l 340 1132 b 382 1175 346 1163 361 1175 b 424 1164 394 1175 408 1171 l 501 1121 b 561 1107 519 1111 542 1107 b 653 1190 603 1107 642 1131 l 658 1224 l 610 1233 l 603 1199 b 561 1156 597 1168 582 1156 b 518 1168 549 1156 533 1161 z m 793 943 l 744 943 l 744 86 l 149 943 l 75 943 l 75 893 l 99 893 l 99 0 l 149 0 l 149 857 l 744 0 l 793 0 z "},"Ò":{"ha":1090,"x_min":0,"x_max":0,"o":"m 575 1054 l 611 1089 l 474 1228 l 438 1193 z m 99 471 b 546 918 99 718 299 918 b 992 471 793 918 992 718 b 546 25 992 224 793 25 b 99 471 299 25 99 224 z m 546 967 b 50 471 272 967 50 744 b 546 -25 50 197 272 -25 b 1042 471 819 -25 1042 197 b 546 967 1042 744 819 967 z "},"Ó":{"ha":1065,"x_min":0,"x_max":0,"o":"m 504 1054 l 643 1193 l 607 1228 l 469 1089 z m 99 471 b 533 906 99 710 294 906 b 967 471 772 906 967 710 b 533 38 967 232 772 38 b 99 471 294 38 99 232 z m 533 956 b 50 471 267 956 50 738 b 533 -12 50 204 267 -12 b 1017 471 800 -12 1017 204 b 533 956 1017 738 800 956 z "},"Ô":{"ha":1090,"x_min":0,"x_max":0,"o":"m 549 1178 l 719 1042 l 750 1081 l 565 1228 l 526 1228 l 342 1081 l 372 1042 l 543 1178 z m 99 471 b 546 918 99 718 299 918 b 992 471 793 918 992 718 b 546 25 992 224 793 25 b 99 471 299 25 99 224 z m 546 967 b 50 471 272 967 50 744 b 546 -25 50 197 272 -25 b 1042 471 819 -25 1042 197 b 546 967 1042 744 819 967 z "},"Õ":{"ha":1090,"x_min":0,"x_max":0,"o":"m 593 1168 l 515 1210 b 457 1224 497 1219 476 1224 b 364 1140 415 1224 375 1200 l 358 1107 l 407 1099 l 414 1132 b 457 1175 419 1163 436 1175 b 499 1164 469 1175 483 1171 l 575 1121 b 635 1107 593 1111 615 1107 b 726 1190 676 1107 715 1131 l 733 1224 l 685 1233 l 678 1199 b 635 1156 672 1168 656 1156 b 593 1168 622 1156 608 1161 z m 99 471 b 546 918 99 718 299 918 b 992 471 793 918 992 718 b 546 25 992 224 793 25 b 99 471 299 25 99 224 z m 546 967 b 50 471 272 967 50 744 b 546 -25 50 197 272 -25 b 1042 471 819 -25 1042 197 b 546 967 1042 744 819 967 z "},"Ö":{"ha":1090,"x_min":0,"x_max":0,"o":"m 651 1122 b 694 1079 651 1099 671 1079 b 738 1122 718 1079 738 1099 b 694 1165 738 1146 718 1165 b 651 1122 671 1165 651 1146 z m 360 1122 b 403 1079 360 1099 379 1079 b 446 1122 426 1079 446 1099 b 403 1165 446 1146 426 1165 b 360 1122 379 1165 360 1146 z m 99 471 b 546 918 99 718 299 918 b 992 471 793 918 992 718 b 546 25 992 224 793 25 b 99 471 299 25 99 224 z m 546 967 b 50 471 272 967 50 744 b 546 -25 50 197 272 -25 b 1042 471 819 -25 1042 197 b 546 967 1042 744 819 967 z "},"×":{"ha":446,"x_min":0,"x_max":0,"o":"m 224 481 l 83 622 l 47 586 l 189 446 l 47 307 l 83 271 l 224 411 l 364 271 l 400 307 l 258 446 l 399 586 l 364 622 z "},"Ø":{"ha":1065,"x_min":0,"x_max":0,"o":"m 950 921 l 858 829 b 533 956 772 907 658 956 b 50 471 267 956 50 738 b 175 147 50 347 97 233 l 82 54 l 117 19 l 210 113 b 533 -12 296 36 410 -12 b 1017 471 800 -12 1017 204 b 893 794 1017 594 969 708 l 985 886 z m 822 794 l 210 182 b 99 471 142 258 99 361 b 533 906 99 710 294 906 b 822 794 644 906 746 864 z m 857 758 b 967 471 925 682 967 581 b 533 38 967 232 772 38 b 244 147 424 38 321 79 z "},"Ù":{"ha":892,"x_min":0,"x_max":0,"o":"m 476 1054 l 513 1089 l 375 1228 l 339 1193 z m 149 943 l 75 943 l 75 893 l 99 893 l 99 322 b 446 -25 99 131 254 -25 b 793 322 638 -25 793 131 l 793 943 l 744 943 l 744 322 b 446 25 744 158 610 25 b 149 322 282 25 149 158 z "},"Ú":{"ha":892,"x_min":0,"x_max":0,"o":"m 417 1054 l 556 1193 l 519 1228 l 382 1089 z m 149 943 l 75 943 l 75 893 l 99 893 l 99 322 b 446 -25 99 131 254 -25 b 793 322 638 -25 793 131 l 793 943 l 744 943 l 744 322 b 446 25 744 158 610 25 b 149 322 282 25 149 158 z "},"Û":{"ha":892,"x_min":0,"x_max":0,"o":"m 449 1178 l 619 1042 l 651 1081 l 467 1228 l 426 1228 l 242 1081 l 272 1042 l 444 1178 z m 149 943 l 75 943 l 75 893 l 99 893 l 99 322 b 446 -25 99 131 254 -25 b 793 322 638 -25 793 131 l 793 943 l 744 943 l 744 322 b 446 25 744 158 610 25 b 149 322 282 25 149 158 z "},"Ü":{"ha":892,"x_min":0,"x_max":0,"o":"m 551 1122 b 596 1079 551 1099 572 1079 b 639 1122 619 1079 639 1099 b 596 1165 639 1146 619 1165 b 551 1122 572 1165 551 1146 z m 261 1122 b 304 1079 261 1099 281 1079 b 347 1122 328 1079 347 1099 b 304 1165 347 1146 328 1165 b 261 1122 281 1165 261 1146 z m 149 943 l 75 943 l 75 893 l 99 893 l 99 322 b 446 -25 99 131 254 -25 b 793 322 638 -25 793 131 l 793 943 l 744 943 l 744 322 b 446 25 744 158 610 25 b 149 322 282 25 149 158 z "},"Ý":{"ha":843,"x_min":0,"x_max":0,"o":"m 392 1054 l 531 1193 l 494 1228 l 357 1089 z m 422 396 l 421 396 l 88 943 l 38 943 l 38 893 l 61 893 l 397 339 l 397 0 l 446 0 l 446 339 l 804 931 l 760 956 z "},"Þ":{"ha":793,"x_min":0,"x_max":0,"o":"m 149 793 l 422 793 b 694 521 572 793 694 671 b 422 249 694 371 572 249 l 149 249 z m 99 943 l 99 0 l 149 0 l 149 199 l 422 199 b 744 521 601 199 744 342 b 422 843 744 700 601 843 l 149 843 l 149 943 z "},"ß":{"ha":743,"x_min":0,"x_max":0,"o":"m 272 121 l 272 136 l 224 136 l 224 103 l 228 97 b 471 -12 283 22 383 -12 b 694 161 599 -12 694 57 b 297 506 694 375 407 461 l 297 510 b 521 744 381 521 521 585 b 310 956 521 861 426 956 b 99 744 194 956 99 861 l 99 644 l 50 644 l 50 596 l 99 596 l 99 0 l 149 0 l 149 744 b 310 906 149 833 222 906 b 471 744 399 906 471 833 b 272 551 471 597 324 551 l 249 551 l 249 474 l 263 468 b 644 161 397 413 644 339 b 471 38 644 81 563 38 b 272 121 400 38 319 64 z "},"à":{"ha":743,"x_min":0,"x_max":0,"o":"m 596 167 b 322 38 554 85 425 38 b 99 192 200 38 99 106 b 322 347 99 267 167 347 l 596 347 z m 594 101 l 596 101 l 596 0 l 669 0 l 669 50 l 644 50 l 644 433 b 378 657 644 600 511 657 b 149 600 296 657 206 636 l 149 546 l 199 546 l 199 571 b 378 608 243 592 308 608 b 596 433 479 608 596 572 l 596 397 l 322 397 b 50 192 144 397 50 299 b 322 -12 50 78 172 -12 b 594 101 417 -12 529 26 z m 408 757 l 443 792 l 306 931 l 269 896 z "},"á":{"ha":743,"x_min":0,"x_max":0,"o":"m 596 167 b 322 38 554 85 425 38 b 99 192 200 38 99 106 b 322 347 99 267 167 347 l 596 347 z m 594 101 l 596 101 l 596 0 l 669 0 l 669 50 l 644 50 l 644 433 b 378 657 644 600 511 657 b 149 600 296 657 206 636 l 149 546 l 199 546 l 199 571 b 378 608 243 592 308 608 b 596 433 479 608 596 572 l 596 397 l 322 397 b 50 192 144 397 50 299 b 322 -12 50 78 172 -12 b 594 101 417 -12 529 26 z m 349 757 l 488 896 l 451 931 l 314 792 z "},"â":{"ha":743,"x_min":0,"x_max":0,"o":"m 596 167 b 322 38 554 85 425 38 b 99 192 200 38 99 106 b 322 347 99 267 167 347 l 596 347 z m 594 101 l 596 101 l 596 0 l 669 0 l 669 50 l 644 50 l 644 433 b 378 657 644 600 511 657 b 149 600 296 657 206 636 l 149 546 l 199 546 l 199 571 b 378 608 243 592 308 608 b 596 433 479 608 596 572 l 596 397 l 322 397 b 50 192 144 397 50 299 b 322 -12 50 78 172 -12 b 594 101 417 -12 529 26 z m 381 881 l 553 744 l 583 782 l 399 931 l 358 931 l 174 782 l 206 744 l 376 881 z "},"ã":{"ha":743,"x_min":0,"x_max":0,"o":"m 425 871 l 349 913 b 289 926 331 922 308 926 b 197 843 247 926 208 903 l 190 810 l 239 801 l 246 835 b 289 878 251 865 268 878 b 331 865 301 878 315 872 l 408 824 b 467 810 426 814 447 810 b 560 893 508 810 549 833 l 565 926 l 517 935 l 510 901 b 467 858 504 871 488 858 b 425 871 454 858 440 864 z m 596 167 b 322 38 554 85 425 38 b 99 192 200 38 99 106 b 322 347 99 267 167 347 l 596 347 z m 594 101 l 596 101 l 596 0 l 669 0 l 669 50 l 644 50 l 644 433 b 378 657 644 600 511 657 b 149 600 296 657 206 636 l 149 546 l 199 546 l 199 571 b 378 608 243 592 308 608 b 596 433 479 608 596 572 l 596 397 l 322 397 b 50 192 144 397 50 299 b 322 -12 50 78 172 -12 b 594 101 417 -12 529 26 z "},"ä":{"ha":743,"x_min":0,"x_max":0,"o":"m 483 825 b 528 781 483 801 504 781 b 571 825 551 781 571 801 b 528 868 571 849 551 868 b 483 825 504 868 483 849 z m 193 825 b 236 781 193 801 213 781 b 279 825 260 781 279 801 b 236 868 279 849 260 868 b 193 825 213 868 193 849 z m 596 167 b 322 38 554 85 425 38 b 99 192 200 38 99 106 b 322 347 99 267 167 347 l 596 347 z m 594 101 l 596 101 l 596 0 l 669 0 l 669 50 l 644 50 l 644 433 b 378 657 644 600 511 657 b 149 600 296 657 206 636 l 149 546 l 199 546 l 199 571 b 378 608 243 592 308 608 b 596 433 479 608 596 572 l 596 397 l 322 397 b 50 192 144 397 50 299 b 322 -12 50 78 172 -12 b 594 101 417 -12 529 26 z "},"å":{"ha":743,"x_min":0,"x_max":0,"o":"m 378 943 b 293 906 349 943 319 931 b 254 818 267 881 254 850 b 293 733 254 786 267 758 b 378 694 319 708 349 694 b 463 732 407 694 436 707 b 501 818 489 757 501 786 b 463 906 501 850 489 881 b 378 943 436 931 407 943 z m 378 906 b 438 878 390 906 410 903 b 465 818 454 861 465 842 b 438 758 465 794 454 775 b 378 732 410 733 390 732 b 318 758 365 732 344 732 b 290 818 292 785 290 806 b 318 878 290 842 301 861 b 378 906 346 903 365 906 z m 596 167 b 322 38 554 85 425 38 b 99 192 200 38 99 106 b 322 347 99 267 167 347 l 596 347 z m 594 101 l 596 101 l 596 0 l 669 0 l 669 50 l 644 50 l 644 433 b 378 657 644 600 511 657 b 149 600 296 657 206 636 l 149 546 l 199 546 l 199 571 b 378 608 243 592 308 608 b 596 433 479 608 596 572 l 596 397 l 322 397 b 50 192 144 397 50 299 b 322 -12 50 78 172 -12 b 594 101 417 -12 529 26 z "},"æ":{"ha":1264,"x_min":0,"x_max":0,"o":"m 594 101 l 596 101 l 596 0 l 644 0 l 644 147 b 931 -12 704 51 810 -12 b 1175 94 1028 -12 1114 29 l 1139 128 b 931 38 1086 72 1013 38 b 646 297 782 38 658 151 l 881 297 b 1197 486 1006 297 1135 433 l 1214 501 l 1200 519 b 931 657 1139 603 1042 657 b 640 489 807 657 699 589 b 378 657 614 613 494 657 b 149 600 296 657 206 636 l 149 546 l 199 546 l 199 571 b 378 608 243 592 308 608 b 596 433 479 608 596 572 l 596 347 l 322 347 b 50 167 158 347 50 275 b 322 -12 50 60 158 -12 b 594 101 417 -12 529 26 z m 881 347 l 646 347 b 931 608 658 493 783 608 b 1146 508 1017 608 1093 569 b 881 347 1078 447 975 347 z m 596 297 l 596 167 b 322 38 554 85 425 38 b 99 167 188 38 99 89 b 322 297 99 244 188 297 z "},"ç":{"ha":669,"x_min":0,"x_max":0,"o":"m 335 -107 b 392 -89 357 -97 368 -89 b 458 -167 436 -89 458 -129 b 388 -240 458 -204 438 -240 b 310 -201 354 -240 325 -226 l 278 -219 b 388 -278 300 -257 343 -278 b 508 -171 444 -278 508 -243 b 392 -53 508 -112 467 -53 b 354 -57 376 -53 367 -53 l 367 -12 l 385 -12 b 631 93 482 -12 568 28 l 593 128 b 385 38 540 72 467 38 b 99 322 228 38 99 165 b 385 608 99 479 228 608 b 571 539 457 608 519 582 l 571 521 l 619 521 l 619 561 l 611 568 b 385 657 551 622 472 657 b 50 322 200 657 50 507 b 329 -7 50 156 171 19 l 303 -99 z "},"è":{"ha":718,"x_min":0,"x_max":0,"o":"m 428 757 l 463 792 l 325 931 l 289 896 z m 335 347 l 100 347 b 385 608 113 493 238 608 b 600 508 471 608 547 569 b 335 347 532 447 429 347 z m 100 297 l 335 297 b 651 486 460 297 589 433 l 668 501 l 654 519 b 385 657 593 603 496 657 b 50 322 201 657 50 507 b 385 -12 50 138 200 -12 b 629 94 482 -12 568 29 l 593 128 b 385 38 540 72 467 38 b 100 297 236 38 113 151 z "},"é":{"ha":718,"x_min":0,"x_max":0,"o":"m 368 757 l 507 896 l 471 931 l 333 792 z m 335 347 l 100 347 b 385 608 113 493 238 608 b 600 508 471 608 547 569 b 335 347 532 447 429 347 z m 100 297 l 335 297 b 651 486 460 297 589 433 l 668 501 l 654 519 b 385 657 593 603 496 657 b 50 322 201 657 50 507 b 385 -12 50 138 200 -12 b 629 94 482 -12 568 29 l 593 128 b 385 38 540 72 467 38 b 100 297 236 38 113 151 z "},"ê":{"ha":718,"x_min":0,"x_max":0,"o":"m 399 881 l 571 744 l 601 782 l 417 931 l 376 931 l 192 782 l 224 744 l 394 881 z m 335 347 l 100 347 b 385 608 113 493 238 608 b 600 508 471 608 547 569 b 335 347 532 447 429 347 z m 100 297 l 335 297 b 651 486 460 297 589 433 l 668 501 l 654 519 b 385 657 593 603 496 657 b 50 322 201 657 50 507 b 385 -12 50 138 200 -12 b 629 94 482 -12 568 29 l 593 128 b 385 38 540 72 467 38 b 100 297 236 38 113 151 z "},"ë":{"ha":718,"x_min":0,"x_max":0,"o":"m 501 825 b 546 781 501 801 522 781 b 589 825 569 781 589 801 b 546 868 589 849 569 868 b 501 825 522 868 501 849 z m 211 825 b 254 781 211 801 231 781 b 297 825 278 781 297 801 b 254 868 297 849 278 868 b 211 825 231 868 211 849 z m 335 347 l 100 347 b 385 608 113 493 238 608 b 600 508 471 608 547 569 b 335 347 532 447 429 347 z m 100 297 l 335 297 b 651 486 460 297 589 433 l 668 501 l 654 519 b 385 657 593 603 496 657 b 50 322 201 657 50 507 b 385 -12 50 138 200 -12 b 629 94 482 -12 568 29 l 593 128 b 385 38 540 72 467 38 b 100 297 236 38 113 151 z "},"ì":{"ha":247,"x_min":0,"x_max":0,"o":"m 147 757 l 183 792 l 46 931 l 10 896 z m 99 596 l 99 0 l 149 0 l 149 644 l 75 644 l 75 596 z "},"í":{"ha":247,"x_min":0,"x_max":0,"o":"m 88 757 l 226 896 l 192 931 l 53 792 z m 99 596 l 99 0 l 149 0 l 149 644 l 75 644 l 75 596 z "},"î":{"ha":247,"x_min":0,"x_max":0,"o":"m 126 881 l 261 781 l 292 819 l 144 931 l 104 931 l -43 819 l -12 781 l 122 881 z m 99 596 l 99 0 l 149 0 l 149 644 l 75 644 l 75 596 z "},"ï":{"ha":247,"x_min":0,"x_max":0,"o":"m 179 825 b 224 781 179 801 200 781 b 267 825 247 781 267 801 b 224 868 267 849 247 868 b 179 825 200 868 179 849 z m -18 825 b 25 781 -18 801 1 781 b 68 825 49 781 68 801 b 25 868 68 849 49 868 b -18 825 1 868 -18 849 z m 99 596 l 99 0 l 149 0 l 149 644 l 75 644 l 75 596 z "},"ð":{"ha":644,"x_min":0,"x_max":0,"o":"m 546 322 b 310 38 546 163 438 38 b 99 322 199 38 99 160 b 310 608 99 483 197 608 b 546 322 438 608 546 482 z m 310 -12 b 596 322 471 -12 596 142 b 469 814 596 576 550 725 l 554 844 l 536 892 l 433 850 b 307 917 396 879 354 900 l 289 871 b 378 828 321 860 350 844 l 289 793 l 304 751 l 419 794 b 532 532 475 742 514 661 b 310 657 479 607 401 657 b 50 322 161 657 50 501 b 310 -12 50 143 161 -12 z "},"ñ":{"ha":793,"x_min":0,"x_max":0,"o":"m 444 871 l 368 913 b 308 926 350 922 328 926 b 217 843 267 926 228 903 l 210 810 l 258 801 l 265 835 b 308 878 271 865 288 878 b 350 865 321 878 335 872 l 428 824 b 486 810 446 814 467 810 b 579 893 528 810 568 833 l 585 926 l 536 935 l 529 901 b 486 858 524 871 507 858 b 444 871 474 858 460 864 z m 150 461 l 149 461 l 149 644 l 75 644 l 75 596 l 99 596 l 99 0 l 149 0 l 149 285 b 446 608 149 471 288 608 b 644 433 567 608 644 546 l 644 50 l 644 0 l 719 0 l 719 50 l 694 50 l 694 433 b 446 657 694 572 594 657 b 150 461 314 657 206 579 z "},"ò":{"ha":768,"x_min":0,"x_max":0,"o":"m 415 757 l 450 792 l 313 931 l 276 896 z m 99 322 b 385 608 99 479 228 608 b 669 322 542 608 669 479 b 385 38 669 165 542 38 b 99 322 228 38 99 165 z m 385 657 b 50 322 200 657 50 507 b 385 -12 50 138 200 -12 b 719 322 569 -12 719 138 b 385 657 719 507 569 657 z "},"ó":{"ha":768,"x_min":0,"x_max":0,"o":"m 356 757 l 494 896 l 458 931 l 321 792 z m 99 322 b 385 608 99 479 228 608 b 669 322 542 608 669 479 b 385 38 669 165 542 38 b 99 322 228 38 99 165 z m 385 657 b 50 322 200 657 50 507 b 385 -12 50 138 200 -12 b 719 322 569 -12 719 138 b 385 657 719 507 569 657 z "},"ô":{"ha":768,"x_min":0,"x_max":0,"o":"m 386 881 l 558 744 l 589 782 l 404 931 l 364 931 l 179 782 l 211 744 l 382 881 z m 99 322 b 385 608 99 479 228 608 b 669 322 542 608 669 479 b 385 38 669 165 542 38 b 99 322 228 38 99 165 z m 385 657 b 50 322 200 657 50 507 b 385 -12 50 138 200 -12 b 719 322 569 -12 719 138 b 385 657 719 507 569 657 z "},"õ":{"ha":768,"x_min":0,"x_max":0,"o":"m 432 871 l 356 913 b 296 926 338 922 315 926 b 204 843 254 926 215 903 l 197 810 l 246 801 l 253 835 b 296 878 258 865 275 878 b 338 865 308 878 322 872 l 415 824 b 474 810 433 814 454 810 b 567 893 515 810 556 833 l 572 926 l 524 935 l 517 901 b 474 858 511 871 494 858 b 432 871 461 858 447 864 z m 99 322 b 385 608 99 479 228 608 b 669 322 542 608 669 479 b 385 38 669 165 542 38 b 99 322 228 38 99 165 z m 385 657 b 50 322 200 657 50 507 b 385 -12 50 138 200 -12 b 719 322 569 -12 719 138 b 385 657 719 507 569 657 z "},"ö":{"ha":768,"x_min":0,"x_max":0,"o":"m 489 825 b 533 781 489 801 510 781 b 576 825 557 781 576 801 b 533 868 576 849 557 868 b 489 825 510 868 489 849 z m 199 825 b 242 781 199 801 218 781 b 285 825 265 781 285 801 b 242 868 285 849 265 868 b 199 825 218 868 199 849 z m 99 322 b 385 608 99 479 228 608 b 669 322 542 608 669 479 b 385 38 669 165 542 38 b 99 322 228 38 99 165 z m 385 657 b 50 322 200 657 50 507 b 385 -12 50 138 200 -12 b 719 322 569 -12 719 138 b 385 657 719 507 569 657 z "},"÷":{"ha":544,"x_min":0,"x_max":0,"o":"m 229 676 b 272 632 229 653 249 632 b 317 676 296 632 317 653 b 272 719 317 700 296 719 b 229 676 249 719 229 700 z m 229 365 b 272 322 229 342 249 322 b 317 365 296 322 317 342 b 272 410 317 389 296 410 b 229 365 249 410 229 389 z m 496 496 l 496 546 l 50 546 l 50 496 z "},"ø":{"ha":768,"x_min":0,"x_max":0,"o":"m 385 608 b 568 540 454 608 518 582 l 167 139 b 99 322 125 189 99 253 b 385 608 99 479 228 608 z m 719 322 b 639 540 719 406 690 482 l 688 590 l 653 625 l 603 576 b 385 657 544 628 468 657 b 50 322 200 657 50 507 b 131 104 50 239 79 163 l 82 54 l 117 19 l 167 68 b 385 -12 225 17 301 -12 b 719 322 569 -12 719 138 z m 603 506 b 669 322 644 456 669 392 b 385 38 669 165 542 38 b 201 104 315 38 251 63 z "},"ù":{"ha":793,"x_min":0,"x_max":0,"o":"m 149 644 l 75 644 l 75 596 l 99 596 l 99 211 b 347 -12 99 72 199 -12 b 643 183 479 -12 588 65 l 644 183 l 644 0 l 719 0 l 719 50 l 694 50 l 694 644 l 644 644 l 644 360 b 347 38 644 174 506 38 b 149 211 226 38 149 99 l 149 596 z m 428 757 l 463 792 l 325 931 l 289 896 z "},"ú":{"ha":793,"x_min":0,"x_max":0,"o":"m 149 644 l 75 644 l 75 596 l 99 596 l 99 211 b 347 -12 99 72 199 -12 b 643 183 479 -12 588 65 l 644 183 l 644 0 l 719 0 l 719 50 l 694 50 l 694 644 l 644 644 l 644 360 b 347 38 644 174 506 38 b 149 211 226 38 149 99 l 149 596 z m 368 757 l 507 896 l 471 931 l 333 792 z "},"û":{"ha":793,"x_min":0,"x_max":0,"o":"m 149 644 l 75 644 l 75 596 l 99 596 l 99 211 b 347 -12 99 72 199 -12 b 643 183 479 -12 588 65 l 644 183 l 644 0 l 719 0 l 719 50 l 694 50 l 694 644 l 644 644 l 644 360 b 347 38 644 174 506 38 b 149 211 226 38 149 99 l 149 596 z m 399 881 l 571 744 l 601 782 l 417 931 l 376 931 l 192 782 l 224 744 l 394 881 z "},"ü":{"ha":793,"x_min":0,"x_max":0,"o":"m 501 825 b 546 781 501 801 522 781 b 589 825 569 781 589 801 b 546 868 589 849 569 868 b 501 825 522 868 501 849 z m 211 825 b 254 781 211 801 231 781 b 297 825 278 781 297 801 b 254 868 297 849 278 868 b 211 825 231 868 211 849 z m 149 644 l 75 644 l 75 596 l 99 596 l 99 211 b 347 -12 99 72 199 -12 b 643 183 479 -12 588 65 l 644 183 l 644 0 l 719 0 l 719 50 l 694 50 l 694 644 l 644 644 l 644 360 b 347 38 644 174 506 38 b 149 211 226 38 149 99 l 149 596 z "},"ý":{"ha":743,"x_min":0,"x_max":0,"o":"m 343 757 l 482 896 l 446 931 l 308 792 z m 719 613 l 719 644 l 669 644 l 669 625 l 374 10 l 372 10 l 90 644 l 38 644 l 38 596 l 58 596 l 344 -50 l 300 -143 b 179 -249 260 -225 217 -249 b 75 -186 139 -249 99 -219 l 75 -175 l 25 -175 l 25 -201 l 29 -207 b 179 -297 57 -249 113 -297 b 344 -165 239 -297 299 -261 z "},"þ":{"ha":793,"x_min":0,"x_max":0,"o":"m 149 157 l 150 157 b 422 -12 203 56 301 -12 b 744 322 601 -12 744 139 b 422 657 744 506 601 657 b 150 488 301 657 203 589 l 149 488 l 149 943 l 75 943 l 75 893 l 99 893 l 99 -297 l 149 -297 z m 149 322 b 422 608 149 481 272 608 b 694 322 572 608 694 481 b 422 38 694 164 572 38 b 149 322 272 38 149 164 z "},"ÿ":{"ha":743,"x_min":0,"x_max":0,"o":"m 478 825 b 521 781 478 801 497 781 b 564 825 544 781 564 801 b 521 868 564 849 544 868 b 478 825 497 868 478 849 z m 186 825 b 229 781 186 801 206 781 b 272 825 253 781 272 801 b 229 868 272 849 253 868 b 186 825 206 868 186 849 z m 719 613 l 719 644 l 669 644 l 669 625 l 374 10 l 372 10 l 90 644 l 38 644 l 38 596 l 58 596 l 344 -50 l 300 -143 b 179 -249 260 -225 217 -249 b 75 -186 139 -249 99 -219 l 75 -175 l 25 -175 l 25 -201 l 29 -207 b 179 -297 57 -249 113 -297 b 344 -165 239 -297 299 -261 z "},"Ā":{"ha":843,"x_min":0,"x_max":0,"o":"m 632 1140 l 632 1190 l 236 1190 l 236 1140 z m 433 864 l 661 297 l 210 297 z m 681 249 l 783 -8 l 829 8 l 453 954 l 415 954 l 57 50 l 38 50 l 38 0 l 92 0 l 190 249 z "},"ā":{"ha":743,"x_min":0,"x_max":0,"o":"m 576 843 l 576 893 l 181 893 l 181 843 z m 596 167 b 322 38 554 85 425 38 b 99 192 200 38 99 106 b 322 347 99 267 167 347 l 596 347 z m 594 101 l 596 101 l 596 0 l 669 0 l 669 50 l 644 50 l 644 433 b 378 657 644 600 511 657 b 149 600 296 657 206 636 l 149 546 l 199 546 l 199 571 b 378 608 243 592 308 608 b 596 433 479 608 596 572 l 596 397 l 322 397 b 50 192 144 397 50 299 b 322 -12 50 78 172 -12 b 594 101 417 -12 529 26 z "},"Ă":{"ha":843,"x_min":0,"x_max":0,"o":"m 433 1140 b 283 1217 368 1140 318 1164 l 243 1188 b 433 1090 267 1153 319 1090 b 625 1188 547 1090 601 1153 l 583 1217 b 433 1140 549 1164 499 1140 z m 433 864 l 661 297 l 210 297 z m 681 249 l 783 -8 l 829 8 l 453 954 l 415 954 l 57 50 l 38 50 l 38 0 l 92 0 l 190 249 z "},"ă":{"ha":743,"x_min":0,"x_max":0,"o":"m 378 843 b 228 919 313 843 263 867 l 188 890 b 378 793 211 856 264 793 b 569 890 492 793 546 856 l 528 919 b 378 843 493 867 443 843 z m 596 167 b 322 38 554 85 425 38 b 99 192 200 38 99 106 b 322 347 99 267 167 347 l 596 347 z m 594 101 l 596 101 l 596 0 l 669 0 l 669 50 l 644 50 l 644 433 b 378 657 644 600 511 657 b 149 600 296 657 206 636 l 149 546 l 199 546 l 199 571 b 378 608 243 592 308 608 b 596 433 479 608 596 572 l 596 397 l 322 397 b 50 192 144 397 50 299 b 322 -12 50 78 172 -12 b 594 101 417 -12 529 26 z "},"Ą":{"ha":843,"x_min":0,"x_max":0,"o":"m 433 864 l 661 297 l 210 297 z m 829 8 l 453 954 l 415 954 l 57 50 l 38 50 l 38 0 l 92 0 l 190 249 l 681 249 l 771 21 b 610 -137 676 -28 610 -51 b 731 -249 610 -197 654 -249 b 808 -225 761 -249 789 -237 l 783 -183 b 731 -199 769 -192 751 -199 b 660 -137 674 -199 660 -162 b 783 -10 660 -81 694 -61 z "},"ą":{"ha":743,"x_min":0,"x_max":0,"o":"m 596 167 b 322 38 554 85 425 38 b 99 192 200 38 99 106 b 322 347 99 267 167 347 l 596 347 z m 596 -3 b 483 -137 529 -37 483 -67 b 604 -249 483 -197 528 -249 b 682 -225 635 -249 663 -237 l 657 -183 b 604 -199 643 -192 625 -199 b 533 -137 547 -199 533 -162 b 669 -3 533 -76 571 -58 l 669 50 l 644 50 l 644 433 b 378 657 644 600 511 657 b 149 600 296 657 206 636 l 149 546 l 199 546 l 199 571 b 378 608 243 592 308 608 b 596 433 479 608 596 572 l 596 397 l 322 397 b 50 192 144 397 50 299 b 322 -12 50 78 172 -12 b 594 101 417 -12 529 26 l 596 101 z "},"Ć":{"ha":868,"x_min":0,"x_max":0,"o":"m 492 1054 l 631 1193 l 594 1228 l 457 1089 z m 769 836 l 769 818 l 818 818 l 818 863 l 807 871 b 533 956 729 924 635 956 b 50 471 267 956 50 738 b 533 -12 50 204 267 -12 b 814 76 638 -12 736 21 l 783 117 b 533 38 713 65 628 38 b 99 471 294 38 99 232 b 533 906 99 710 294 906 b 769 836 619 906 701 879 z "},"ć":{"ha":669,"x_min":0,"x_max":0,"o":"m 356 757 l 494 896 l 458 931 l 321 792 z m 571 539 l 571 521 l 619 521 l 619 561 l 611 568 b 385 657 551 622 472 657 b 50 322 200 657 50 507 b 385 -12 50 138 200 -12 b 631 93 482 -12 568 28 l 593 128 b 385 38 540 72 467 38 b 99 322 228 38 99 165 b 385 608 99 479 228 608 b 571 539 457 608 519 582 z "},"Ĉ":{"ha":868,"x_min":0,"x_max":0,"o":"m 522 1178 l 694 1042 l 725 1079 l 540 1228 l 500 1228 l 315 1079 l 347 1042 l 518 1178 z m 769 836 l 769 818 l 818 818 l 818 863 l 807 871 b 533 956 729 924 635 956 b 50 471 267 956 50 738 b 533 -12 50 204 267 -12 b 814 76 638 -12 736 21 l 783 117 b 533 38 713 65 628 38 b 99 471 294 38 99 232 b 533 906 99 710 294 906 b 769 836 619 906 701 879 z "},"ĉ":{"ha":669,"x_min":0,"x_max":0,"o":"m 386 881 l 558 744 l 589 782 l 404 931 l 364 931 l 179 782 l 211 744 l 382 881 z m 571 539 l 571 521 l 619 521 l 619 561 l 611 568 b 385 657 551 622 472 657 b 50 322 200 657 50 507 b 385 -12 50 138 200 -12 b 631 93 482 -12 568 28 l 593 128 b 385 38 540 72 467 38 b 99 322 228 38 99 165 b 385 608 99 479 228 608 b 571 539 457 608 519 582 z "},"Ċ":{"ha":868,"x_min":0,"x_max":0,"o":"m 476 1147 b 521 1103 476 1124 497 1103 b 564 1147 544 1103 564 1124 b 521 1190 564 1171 544 1190 b 476 1147 497 1190 476 1171 z m 769 836 l 769 818 l 818 818 l 818 863 l 807 871 b 533 956 729 924 635 956 b 50 471 267 956 50 738 b 533 -12 50 204 267 -12 b 814 76 638 -12 736 21 l 783 117 b 533 38 713 65 628 38 b 99 471 294 38 99 232 b 533 906 99 710 294 906 b 769 836 619 906 701 879 z "},"ċ":{"ha":669,"x_min":0,"x_max":0,"o":"m 340 850 b 385 806 340 826 361 806 b 428 850 408 806 428 826 b 385 893 428 874 408 893 b 340 850 361 893 340 874 z m 571 539 l 571 521 l 619 521 l 619 561 l 611 568 b 385 657 551 622 472 657 b 50 322 200 657 50 507 b 385 -12 50 138 200 -12 b 631 93 482 -12 568 28 l 593 128 b 385 38 540 72 467 38 b 99 322 228 38 99 165 b 385 608 99 479 228 608 b 571 539 457 608 519 582 z "},"Č":{"ha":868,"x_min":0,"x_max":0,"o":"m 522 1103 l 518 1103 l 347 1240 l 315 1201 l 500 1054 l 540 1054 l 725 1201 l 694 1240 z m 769 836 l 769 818 l 818 818 l 818 863 l 807 871 b 533 956 729 924 635 956 b 50 471 267 956 50 738 b 533 -12 50 204 267 -12 b 814 76 638 -12 736 21 l 783 117 b 533 38 713 65 628 38 b 99 471 294 38 99 232 b 533 906 99 710 294 906 b 769 836 619 906 701 879 z "},"č":{"ha":669,"x_min":0,"x_max":0,"o":"m 386 806 l 382 806 l 211 943 l 179 904 l 364 757 l 404 757 l 589 904 l 558 943 z m 571 539 l 571 521 l 619 521 l 619 561 l 611 568 b 385 657 551 622 472 657 b 50 322 200 657 50 507 b 385 -12 50 138 200 -12 b 631 93 482 -12 568 28 l 593 128 b 385 38 540 72 467 38 b 99 322 228 38 99 165 b 385 608 99 479 228 608 b 571 539 457 608 519 582 z "},"Ď":{"ha":942,"x_min":0,"x_max":0,"o":"m 424 1103 l 419 1103 l 249 1240 l 217 1201 l 401 1054 l 442 1054 l 626 1201 l 596 1240 z m 75 943 l 75 893 l 99 893 l 99 0 l 422 0 b 893 471 683 0 893 210 b 422 943 893 732 683 943 z m 149 50 l 149 893 l 422 893 b 843 471 656 893 843 704 b 422 50 843 238 656 50 z "},"ď":{"ha":917,"x_min":0,"x_max":0,"o":"m 794 899 b 825 858 794 881 808 864 b 775 747 825 811 803 775 l 797 725 b 881 899 846 774 881 835 b 838 943 881 922 861 943 b 794 899 814 943 794 922 z m 644 322 b 372 38 644 164 522 38 b 99 322 222 38 99 164 b 372 608 99 481 222 608 b 644 322 522 608 644 481 z m 694 943 l 619 943 l 619 893 l 644 893 l 644 488 l 643 488 b 372 657 590 589 493 657 b 50 322 193 657 50 506 b 372 -12 50 139 193 -12 b 643 157 493 -12 590 56 l 644 157 l 644 0 l 719 0 l 719 50 l 694 50 z "},"Đ":{"ha":942,"x_min":0,"x_max":0,"o":"m 149 50 l 149 446 l 397 446 l 397 496 l 149 496 l 149 893 l 422 893 b 843 471 656 893 843 704 b 422 50 843 238 656 50 z m 99 893 l 99 496 l 50 496 l 50 446 l 99 446 l 99 0 l 422 0 b 893 471 683 0 893 210 b 422 943 893 732 683 943 l 75 943 l 75 893 z "},"đ":{"ha":793,"x_min":0,"x_max":0,"o":"m 644 322 b 372 38 644 164 522 38 b 99 322 222 38 99 164 b 372 608 99 481 222 608 b 644 322 522 608 644 481 z m 619 943 l 619 893 l 644 893 l 644 793 l 347 793 l 347 744 l 644 744 l 644 488 l 643 488 b 372 657 590 589 493 657 b 50 322 193 657 50 506 b 372 -12 50 139 193 -12 b 643 157 493 -12 590 56 l 644 157 l 644 0 l 719 0 l 719 50 l 694 50 l 694 744 l 744 744 l 744 793 l 694 793 l 694 943 z "},"Ē":{"ha":793,"x_min":0,"x_max":0,"o":"m 594 1140 l 594 1190 l 199 1190 l 199 1140 z m 644 893 l 644 868 l 694 868 l 694 943 l 75 943 l 75 893 l 99 893 l 99 0 l 744 0 l 744 75 l 694 75 l 694 50 l 149 50 l 149 446 l 446 446 l 446 496 l 149 496 l 149 893 z "},"ē":{"ha":718,"x_min":0,"x_max":0,"o":"m 594 843 l 594 893 l 199 893 l 199 843 z m 335 347 l 100 347 b 385 608 113 493 238 608 b 600 508 471 608 547 569 b 335 347 532 447 429 347 z m 100 297 l 335 297 b 651 486 460 297 589 433 l 668 501 l 654 519 b 385 657 593 603 496 657 b 50 322 201 657 50 507 b 385 -12 50 138 200 -12 b 629 94 482 -12 568 29 l 593 128 b 385 38 540 72 467 38 b 100 297 236 38 113 151 z "},"Ĕ":{"ha":793,"x_min":0,"x_max":0,"o":"m 397 1140 b 247 1217 332 1140 282 1164 l 207 1188 b 397 1090 231 1153 283 1090 b 589 1188 511 1090 565 1153 l 547 1217 b 397 1140 513 1164 463 1140 z m 644 893 l 644 868 l 694 868 l 694 943 l 75 943 l 75 893 l 99 893 l 99 0 l 744 0 l 744 75 l 694 75 l 694 50 l 149 50 l 149 446 l 446 446 l 446 496 l 149 496 l 149 893 z "},"ĕ":{"ha":718,"x_min":0,"x_max":0,"o":"m 397 843 b 247 919 332 843 282 867 l 207 890 b 397 793 231 856 283 793 b 589 890 511 793 565 856 l 547 919 b 397 843 513 867 463 843 z m 335 347 l 100 347 b 385 608 113 493 238 608 b 600 508 471 608 547 569 b 335 347 532 447 429 347 z m 100 297 l 335 297 b 651 486 460 297 589 433 l 668 501 l 654 519 b 385 657 593 603 496 657 b 50 322 201 657 50 507 b 385 -12 50 138 200 -12 b 629 94 482 -12 568 29 l 593 128 b 385 38 540 72 467 38 b 100 297 236 38 113 151 z "},"Ė":{"ha":793,"x_min":0,"x_max":0,"o":"m 353 1147 b 397 1103 353 1124 374 1103 b 440 1147 421 1103 440 1124 b 397 1190 440 1171 421 1190 b 353 1147 374 1190 353 1171 z m 644 893 l 644 868 l 694 868 l 694 943 l 75 943 l 75 893 l 99 893 l 99 0 l 744 0 l 744 75 l 694 75 l 694 50 l 149 50 l 149 446 l 446 446 l 446 496 l 149 496 l 149 893 z "},"ė":{"ha":718,"x_min":0,"x_max":0,"o":"m 353 850 b 397 806 353 826 374 806 b 440 850 421 806 440 826 b 397 893 440 874 421 893 b 353 850 374 893 353 874 z m 335 347 l 100 347 b 385 608 113 493 238 608 b 600 508 471 608 547 569 b 335 347 532 447 429 347 z m 100 297 l 335 297 b 651 486 460 297 589 433 l 668 501 l 654 519 b 385 657 593 603 496 657 b 50 322 201 657 50 507 b 385 -12 50 138 200 -12 b 629 94 482 -12 568 29 l 593 128 b 385 38 540 72 467 38 b 100 297 236 38 113 151 z "},"Ę":{"ha":793,"x_min":0,"x_max":0,"o":"m 701 0 l 744 24 l 744 75 l 694 75 l 694 50 l 149 50 l 149 446 l 446 446 l 446 496 l 149 496 l 149 893 l 644 893 l 644 868 l 694 868 l 694 943 l 75 943 l 75 893 l 99 893 l 99 0 l 629 0 b 511 -137 558 -36 511 -64 b 631 -249 511 -197 554 -249 b 710 -225 661 -249 690 -237 l 685 -183 b 631 -199 671 -192 651 -199 b 561 -137 574 -199 561 -162 b 701 0 561 -76 600 -58 z "},"ę":{"ha":718,"x_min":0,"x_max":0,"o":"m 353 -137 b 535 24 353 -68 401 -53 b 629 94 571 40 601 65 l 593 128 b 385 38 540 72 467 38 b 100 297 236 38 113 151 l 335 297 b 651 486 460 297 589 433 l 668 501 l 654 519 b 385 657 593 603 496 657 b 50 322 201 657 50 507 b 385 -12 50 138 200 -12 l 397 -12 b 303 -137 340 -43 303 -74 b 424 -249 303 -197 347 -249 b 501 -225 454 -249 482 -237 l 476 -183 b 424 -199 463 -192 444 -199 b 353 -137 367 -199 353 -162 z m 335 347 l 100 347 b 385 608 113 493 238 608 b 600 508 471 608 547 569 b 335 347 532 447 429 347 z "},"Ě":{"ha":793,"x_min":0,"x_max":0,"o":"m 399 1103 l 394 1103 l 224 1240 l 192 1201 l 376 1054 l 417 1054 l 601 1201 l 571 1240 z m 644 893 l 644 868 l 694 868 l 694 943 l 75 943 l 75 893 l 99 893 l 99 0 l 744 0 l 744 75 l 694 75 l 694 50 l 149 50 l 149 446 l 446 446 l 446 496 l 149 496 l 149 893 z "},"ě":{"ha":718,"x_min":0,"x_max":0,"o":"m 399 806 l 394 806 l 224 943 l 192 904 l 376 757 l 417 757 l 601 904 l 571 943 z m 335 347 l 100 347 b 385 608 113 493 238 608 b 600 508 471 608 547 569 b 335 347 532 447 429 347 z m 100 297 l 335 297 b 651 486 460 297 589 433 l 668 501 l 654 519 b 385 657 593 603 496 657 b 50 322 201 657 50 507 b 385 -12 50 138 200 -12 b 629 94 482 -12 568 29 l 593 128 b 385 38 540 72 467 38 b 100 297 236 38 113 151 z "},"Ĝ":{"ha":942,"x_min":0,"x_max":0,"o":"m 644 397 l 843 397 l 843 168 b 533 38 764 88 656 38 b 99 471 294 38 99 232 b 533 906 99 710 294 906 b 793 818 632 906 719 872 l 793 793 l 843 793 l 843 842 b 533 956 758 913 651 956 b 50 471 267 956 50 738 b 533 -12 50 204 267 -12 b 843 115 649 -12 767 47 l 843 0 l 893 0 l 893 446 l 644 446 z m 522 1178 l 694 1042 l 725 1079 l 540 1228 l 500 1228 l 315 1079 l 347 1042 l 518 1178 z "},"ĝ":{"ha":694,"x_min":0,"x_max":0,"o":"m 349 881 l 521 744 l 551 782 l 367 931 l 326 931 l 142 782 l 174 744 l 344 881 z m 167 44 l 536 -44 b 632 -154 600 -60 632 -110 b 493 -249 632 -200 593 -249 l 240 -249 b 75 -126 117 -249 75 -192 b 167 44 75 -62 118 13 z m 128 126 b 201 243 128 150 151 193 b 347 199 242 215 293 199 b 596 428 482 199 596 300 b 517 596 596 494 565 554 l 669 596 l 669 644 l 428 644 b 347 657 403 653 376 657 b 99 428 213 657 99 557 b 163 274 99 368 122 314 b 78 126 133 243 78 179 b 113 64 78 113 79 85 b 25 -126 64 19 25 -54 b 240 -297 25 -215 85 -297 l 493 -297 b 682 -154 621 -297 682 -229 b 547 4 682 -85 631 -15 l 165 97 b 128 126 136 104 128 114 z m 149 428 b 347 608 149 526 236 608 b 546 428 457 608 546 526 b 347 249 546 329 458 249 b 149 428 236 249 149 329 z "},"Ğ":{"ha":942,"x_min":0,"x_max":0,"o":"m 521 1140 b 371 1217 456 1140 406 1164 l 331 1188 b 521 1090 354 1153 407 1090 b 713 1188 635 1090 689 1153 l 671 1217 b 521 1140 636 1164 586 1140 z m 644 397 l 843 397 l 843 168 b 533 38 764 88 656 38 b 99 471 294 38 99 232 b 533 906 99 710 294 906 b 793 818 632 906 719 872 l 793 793 l 843 793 l 843 842 b 533 956 758 913 651 956 b 50 471 267 956 50 738 b 533 -12 50 204 267 -12 b 843 115 649 -12 767 47 l 843 0 l 893 0 l 893 446 l 644 446 z "},"ğ":{"ha":694,"x_min":0,"x_max":0,"o":"m 347 843 b 197 919 282 843 232 867 l 157 890 b 347 793 181 856 233 793 b 539 890 461 793 515 856 l 497 919 b 347 843 463 867 413 843 z m 167 44 l 536 -44 b 632 -154 600 -60 632 -110 b 493 -249 632 -200 593 -249 l 240 -249 b 75 -126 117 -249 75 -192 b 167 44 75 -62 118 13 z m 128 126 b 201 243 128 150 151 193 b 347 199 242 215 293 199 b 596 428 482 199 596 300 b 517 596 596 494 565 554 l 669 596 l 669 644 l 428 644 b 347 657 403 653 376 657 b 99 428 213 657 99 557 b 163 274 99 368 122 314 b 78 126 133 243 78 179 b 113 64 78 113 79 85 b 25 -126 64 19 25 -54 b 240 -297 25 -215 85 -297 l 493 -297 b 682 -154 621 -297 682 -229 b 547 4 682 -85 631 -15 l 165 97 b 128 126 136 104 128 114 z m 149 428 b 347 608 149 526 236 608 b 546 428 457 608 546 526 b 347 249 546 329 458 249 b 149 428 236 249 149 329 z "},"Ġ":{"ha":942,"x_min":0,"x_max":0,"o":"m 476 1147 b 521 1103 476 1124 497 1103 b 564 1147 544 1103 564 1124 b 521 1190 564 1171 544 1190 b 476 1147 497 1190 476 1171 z m 644 397 l 843 397 l 843 168 b 533 38 764 88 656 38 b 99 471 294 38 99 232 b 533 906 99 710 294 906 b 793 818 632 906 719 872 l 793 793 l 843 793 l 843 842 b 533 956 758 913 651 956 b 50 471 267 956 50 738 b 533 -12 50 204 267 -12 b 843 115 649 -12 767 47 l 843 0 l 893 0 l 893 446 l 644 446 z "},"ġ":{"ha":694,"x_min":0,"x_max":0,"o":"m 303 850 b 347 806 303 826 324 806 b 390 850 371 806 390 826 b 347 893 390 874 371 893 b 303 850 324 893 303 874 z m 167 44 l 536 -44 b 632 -154 600 -60 632 -110 b 493 -249 632 -200 593 -249 l 240 -249 b 75 -126 117 -249 75 -192 b 167 44 75 -62 118 13 z m 128 126 b 201 243 128 150 151 193 b 347 199 242 215 293 199 b 596 428 482 199 596 300 b 517 596 596 494 565 554 l 669 596 l 669 644 l 428 644 b 347 657 403 653 376 657 b 99 428 213 657 99 557 b 163 274 99 368 122 314 b 78 126 133 243 78 179 b 113 64 78 113 79 85 b 25 -126 64 19 25 -54 b 240 -297 25 -215 85 -297 l 493 -297 b 682 -154 621 -297 682 -229 b 547 4 682 -85 631 -15 l 165 97 b 128 126 136 104 128 114 z m 149 428 b 347 608 149 526 236 608 b 546 428 457 608 546 526 b 347 249 546 329 458 249 b 149 428 236 249 149 329 z "},"Ģ":{"ha":942,"x_min":0,"x_max":0,"o":"m 438 -125 b 468 -165 438 -143 451 -160 b 418 -276 468 -212 446 -249 l 440 -299 b 524 -125 489 -250 524 -189 b 481 -81 524 -101 504 -81 b 438 -125 457 -81 438 -101 z m 644 397 l 843 397 l 843 168 b 533 38 764 88 656 38 b 99 471 294 38 99 232 b 533 906 99 710 294 906 b 793 818 632 906 719 872 l 793 793 l 843 793 l 843 842 b 533 956 758 913 651 956 b 50 471 267 956 50 738 b 533 -12 50 204 267 -12 b 843 115 649 -12 767 47 l 843 0 l 893 0 l 893 446 l 644 446 z "},"ģ":{"ha":694,"x_min":0,"x_max":0,"o":"m 392 826 b 361 867 392 844 378 861 b 411 978 361 914 383 950 l 389 1000 b 306 826 340 951 306 890 b 349 782 306 803 325 782 b 392 826 372 782 392 803 z m 167 44 l 536 -44 b 632 -154 600 -60 632 -110 b 493 -249 632 -200 593 -249 l 240 -249 b 75 -126 117 -249 75 -192 b 167 44 75 -62 118 13 z m 128 126 b 201 243 128 150 151 193 b 347 199 242 215 293 199 b 596 428 482 199 596 300 b 517 596 596 494 565 554 l 669 596 l 669 644 l 428 644 b 347 657 403 653 376 657 b 99 428 213 657 99 557 b 163 274 99 368 122 314 b 78 126 133 243 78 179 b 113 64 78 113 79 85 b 25 -126 64 19 25 -54 b 240 -297 25 -215 85 -297 l 493 -297 b 682 -154 621 -297 682 -229 b 547 4 682 -85 631 -15 l 165 97 b 128 126 136 104 128 114 z m 149 428 b 347 608 149 526 236 608 b 546 428 457 608 546 526 b 347 249 546 329 458 249 b 149 428 236 249 149 329 z "},"Ĥ":{"ha":892,"x_min":0,"x_max":0,"o":"m 449 1178 l 621 1042 l 651 1079 l 467 1228 l 426 1228 l 242 1079 l 274 1042 l 444 1178 z m 99 943 l 99 0 l 149 0 l 149 446 l 744 446 l 744 0 l 793 0 l 793 943 l 744 943 l 744 496 l 149 496 l 149 943 z "},"ĥ":{"ha":793,"x_min":0,"x_max":0,"o":"m 399 1129 l 571 993 l 601 1031 l 417 1179 l 376 1179 l 192 1031 l 224 993 l 394 1129 z m 150 461 l 149 461 l 149 943 l 75 943 l 75 893 l 99 893 l 99 0 l 149 0 l 149 285 b 446 608 149 471 288 608 b 644 433 567 608 644 546 l 644 50 l 644 0 l 719 0 l 719 50 l 694 50 l 694 433 b 446 657 694 572 594 657 b 150 461 314 657 206 579 z "},"Ħ":{"ha":892,"x_min":0,"x_max":0,"o":"m 744 694 l 744 496 l 149 496 l 149 694 z m 99 943 l 99 744 l 50 744 l 50 694 l 99 694 l 99 0 l 149 0 l 149 446 l 744 446 l 744 0 l 793 0 l 793 694 l 843 694 l 843 744 l 793 744 l 793 943 l 744 943 l 744 744 l 149 744 l 149 943 z "},"ħ":{"ha":793,"x_min":0,"x_max":0,"o":"m 150 461 l 149 461 l 149 744 l 446 744 l 446 793 l 149 793 l 149 943 l 75 943 l 75 893 l 99 893 l 99 793 l 50 793 l 50 744 l 99 744 l 99 0 l 149 0 l 149 285 b 446 608 149 471 288 608 b 644 433 567 608 644 546 l 644 50 l 644 0 l 719 0 l 719 50 l 694 50 l 694 433 b 446 657 694 572 594 657 b 150 461 314 657 206 579 z "},"Ĩ":{"ha":247,"x_min":0,"x_max":0,"o":"m 272 1171 l 278 1206 l 229 1213 l 224 1181 b 221 1172 218 1156 222 1176 b 204 1156 217 1161 213 1156 b 176 1165 199 1156 189 1158 l 97 1210 b 43 1225 74 1224 53 1225 b -19 1175 36 1225 -3 1225 b -24 1161 -19 1172 -22 1167 l -29 1128 l 18 1118 l 25 1153 b 28 1161 26 1158 28 1161 b 43 1175 33 1176 38 1175 b 72 1167 49 1175 60 1174 l 151 1122 b 204 1106 175 1108 194 1106 b 268 1156 232 1106 257 1121 b 272 1171 269 1160 272 1171 z m 149 0 l 149 943 l 99 943 l 99 0 z "},"ĩ":{"ha":247,"x_min":0,"x_max":0,"o":"m 272 861 l 278 896 l 229 903 l 224 871 b 221 863 218 846 222 867 b 204 846 217 851 213 846 b 176 856 199 846 189 849 l 97 900 b 43 915 74 914 53 915 b -19 865 36 915 -3 915 b -24 850 -19 863 -22 856 l -29 818 l 18 808 l 25 843 b 28 850 26 849 28 850 b 43 865 33 865 38 865 b 72 857 49 865 60 864 l 151 813 b 204 796 175 799 194 796 b 268 846 232 796 257 811 b 272 861 269 850 272 861 z m 99 596 l 99 0 l 149 0 l 149 644 l 75 644 l 75 596 z "},"Ī":{"ha":247,"x_min":0,"x_max":0,"o":"m 272 1140 l 272 1190 l -25 1190 l -25 1140 z m 149 0 l 149 943 l 99 943 l 99 0 z "},"ī":{"ha":247,"x_min":0,"x_max":0,"o":"m 272 843 l 272 893 l -25 893 l -25 843 z m 99 596 l 99 0 l 149 0 l 149 644 l 75 644 l 75 596 z "},"Ĭ":{"ha":247,"x_min":0,"x_max":0,"o":"m 124 1140 b 15 1196 76 1140 43 1156 l -26 1167 b 124 1092 8 1114 58 1092 b 274 1167 189 1092 239 1114 l 233 1196 b 124 1140 206 1156 171 1140 z m 149 0 l 149 943 l 99 943 l 99 0 z "},"ĭ":{"ha":247,"x_min":0,"x_max":0,"o":"m 124 843 b 15 897 76 843 43 857 l -26 869 b 124 793 8 817 58 793 b 274 869 189 793 239 817 l 233 897 b 124 843 206 857 171 843 z m 99 596 l 99 0 l 149 0 l 149 644 l 75 644 l 75 596 z "},"Į":{"ha":247,"x_min":0,"x_max":0,"o":"m 149 -12 l 149 943 l 99 943 l 99 0 b -19 -137 26 -36 -19 -64 b 100 -249 -19 -197 24 -249 b 179 -225 131 -249 160 -237 l 154 -183 b 100 -199 140 -192 121 -199 b 29 -137 43 -199 29 -162 b 149 -12 29 -81 63 -61 z "},"į":{"ha":247,"x_min":0,"x_max":0,"o":"m 149 -12 l 149 644 l 75 644 l 75 596 l 99 596 l 99 0 b -19 -137 26 -36 -19 -64 b 100 -249 -19 -197 24 -249 b 179 -225 131 -249 160 -237 l 154 -183 b 100 -199 140 -192 121 -199 b 29 -137 43 -199 29 -162 b 149 -12 29 -81 63 -61 z m 75 850 b 118 806 75 826 94 806 b 161 850 142 806 161 826 b 118 893 161 874 142 893 b 75 850 94 893 75 874 z "},"İ":{"ha":247,"x_min":0,"x_max":0,"o":"m 81 1147 b 124 1104 81 1124 100 1104 b 168 1147 147 1104 168 1124 b 124 1190 168 1171 147 1190 b 81 1147 100 1190 81 1171 z m 149 0 l 149 943 l 99 943 l 99 0 z "},"ı":{"ha":247,"x_min":0,"x_max":0,"o":"m 99 596 l 99 0 l 149 0 l 149 644 l 75 644 l 75 596 z "},"Ĳ":{"ha":793,"x_min":0,"x_max":0,"o":"m 347 943 l 347 893 l 644 893 l 644 199 b 467 25 644 86 558 25 b 322 86 410 25 350 47 l 322 99 l 272 99 l 272 72 l 276 65 b 467 -25 314 6 394 -25 b 694 199 585 -25 694 56 l 694 943 z m 149 0 l 149 943 l 99 943 l 99 0 z "},"ĳ":{"ha":496,"x_min":0,"x_max":0,"o":"m 322 850 b 367 806 322 826 343 806 b 410 850 390 806 410 826 b 367 893 410 874 390 893 b 322 850 343 893 322 874 z m 324 644 l 324 596 l 347 596 l 347 -111 b 211 -249 347 -186 286 -249 b 100 -190 165 -249 125 -225 l 100 -174 l 50 -174 l 50 -204 l 54 -211 b 211 -297 88 -264 146 -297 b 397 -111 314 -297 397 -214 l 397 644 z m 75 850 b 118 806 75 826 94 806 b 161 850 142 806 161 826 b 118 893 161 874 142 893 b 75 850 94 893 75 874 z m 99 596 l 99 0 l 149 0 l 149 644 l 75 644 l 75 596 z "},"Ĵ":{"ha":544,"x_min":0,"x_max":0,"o":"m 275 1178 l 446 1042 l 478 1081 l 293 1228 l 253 1228 l 68 1081 l 99 1042 l 271 1178 z m 99 943 l 99 893 l 397 893 l 397 199 b 218 25 397 86 310 25 b 75 86 161 25 103 47 l 75 99 l 25 99 l 25 72 l 29 65 b 218 -25 67 6 146 -25 b 446 199 336 -25 446 56 l 446 943 z "},"ĵ":{"ha":247,"x_min":0,"x_max":0,"o":"m 75 644 l 75 596 l 99 596 l 99 -111 b -37 -249 99 -186 38 -249 b -149 -190 -83 -249 -124 -225 l -149 -174 l -199 -174 l -199 -204 l -194 -211 b -37 -297 -161 -264 -103 -297 b 149 -111 65 -297 149 -214 l 149 644 z m 121 881 l 242 783 l 272 822 l 138 931 l 99 931 l -37 822 l -6 783 l 115 881 z "},"Ķ":{"ha":843,"x_min":0,"x_max":0,"o":"m 413 -114 b 443 -154 413 -132 426 -149 b 393 -265 443 -201 421 -237 l 415 -287 b 499 -114 464 -239 499 -178 b 456 -69 499 -90 479 -69 b 413 -114 432 -69 413 -90 z m 151 335 l 149 335 l 149 943 l 99 943 l 99 0 l 149 0 l 149 258 l 315 453 l 647 63 b 793 0 683 21 715 0 l 793 50 b 686 94 731 50 714 63 l 349 492 l 690 893 l 744 893 l 744 943 l 667 943 z "},"ķ":{"ha":743,"x_min":0,"x_max":0,"o":"m 351 -114 b 382 -154 351 -132 365 -149 b 332 -265 382 -201 360 -237 l 354 -287 b 438 -114 403 -239 438 -178 b 394 -69 438 -90 418 -69 b 351 -114 371 -69 351 -90 z m 150 203 l 149 203 l 149 943 l 75 943 l 75 893 l 99 893 l 99 0 l 149 0 l 149 128 l 331 319 l 561 63 b 694 0 604 14 650 0 l 694 50 b 597 94 674 50 638 51 l 364 356 l 590 596 l 644 596 l 644 644 l 569 644 z "},"ĸ":{"ha":743,"x_min":0,"x_max":0,"o":"m 75 644 l 75 596 l 99 596 l 99 0 l 149 0 l 149 128 l 331 319 l 561 63 b 694 0 604 14 650 0 l 694 50 b 597 94 674 50 638 51 l 364 356 l 590 596 l 644 596 l 644 644 l 569 644 l 149 203 l 149 644 z "},"Ĺ":{"ha":793,"x_min":0,"x_max":0,"o":"m 392 1054 l 531 1193 l 494 1228 l 357 1089 z m 149 50 l 149 943 l 99 943 l 99 0 l 744 0 l 744 75 l 694 75 l 694 50 z "},"ĺ":{"ha":247,"x_min":0,"x_max":0,"o":"m 94 1054 l 233 1193 l 197 1228 l 60 1089 z m 75 943 l 75 893 l 99 893 l 99 0 l 149 0 l 149 943 z "},"Ļ":{"ha":793,"x_min":0,"x_max":0,"o":"m 388 -114 b 418 -154 388 -132 401 -149 b 368 -265 418 -201 396 -237 l 390 -287 b 474 -114 439 -239 474 -178 b 431 -69 474 -90 454 -69 b 388 -114 407 -69 388 -90 z m 149 50 l 149 943 l 99 943 l 99 0 l 744 0 l 744 75 l 694 75 l 694 50 z "},"ļ":{"ha":247,"x_min":0,"x_max":0,"o":"m 78 -114 b 108 -154 78 -132 92 -149 b 58 -265 108 -201 86 -237 l 81 -287 b 164 -114 129 -239 164 -178 b 121 -69 164 -90 144 -69 b 78 -114 97 -69 78 -90 z m 75 943 l 75 893 l 99 893 l 99 0 l 149 0 l 149 943 z "},"Ľ":{"ha":818,"x_min":0,"x_max":0,"o":"m 707 911 b 738 871 707 893 721 876 b 688 760 738 824 715 788 l 710 738 b 793 911 758 786 793 847 b 750 956 793 935 774 956 b 707 911 726 956 707 935 z m 149 50 l 149 943 l 99 943 l 99 0 l 744 0 l 744 75 l 694 75 l 694 50 z "},"ľ":{"ha":371,"x_min":0,"x_max":0,"o":"m 249 899 b 279 858 249 881 263 864 b 229 747 279 811 257 775 l 251 725 b 335 899 300 774 335 835 b 292 943 335 922 315 943 b 249 899 268 943 249 922 z m 75 943 l 75 893 l 99 893 l 99 0 l 149 0 l 149 943 z "},"Ŀ":{"ha":793,"x_min":0,"x_max":0,"o":"m 478 476 b 521 433 478 453 497 433 b 564 476 544 433 564 453 b 521 521 564 500 544 521 b 478 476 497 521 478 500 z m 149 50 l 149 943 l 99 943 l 99 0 l 744 0 l 744 75 l 694 75 l 694 50 z "},"ŀ":{"ha":421,"x_min":0,"x_max":0,"o":"m 249 464 b 292 421 249 440 268 421 b 335 464 315 421 335 440 b 292 508 335 488 315 508 b 249 464 268 508 249 488 z m 75 943 l 75 893 l 99 893 l 99 0 l 149 0 l 149 943 z "},"Ł":{"ha":793,"x_min":0,"x_max":0,"o":"m 50 263 l 99 301 l 99 0 l 744 0 l 744 75 l 694 75 l 694 50 l 149 50 l 149 342 l 543 647 l 514 688 l 149 404 l 149 943 l 99 943 l 99 365 l 18 303 z "},"ł":{"ha":347,"x_min":0,"x_max":0,"o":"m 57 385 l 149 464 l 149 0 l 199 0 l 199 507 l 324 615 l 290 653 l 199 572 l 199 943 l 124 943 l 124 893 l 149 893 l 149 529 l 25 422 z "},"Ń":{"ha":892,"x_min":0,"x_max":0,"o":"m 442 1054 l 581 1193 l 544 1228 l 407 1089 z m 793 943 l 744 943 l 744 86 l 149 943 l 75 943 l 75 893 l 99 893 l 99 0 l 149 0 l 149 857 l 744 0 l 793 0 z "},"ń":{"ha":793,"x_min":0,"x_max":0,"o":"m 150 461 l 149 461 l 149 644 l 75 644 l 75 596 l 99 596 l 99 0 l 149 0 l 149 285 b 446 608 149 471 288 608 b 644 433 567 608 644 546 l 644 50 l 644 0 l 719 0 l 719 50 l 694 50 l 694 433 b 446 657 694 572 594 657 b 150 461 314 657 206 579 z m 368 757 l 507 896 l 471 931 l 333 792 z "},"Ņ":{"ha":892,"x_min":0,"x_max":0,"o":"m 400 -114 b 431 -154 400 -132 414 -149 b 381 -265 431 -201 408 -237 l 403 -287 b 486 -114 451 -239 486 -178 b 443 -69 486 -90 467 -69 b 400 -114 419 -69 400 -90 z m 793 943 l 744 943 l 744 86 l 149 943 l 75 943 l 75 893 l 99 893 l 99 0 l 149 0 l 149 857 l 744 0 l 793 0 z "},"ņ":{"ha":793,"x_min":0,"x_max":0,"o":"m 364 -114 b 394 -154 364 -132 378 -149 b 344 -265 394 -201 372 -237 l 367 -287 b 450 -114 415 -239 450 -178 b 407 -69 450 -90 431 -69 b 364 -114 383 -69 364 -90 z m 150 461 l 149 461 l 149 644 l 75 644 l 75 596 l 99 596 l 99 0 l 149 0 l 149 285 b 446 608 149 471 288 608 b 644 433 567 608 644 546 l 644 50 l 644 0 l 719 0 l 719 50 l 694 50 l 694 433 b 446 657 694 572 594 657 b 150 461 314 657 206 579 z "},"Ň":{"ha":892,"x_min":0,"x_max":0,"o":"m 474 1103 l 469 1103 l 299 1240 l 267 1201 l 451 1054 l 492 1054 l 676 1201 l 646 1240 z m 793 943 l 744 943 l 744 86 l 149 943 l 75 943 l 75 893 l 99 893 l 99 0 l 149 0 l 149 857 l 744 0 l 793 0 z "},"ň":{"ha":793,"x_min":0,"x_max":0,"o":"m 399 806 l 394 806 l 224 943 l 192 904 l 376 757 l 417 757 l 601 904 l 571 943 z m 150 461 l 149 461 l 149 644 l 75 644 l 75 596 l 99 596 l 99 0 l 149 0 l 149 285 b 446 608 149 471 288 608 b 644 433 567 608 644 546 l 644 50 l 644 0 l 719 0 l 719 50 l 694 50 l 694 433 b 446 657 694 572 594 657 b 150 461 314 657 206 579 z "},"ŉ":{"ha":892,"x_min":0,"x_max":0,"o":"m 56 899 b 86 858 56 881 69 864 b 25 760 75 821 53 788 l 60 725 b 143 899 108 774 143 835 b 100 943 143 922 124 943 b 56 899 76 943 56 922 z m 546 657 b 446 642 511 657 478 651 b 249 469 360 614 290 553 l 249 644 l 174 644 l 174 596 l 199 596 l 199 0 l 249 0 l 249 285 b 546 608 249 471 388 608 b 744 433 667 608 744 546 l 744 0 l 818 0 l 818 50 l 793 50 l 793 433 b 546 657 793 572 694 657 z "},"Ŋ":{"ha":768,"x_min":0,"x_max":0,"o":"m 99 893 l 99 0 l 149 0 l 149 583 b 446 906 149 769 288 906 b 644 732 567 906 644 843 l 644 174 b 561 25 644 103 614 54 l 533 25 l 533 -25 l 567 -25 l 572 -25 l 578 -22 b 694 174 650 13 694 81 l 694 732 b 446 956 694 871 594 956 b 149 775 321 956 210 885 l 149 943 l 75 943 l 75 893 z "},"ŋ":{"ha":768,"x_min":0,"x_max":0,"o":"m 99 596 l 99 0 l 149 0 l 149 285 b 446 608 149 471 288 608 b 644 433 567 608 644 546 l 644 -99 b 561 -249 644 -169 614 -219 l 533 -249 l 533 -297 l 567 -297 l 572 -297 l 578 -294 b 694 -99 650 -260 694 -192 l 694 433 b 446 657 694 572 594 657 b 149 478 321 657 210 588 l 149 644 l 75 644 l 75 596 z "},"Ō":{"ha":1065,"x_min":0,"x_max":0,"o":"m 731 1140 l 731 1190 l 335 1190 l 335 1140 z m 99 471 b 533 906 99 710 294 906 b 967 471 772 906 967 710 b 533 38 967 232 772 38 b 99 471 294 38 99 232 z m 533 956 b 50 471 267 956 50 738 b 533 -12 50 204 267 -12 b 1017 471 800 -12 1017 204 b 533 956 1017 738 800 956 z "},"ō":{"ha":768,"x_min":0,"x_max":0,"o":"m 582 843 l 582 893 l 186 893 l 186 843 z m 99 322 b 385 608 99 479 228 608 b 669 322 542 608 669 479 b 385 38 669 165 542 38 b 99 322 228 38 99 165 z m 385 657 b 50 322 200 657 50 507 b 385 -12 50 138 200 -12 b 719 322 569 -12 719 138 b 385 657 719 507 569 657 z "},"Ŏ":{"ha":1065,"x_min":0,"x_max":0,"o":"m 533 1140 b 383 1217 468 1140 418 1164 l 343 1188 b 533 1090 367 1153 419 1090 b 725 1188 647 1090 701 1153 l 683 1217 b 533 1140 649 1164 599 1140 z m 99 471 b 533 906 99 710 294 906 b 967 471 772 906 967 710 b 533 38 967 232 772 38 b 99 471 294 38 99 232 z m 533 956 b 50 471 267 956 50 738 b 533 -12 50 204 267 -12 b 1017 471 800 -12 1017 204 b 533 956 1017 738 800 956 z "},"ŏ":{"ha":768,"x_min":0,"x_max":0,"o":"m 385 843 b 235 919 319 843 269 867 l 194 890 b 385 793 218 856 271 793 b 576 890 499 793 553 856 l 535 919 b 385 843 500 867 450 843 z m 99 322 b 385 608 99 479 228 608 b 669 322 542 608 669 479 b 385 38 669 165 542 38 b 99 322 228 38 99 165 z m 385 657 b 50 322 200 657 50 507 b 385 -12 50 138 200 -12 b 719 322 569 -12 719 138 b 385 657 719 507 569 657 z "},"Ő":{"ha":1065,"x_min":0,"x_max":0,"o":"m 646 1054 l 783 1193 l 749 1228 l 610 1089 z m 397 1054 l 536 1193 l 500 1228 l 361 1089 z m 99 471 b 533 906 99 710 294 906 b 967 471 772 906 967 710 b 533 38 967 232 772 38 b 99 471 294 38 99 232 z m 533 956 b 50 471 267 956 50 738 b 533 -12 50 204 267 -12 b 1017 471 800 -12 1017 204 b 533 956 1017 738 800 956 z "},"ő":{"ha":768,"x_min":0,"x_max":0,"o":"m 497 757 l 635 896 l 600 931 l 461 792 z m 249 757 l 388 896 l 351 931 l 213 792 z m 99 322 b 385 608 99 479 228 608 b 669 322 542 608 669 479 b 385 38 669 165 542 38 b 99 322 228 38 99 165 z m 385 657 b 50 322 200 657 50 507 b 385 -12 50 138 200 -12 b 719 322 569 -12 719 138 b 385 657 719 507 569 657 z "},"Œ":{"ha":1190,"x_min":0,"x_max":0,"o":"m 521 893 l 596 893 l 596 50 l 521 50 b 99 471 288 50 99 238 b 521 893 99 704 288 893 z m 1092 943 l 521 943 b 50 471 260 943 50 732 b 521 0 50 210 260 0 l 1140 0 l 1140 75 l 1092 75 l 1092 50 l 644 50 l 644 446 l 893 446 l 893 496 l 644 496 l 644 893 l 1042 893 l 1042 868 l 1092 868 z "},"œ":{"ha":1339,"x_min":0,"x_max":0,"o":"m 99 322 b 385 608 99 479 228 608 b 669 322 542 608 669 479 b 385 38 669 165 542 38 b 99 322 228 38 99 165 z m 721 297 l 956 297 b 1271 486 1081 297 1208 433 l 1289 501 l 1275 519 b 1004 657 1214 603 1115 657 b 694 449 865 657 744 571 b 385 657 644 571 525 657 b 50 322 200 657 50 507 b 385 -12 50 138 200 -12 b 694 196 525 -12 644 74 b 1004 -12 744 74 864 -12 b 1249 94 1101 -12 1188 29 l 1213 128 b 1004 38 1160 72 1086 38 b 721 297 856 38 733 151 z m 956 347 l 721 347 b 1004 608 733 493 857 608 b 1221 508 1090 608 1168 569 b 956 347 1153 447 1050 347 z "},"Ŕ":{"ha":843,"x_min":0,"x_max":0,"o":"m 432 408 l 431 408 l 431 410 l 432 410 b 744 669 638 411 744 533 b 428 943 744 807 638 943 l 75 943 l 75 893 l 99 893 l 99 0 l 149 0 l 149 397 l 272 397 b 474 296 399 397 413 392 l 618 72 b 736 0 654 14 688 0 l 793 0 l 793 50 l 736 50 b 660 99 701 50 686 58 l 515 324 b 432 408 486 368 463 393 z m 428 446 l 149 446 l 149 893 l 428 893 b 694 669 608 893 694 779 b 428 446 694 560 608 446 z m 343 1054 l 482 1193 l 446 1228 l 308 1089 z "},"ŕ":{"ha":496,"x_min":0,"x_max":0,"o":"m 243 757 l 382 896 l 346 931 l 208 792 z m 150 433 l 149 433 l 149 644 l 75 644 l 75 596 l 99 596 l 99 0 l 149 0 l 149 249 b 397 606 149 447 296 586 l 397 583 l 446 583 l 446 657 l 422 657 b 150 433 329 657 210 572 z "},"Ŗ":{"ha":843,"x_min":0,"x_max":0,"o":"m 407 -106 b 438 -146 407 -124 421 -140 b 388 -257 438 -193 415 -229 l 410 -279 b 493 -106 458 -231 493 -169 b 450 -61 493 -82 474 -61 b 407 -106 426 -61 407 -82 z m 432 408 l 431 408 l 431 410 l 432 410 b 744 669 638 411 744 533 b 428 943 744 807 638 943 l 75 943 l 75 893 l 99 893 l 99 0 l 149 0 l 149 397 l 272 397 b 474 296 399 397 413 392 l 618 72 b 736 0 654 14 688 0 l 793 0 l 793 50 l 736 50 b 660 99 701 50 686 58 l 515 324 b 432 408 486 368 463 393 z m 428 446 l 149 446 l 149 893 l 428 893 b 694 669 608 893 694 779 b 428 446 694 560 608 446 z "},"ŗ":{"ha":496,"x_min":0,"x_max":0,"o":"m 233 -106 b 264 -146 233 -124 247 -140 b 214 -257 264 -193 242 -229 l 236 -279 b 319 -106 285 -231 319 -169 b 276 -61 319 -82 300 -61 b 233 -106 253 -61 233 -82 z m 150 433 l 149 433 l 149 644 l 75 644 l 75 596 l 99 596 l 99 0 l 149 0 l 149 249 b 397 606 149 447 296 586 l 397 583 l 446 583 l 446 657 l 422 657 b 150 433 329 657 210 572 z "},"Ř":{"ha":843,"x_min":0,"x_max":0,"o":"m 374 1103 l 369 1103 l 199 1240 l 167 1201 l 351 1054 l 392 1054 l 576 1201 l 546 1240 z m 432 408 l 431 408 l 431 410 l 432 410 b 744 669 638 411 744 533 b 428 943 744 807 638 943 l 75 943 l 75 893 l 99 893 l 99 0 l 149 0 l 149 397 l 272 397 b 474 296 399 397 413 392 l 618 72 b 736 0 654 14 688 0 l 793 0 l 793 50 l 736 50 b 660 99 701 50 686 58 l 515 324 b 432 408 486 368 463 393 z m 428 446 l 149 446 l 149 893 l 428 893 b 694 669 608 893 694 779 b 428 446 694 560 608 446 z "},"ř":{"ha":496,"x_min":0,"x_max":0,"o":"m 275 806 l 271 806 l 100 943 l 68 904 l 253 757 l 293 757 l 478 904 l 447 943 z m 150 433 l 149 433 l 149 644 l 75 644 l 75 596 l 99 596 l 99 0 l 149 0 l 149 249 b 397 606 149 447 296 586 l 397 583 l 446 583 l 446 657 l 422 657 b 150 433 329 657 210 572 z "},"Ś":{"ha":843,"x_min":0,"x_max":0,"o":"m 390 1053 l 529 1192 l 493 1226 l 356 1088 z m 99 156 l 99 181 l 50 181 l 50 135 l 57 128 b 422 -12 113 74 265 -12 b 793 218 650 -12 793 85 b 450 515 793 393 601 461 b 149 736 271 579 149 629 b 422 906 149 836 271 906 b 694 810 514 906 624 874 l 694 785 l 744 785 l 744 831 l 736 839 b 422 956 649 925 514 956 b 99 736 242 956 99 867 b 433 469 99 583 283 524 b 744 218 607 406 744 349 b 422 38 744 129 640 38 b 99 156 289 38 154 107 z "},"ś":{"ha":644,"x_min":0,"x_max":0,"o":"m 293 757 l 432 896 l 396 931 l 258 792 z m 322 367 b 149 501 229 399 149 431 b 322 608 149 543 221 608 b 496 550 388 608 450 590 l 496 533 l 546 533 l 546 571 l 539 578 b 322 657 481 635 401 657 b 99 501 207 657 99 583 b 322 315 99 394 211 353 b 546 156 435 278 546 246 b 322 38 546 103 478 38 b 99 117 193 38 128 83 l 99 136 l 50 136 l 50 99 l 54 93 b 322 -12 96 40 183 -12 b 596 156 488 -12 596 57 b 322 367 596 285 449 325 z "},"Ŝ":{"ha":843,"x_min":0,"x_max":0,"o":"m 421 1176 l 593 1040 l 624 1078 l 439 1226 l 399 1226 l 214 1078 l 246 1040 l 417 1176 z m 99 156 l 99 181 l 50 181 l 50 135 l 57 128 b 422 -12 113 74 265 -12 b 793 218 650 -12 793 85 b 450 515 793 393 601 461 b 149 736 271 579 149 629 b 422 906 149 836 271 906 b 694 810 514 906 624 874 l 694 785 l 744 785 l 744 831 l 736 839 b 422 956 649 925 514 956 b 99 736 242 956 99 867 b 433 469 99 583 283 524 b 744 218 607 406 744 349 b 422 38 744 129 640 38 b 99 156 289 38 154 107 z "},"ŝ":{"ha":644,"x_min":0,"x_max":0,"o":"m 325 881 l 497 744 l 528 782 l 343 931 l 303 931 l 118 782 l 150 744 l 321 881 z m 322 367 b 149 501 229 399 149 431 b 322 608 149 543 221 608 b 496 550 388 608 450 590 l 496 533 l 546 533 l 546 571 l 539 578 b 322 657 481 635 401 657 b 99 501 207 657 99 583 b 322 315 99 394 211 353 b 546 156 435 278 546 246 b 322 38 546 103 478 38 b 99 117 193 38 128 83 l 99 136 l 50 136 l 50 99 l 54 93 b 322 -12 96 40 183 -12 b 596 156 488 -12 596 57 b 322 367 596 285 449 325 z "},"Ş":{"ha":843,"x_min":0,"x_max":0,"o":"m 99 181 l 50 181 l 50 135 l 57 128 b 400 -12 110 75 250 -6 l 372 -106 l 404 -114 b 461 -97 426 -104 438 -97 b 528 -174 506 -97 528 -136 b 457 -249 528 -211 507 -249 b 379 -208 424 -249 394 -233 l 347 -226 b 457 -285 369 -264 413 -285 b 578 -179 514 -285 578 -251 b 461 -60 578 -121 536 -60 b 424 -64 446 -60 436 -60 l 438 -12 b 793 218 656 -7 793 89 b 450 515 793 393 601 461 b 149 736 271 579 149 629 b 422 906 149 836 271 906 b 694 810 514 906 624 874 l 694 785 l 744 785 l 744 831 l 736 839 b 422 956 649 925 514 956 b 99 736 242 956 99 867 b 433 469 99 583 283 524 b 744 218 607 406 744 349 b 422 38 744 129 640 38 b 99 156 289 38 154 107 z "},"ş":{"ha":644,"x_min":0,"x_max":0,"o":"m 293 -114 b 350 -97 315 -104 326 -97 b 417 -174 394 -97 417 -136 b 344 -249 417 -211 394 -249 b 268 -208 311 -249 283 -233 l 236 -226 b 344 -285 258 -264 300 -285 b 467 -179 401 -285 467 -251 b 350 -60 467 -121 425 -60 b 313 -64 335 -60 325 -60 l 326 -12 b 596 156 489 -11 596 58 b 149 501 596 381 149 336 b 322 608 149 543 221 608 b 496 550 388 608 450 590 l 496 533 l 546 533 l 546 571 l 539 578 b 322 657 481 635 401 657 b 99 501 207 657 99 583 b 546 156 99 288 546 335 b 322 38 546 103 478 38 b 99 117 193 38 128 83 l 99 136 l 50 136 l 50 99 l 54 93 b 288 -11 93 44 168 -4 l 261 -106 z "},"Š":{"ha":843,"x_min":0,"x_max":0,"o":"m 421 1101 l 417 1101 l 246 1239 l 214 1200 l 399 1053 l 439 1053 l 624 1200 l 593 1239 z m 99 156 l 99 181 l 50 181 l 50 135 l 57 128 b 422 -12 113 74 265 -12 b 793 218 650 -12 793 85 b 450 515 793 393 601 461 b 149 736 271 579 149 629 b 422 906 149 836 271 906 b 694 810 514 906 624 874 l 694 785 l 744 785 l 744 831 l 736 839 b 422 956 649 925 514 956 b 99 736 242 956 99 867 b 433 469 99 583 283 524 b 744 218 607 406 744 349 b 422 38 744 129 640 38 b 99 156 289 38 154 107 z "},"š":{"ha":644,"x_min":0,"x_max":0,"o":"m 325 806 l 321 806 l 150 943 l 118 904 l 303 757 l 343 757 l 528 904 l 497 943 z m 322 367 b 149 501 229 399 149 431 b 322 608 149 543 221 608 b 496 550 388 608 450 590 l 496 533 l 546 533 l 546 571 l 539 578 b 322 657 481 635 401 657 b 99 501 207 657 99 583 b 322 315 99 394 211 353 b 546 156 435 278 546 246 b 322 38 546 103 478 38 b 99 117 193 38 128 83 l 99 136 l 50 136 l 50 99 l 54 93 b 322 -12 96 40 183 -12 b 596 156 488 -12 596 57 b 322 367 596 285 449 325 z "},"Ţ":{"ha":843,"x_min":0,"x_max":0,"o":"m 411 -107 b 469 -89 433 -97 446 -89 b 536 -167 514 -89 536 -129 b 464 -240 536 -204 514 -240 b 388 -201 431 -240 403 -226 l 354 -219 b 464 -278 376 -257 419 -278 b 585 -171 521 -278 585 -243 b 469 -53 585 -112 544 -53 b 431 -57 454 -53 443 -53 l 446 0 l 446 893 l 744 893 l 744 868 l 793 868 l 793 943 l 50 943 l 50 868 l 99 868 l 99 893 l 397 893 l 397 0 l 408 0 l 379 -99 z "},"ţ":{"ha":594,"x_min":0,"x_max":0,"o":"m 50 596 l 149 596 l 149 199 b 288 0 149 107 207 29 l 261 -106 l 292 -114 b 350 -97 314 -104 326 -97 b 417 -174 394 -97 417 -136 b 344 -249 417 -211 394 -249 b 268 -208 311 -249 283 -233 l 236 -226 b 344 -285 258 -264 300 -285 b 467 -179 401 -285 467 -251 b 350 -60 467 -121 425 -60 b 311 -64 335 -60 324 -60 l 326 -10 b 360 -12 338 -11 349 -12 b 542 93 438 -12 506 29 l 546 99 l 546 124 l 496 124 l 496 113 b 360 38 467 67 417 38 b 199 199 271 38 199 110 l 199 596 l 496 596 l 496 644 l 199 644 l 199 793 l 149 793 l 149 644 l 50 644 z "},"Ť":{"ha":843,"x_min":0,"x_max":0,"o":"m 424 1103 l 419 1103 l 249 1240 l 217 1201 l 401 1054 l 442 1054 l 626 1201 l 596 1240 z m 50 943 l 50 868 l 99 868 l 99 893 l 397 893 l 397 0 l 446 0 l 446 893 l 744 893 l 744 868 l 793 868 l 793 943 z "},"ť":{"ha":694,"x_min":0,"x_max":0,"o":"m 571 800 b 601 760 571 782 585 765 b 551 649 601 713 579 676 l 574 626 b 657 800 622 675 657 736 b 614 844 657 824 638 844 b 571 800 590 844 571 824 z m 50 596 l 149 596 l 149 199 b 360 -12 149 82 243 -12 b 542 93 438 -12 506 29 l 546 99 l 546 124 l 496 124 l 496 113 b 360 38 467 67 417 38 b 199 199 271 38 199 110 l 199 596 l 496 596 l 496 644 l 199 644 l 199 793 l 149 793 l 149 644 l 50 644 z "},"Ŧ":{"ha":843,"x_min":0,"x_max":0,"o":"m 50 943 l 50 868 l 99 868 l 99 893 l 397 893 l 397 694 l 249 694 l 249 644 l 397 644 l 397 0 l 446 0 l 446 644 l 596 644 l 596 694 l 446 694 l 446 893 l 744 893 l 744 868 l 793 868 l 793 943 z "},"ŧ":{"ha":594,"x_min":0,"x_max":0,"o":"m 50 596 l 149 596 l 149 446 l 99 446 l 99 397 l 149 397 l 149 199 b 360 -12 149 82 243 -12 b 542 93 438 -12 506 29 l 546 99 l 546 124 l 496 124 l 496 113 b 360 38 467 67 417 38 b 199 199 271 38 199 110 l 199 397 l 446 397 l 446 446 l 199 446 l 199 596 l 496 596 l 496 644 l 199 644 l 199 793 l 149 793 l 149 644 l 50 644 z "},"Ũ":{"ha":892,"x_min":0,"x_max":0,"o":"m 493 1168 l 417 1210 b 357 1224 399 1219 376 1224 b 265 1140 315 1224 276 1200 l 258 1107 l 307 1099 l 314 1132 b 357 1175 319 1163 336 1175 b 399 1163 369 1175 383 1169 l 476 1121 b 535 1107 494 1111 515 1107 b 628 1190 576 1107 617 1131 l 633 1224 l 585 1232 l 578 1199 b 535 1156 572 1168 556 1156 b 493 1168 522 1156 508 1161 z m 149 943 l 75 943 l 75 893 l 99 893 l 99 335 b 446 -12 99 143 254 -12 b 793 335 638 -12 793 143 l 793 943 l 744 943 l 744 335 b 446 38 744 171 610 38 b 149 335 282 38 149 171 z "},"ũ":{"ha":793,"x_min":0,"x_max":0,"o":"m 444 871 l 368 913 b 308 926 350 922 328 926 b 217 843 267 926 228 903 l 210 810 l 258 801 l 265 835 b 308 878 271 865 288 878 b 350 865 321 878 335 872 l 428 824 b 486 810 446 814 467 810 b 579 893 528 810 568 833 l 585 926 l 536 935 l 529 901 b 486 858 524 871 507 858 b 444 871 474 858 460 864 z m 149 644 l 75 644 l 75 596 l 99 596 l 99 211 b 347 -12 99 72 199 -12 b 643 183 479 -12 588 65 l 644 183 l 644 0 l 719 0 l 719 50 l 694 50 l 694 644 l 644 644 l 644 360 b 347 38 644 174 506 38 b 149 211 226 38 149 99 l 149 596 z "},"Ū":{"ha":892,"x_min":0,"x_max":0,"o":"m 644 1140 l 644 1190 l 249 1190 l 249 1140 z m 149 943 l 75 943 l 75 893 l 99 893 l 99 335 b 446 -12 99 143 254 -12 b 793 335 638 -12 793 143 l 793 943 l 744 943 l 744 335 b 446 38 744 171 610 38 b 149 335 282 38 149 171 z "},"ū":{"ha":793,"x_min":0,"x_max":0,"o":"m 594 843 l 594 893 l 199 893 l 199 843 z m 149 644 l 75 644 l 75 596 l 99 596 l 99 211 b 347 -12 99 72 199 -12 b 643 183 479 -12 588 65 l 644 183 l 644 0 l 719 0 l 719 50 l 694 50 l 694 644 l 644 644 l 644 360 b 347 38 644 174 506 38 b 149 211 226 38 149 99 l 149 596 z "},"Ŭ":{"ha":892,"x_min":0,"x_max":0,"o":"m 446 1140 b 296 1217 381 1140 331 1164 l 256 1188 b 446 1090 279 1153 332 1090 b 638 1188 560 1090 614 1153 l 596 1217 b 446 1140 561 1164 511 1140 z m 149 943 l 75 943 l 75 893 l 99 893 l 99 335 b 446 -12 99 143 254 -12 b 793 335 638 -12 793 143 l 793 943 l 744 943 l 744 335 b 446 38 744 171 610 38 b 149 335 282 38 149 171 z "},"ŭ":{"ha":793,"x_min":0,"x_max":0,"o":"m 397 843 b 247 919 332 843 282 867 l 207 890 b 397 793 231 856 283 793 b 589 890 511 793 565 856 l 547 919 b 397 843 513 867 463 843 z m 149 644 l 75 644 l 75 596 l 99 596 l 99 211 b 347 -12 99 72 199 -12 b 643 183 479 -12 588 65 l 644 183 l 644 0 l 719 0 l 719 50 l 694 50 l 694 644 l 644 644 l 644 360 b 347 38 644 174 506 38 b 149 211 226 38 149 99 l 149 596 z "},"Ů":{"ha":892,"x_min":0,"x_max":0,"o":"m 446 1240 b 361 1203 417 1240 388 1228 b 322 1115 335 1178 322 1147 b 361 1031 322 1083 335 1056 b 446 992 388 1006 417 992 b 531 1029 475 992 504 1004 b 569 1115 557 1054 569 1083 b 531 1203 569 1147 557 1178 b 446 1240 504 1228 475 1240 z m 446 1203 b 506 1175 458 1203 478 1200 b 533 1115 522 1158 533 1139 b 506 1056 533 1092 522 1072 b 446 1029 478 1031 458 1029 b 386 1056 433 1029 413 1029 b 358 1115 360 1082 358 1103 b 386 1175 358 1139 369 1158 b 446 1203 414 1200 433 1203 z m 149 943 l 75 943 l 75 893 l 99 893 l 99 335 b 446 -12 99 143 254 -12 b 793 335 638 -12 793 143 l 793 943 l 744 943 l 744 335 b 446 38 744 171 610 38 b 149 335 282 38 149 171 z "},"ů":{"ha":793,"x_min":0,"x_max":0,"o":"m 397 943 b 313 906 368 943 339 931 b 274 818 286 881 274 850 b 313 733 274 786 286 758 b 397 694 339 708 368 694 b 482 732 426 694 456 707 b 521 818 508 757 521 786 b 482 906 521 850 508 881 b 397 943 456 931 426 943 z m 397 906 b 457 878 410 906 429 903 b 485 818 474 861 485 842 b 457 758 485 794 474 775 b 397 732 429 733 410 732 b 338 758 385 732 364 732 b 310 818 311 785 310 806 b 338 878 310 842 321 861 b 397 906 365 903 385 906 z m 149 644 l 75 644 l 75 596 l 99 596 l 99 211 b 347 -12 99 72 199 -12 b 643 183 479 -12 588 65 l 644 183 l 644 0 l 719 0 l 719 50 l 694 50 l 694 644 l 644 644 l 644 360 b 347 38 644 174 506 38 b 149 211 226 38 149 99 l 149 596 z "},"Ű":{"ha":892,"x_min":0,"x_max":0,"o":"m 560 1054 l 697 1193 l 663 1228 l 524 1089 z m 311 1054 l 450 1193 l 414 1228 l 275 1089 z m 149 943 l 75 943 l 75 893 l 99 893 l 99 335 b 446 -12 99 143 254 -12 b 793 335 638 -12 793 143 l 793 943 l 744 943 l 744 335 b 446 38 744 171 610 38 b 149 335 282 38 149 171 z "},"ű":{"ha":793,"x_min":0,"x_max":0,"o":"m 149 644 l 75 644 l 75 596 l 99 596 l 99 211 b 347 -12 99 72 199 -12 b 643 183 479 -12 588 65 l 644 183 l 644 0 l 719 0 l 719 50 l 694 50 l 694 644 l 644 644 l 644 360 b 347 38 644 174 506 38 b 149 211 226 38 149 99 l 149 596 z m 510 757 l 647 896 l 613 931 l 474 792 z m 261 757 l 400 896 l 364 931 l 225 792 z "},"Ų":{"ha":892,"x_min":0,"x_max":0,"o":"m 418 -137 b 597 22 418 -69 465 -53 b 793 335 714 78 793 197 l 793 943 l 744 943 l 744 335 b 446 38 744 171 610 38 b 149 335 282 38 149 171 l 149 943 l 75 943 l 75 893 l 99 893 l 99 335 b 446 -12 99 143 254 -12 l 463 -12 b 368 -137 406 -43 368 -74 b 489 -249 368 -197 413 -249 b 567 -225 519 -249 547 -237 l 542 -183 b 489 -199 528 -192 510 -199 b 418 -137 432 -199 418 -162 z "},"ų":{"ha":793,"x_min":0,"x_max":0,"o":"m 149 644 l 75 644 l 75 596 l 99 596 l 99 211 b 347 -12 99 72 199 -12 b 643 183 479 -12 588 65 l 644 183 l 644 -3 b 533 -137 578 -37 533 -67 b 654 -249 533 -197 578 -249 b 732 -225 685 -249 713 -237 l 707 -183 b 654 -199 693 -192 675 -199 b 583 -137 597 -199 583 -162 b 719 -3 583 -76 621 -58 l 719 50 l 694 50 l 694 644 l 644 644 l 644 360 b 347 38 644 174 506 38 b 149 211 226 38 149 99 l 149 596 z "},"Ŵ":{"ha":1339,"x_min":0,"x_max":0,"o":"m 672 1178 l 844 1042 l 875 1079 l 690 1228 l 650 1228 l 465 1079 l 497 1042 l 668 1178 z m 38 893 l 57 893 l 390 -11 l 428 -11 l 669 631 l 908 -11 l 944 -11 l 1297 933 l 1250 951 l 926 82 l 694 707 l 694 843 l 644 843 l 644 707 l 410 82 l 92 943 l 38 943 z "},"ŵ":{"ha":1115,"x_min":0,"x_max":0,"o":"m 347 72 l 90 644 l 38 644 l 38 596 l 58 596 l 331 -11 l 364 -11 l 571 446 l 776 -11 l 811 -11 l 1100 635 l 1056 654 l 793 72 l 596 513 l 596 619 l 546 619 l 546 513 z m 572 881 l 744 744 l 775 782 l 590 931 l 550 931 l 365 782 l 397 744 l 568 881 z "},"Ŷ":{"ha":843,"x_min":0,"x_max":0,"o":"m 422 396 l 421 396 l 88 943 l 38 943 l 38 893 l 61 893 l 397 339 l 397 0 l 446 0 l 446 339 l 801 928 l 758 953 z m 424 1178 l 596 1042 l 626 1079 l 442 1228 l 401 1228 l 217 1079 l 249 1042 l 419 1178 z "},"ŷ":{"ha":743,"x_min":0,"x_max":0,"o":"m 374 881 l 546 744 l 576 782 l 392 931 l 351 931 l 167 782 l 199 744 l 369 881 z m 719 613 l 719 644 l 669 644 l 669 625 l 374 10 l 372 10 l 90 644 l 38 644 l 38 596 l 58 596 l 344 -50 l 300 -143 b 179 -249 260 -225 217 -249 b 75 -186 139 -249 99 -219 l 75 -175 l 25 -175 l 25 -201 l 29 -207 b 179 -297 57 -249 113 -297 b 344 -165 239 -297 299 -261 z "},"Ÿ":{"ha":843,"x_min":0,"x_max":0,"o":"m 526 1122 b 571 1078 526 1099 547 1078 b 614 1122 594 1078 614 1099 b 571 1165 614 1146 594 1165 b 526 1122 547 1165 526 1146 z m 236 1122 b 279 1078 236 1099 256 1078 b 322 1122 303 1078 322 1099 b 279 1165 322 1146 303 1165 b 236 1122 256 1165 236 1146 z m 422 396 l 421 396 l 88 943 l 38 943 l 38 893 l 61 893 l 397 339 l 397 0 l 446 0 l 446 339 l 801 928 l 758 953 z "},"Ź":{"ha":793,"x_min":0,"x_max":0,"o":"m 368 1054 l 507 1193 l 471 1228 l 333 1089 z m 719 943 l 75 943 l 75 868 l 124 868 l 124 893 l 647 893 l 647 892 l 646 892 l 50 32 l 50 0 l 744 0 l 744 75 l 694 75 l 694 50 l 121 50 l 121 51 l 122 51 l 719 910 z "},"ź":{"ha":694,"x_min":0,"x_max":0,"o":"m 318 757 l 457 896 l 421 931 l 283 792 z m 539 596 l 539 594 l 50 35 l 50 0 l 644 0 l 644 75 l 596 75 l 596 50 l 131 50 l 131 51 l 619 610 l 619 644 l 75 644 l 75 571 l 124 571 l 124 596 z "},"Ż":{"ha":793,"x_min":0,"x_max":0,"o":"m 353 1147 b 397 1103 353 1124 374 1103 b 440 1147 421 1103 440 1124 b 397 1190 440 1171 421 1190 b 353 1147 374 1190 353 1171 z m 719 943 l 75 943 l 75 868 l 124 868 l 124 893 l 647 893 l 647 892 l 646 892 l 50 32 l 50 0 l 744 0 l 744 75 l 694 75 l 694 50 l 121 50 l 121 51 l 122 51 l 719 910 z "},"ż":{"ha":694,"x_min":0,"x_max":0,"o":"m 303 850 b 347 806 303 826 324 806 b 390 850 371 806 390 826 b 347 893 390 874 371 893 b 303 850 324 893 303 874 z m 539 596 l 539 594 l 50 35 l 50 0 l 644 0 l 644 75 l 596 75 l 596 50 l 131 50 l 131 51 l 619 610 l 619 644 l 75 644 l 75 571 l 124 571 l 124 596 z "},"Ž":{"ha":793,"x_min":0,"x_max":0,"o":"m 399 1103 l 394 1103 l 224 1240 l 192 1201 l 376 1054 l 417 1054 l 601 1201 l 571 1240 z m 719 943 l 75 943 l 75 868 l 124 868 l 124 893 l 647 893 l 647 892 l 646 892 l 50 32 l 50 0 l 744 0 l 744 75 l 694 75 l 694 50 l 121 50 l 121 51 l 122 51 l 719 910 z "},"ž":{"ha":694,"x_min":0,"x_max":0,"o":"m 349 806 l 344 806 l 174 943 l 142 904 l 326 757 l 367 757 l 551 904 l 521 943 z m 539 596 l 539 594 l 50 35 l 50 0 l 644 0 l 644 75 l 596 75 l 596 50 l 131 50 l 131 51 l 619 610 l 619 644 l 75 644 l 75 571 l 124 571 l 124 596 z "},"ƒ":{"ha":693,"x_min":0,"x_max":0,"o":"m 347 -111 l 347 496 l 546 496 l 546 546 l 347 546 l 347 732 b 483 868 347 807 408 868 b 596 810 529 868 571 844 l 596 793 l 644 793 l 644 825 l 640 831 b 483 918 607 883 549 918 b 297 732 381 918 297 835 l 297 546 l 149 546 l 149 496 l 297 496 l 297 -111 b 161 -249 297 -186 236 -249 b 50 -190 115 -249 75 -225 l 50 -174 l 0 -174 l 0 -204 l 4 -211 b 161 -297 38 -264 96 -297 b 347 -111 264 -297 347 -214 z "},"Ǎ":{"ha":843,"x_min":0,"x_max":0,"o":"m 436 1103 l 432 1103 l 261 1240 l 229 1201 l 414 1054 l 454 1054 l 639 1201 l 608 1240 z m 433 864 l 661 297 l 210 297 z m 681 249 l 783 -8 l 829 8 l 453 954 l 415 954 l 57 50 l 38 50 l 38 0 l 92 0 l 190 249 z "},"ǎ":{"ha":743,"x_min":0,"x_max":0,"o":"m 381 806 l 376 806 l 206 943 l 174 904 l 358 757 l 399 757 l 583 904 l 553 943 z m 596 167 b 322 38 554 85 425 38 b 99 192 200 38 99 106 b 322 347 99 267 167 347 l 596 347 z m 594 101 l 596 101 l 596 0 l 669 0 l 669 50 l 644 50 l 644 433 b 378 657 644 600 511 657 b 149 600 296 657 206 636 l 149 546 l 199 546 l 199 571 b 378 608 243 592 308 608 b 596 433 479 608 596 572 l 596 397 l 322 397 b 50 192 144 397 50 299 b 322 -12 50 78 172 -12 b 594 101 417 -12 529 26 z "},"Ǐ":{"ha":247,"x_min":0,"x_max":0,"o":"m 126 1103 l 122 1103 l -49 1240 l -81 1201 l 104 1054 l 144 1054 l 329 1201 l 299 1240 z m 149 0 l 149 943 l 99 943 l 99 0 z "},"ǐ":{"ha":247,"x_min":0,"x_max":0,"o":"m 119 806 l 115 806 l -56 943 l -87 904 l 97 757 l 138 757 l 322 904 l 292 943 z m 99 596 l 99 0 l 149 0 l 149 644 l 75 644 l 75 596 z "},"Ǒ":{"ha":1065,"x_min":0,"x_max":0,"o":"m 535 1103 l 531 1103 l 360 1240 l 328 1201 l 513 1054 l 553 1054 l 738 1201 l 707 1240 z m 99 471 b 533 906 99 710 294 906 b 967 471 772 906 967 710 b 533 38 967 232 772 38 b 99 471 294 38 99 232 z m 533 956 b 50 471 267 956 50 738 b 533 -12 50 204 267 -12 b 1017 471 800 -12 1017 204 b 533 956 1017 738 800 956 z "},"ǒ":{"ha":768,"x_min":0,"x_max":0,"o":"m 386 806 l 382 806 l 211 943 l 179 904 l 364 757 l 404 757 l 589 904 l 558 943 z m 99 322 b 385 608 99 479 228 608 b 669 322 542 608 669 479 b 385 38 669 165 542 38 b 99 322 228 38 99 165 z m 385 657 b 50 322 200 657 50 507 b 385 -12 50 138 200 -12 b 719 322 569 -12 719 138 b 385 657 719 507 569 657 z "},"Ǔ":{"ha":892,"x_min":0,"x_max":0,"o":"m 449 1103 l 444 1103 l 274 1240 l 242 1201 l 426 1054 l 467 1054 l 651 1201 l 621 1240 z m 149 943 l 75 943 l 75 893 l 99 893 l 99 335 b 446 -12 99 143 254 -12 b 793 335 638 -12 793 143 l 793 943 l 744 943 l 744 335 b 446 38 744 171 610 38 b 149 335 282 38 149 171 z "},"ǔ":{"ha":793,"x_min":0,"x_max":0,"o":"m 399 806 l 394 806 l 224 943 l 192 904 l 376 757 l 417 757 l 601 904 l 571 943 z m 149 644 l 75 644 l 75 596 l 99 596 l 99 211 b 347 -12 99 72 199 -12 b 643 183 479 -12 588 65 l 644 183 l 644 0 l 719 0 l 719 50 l 694 50 l 694 644 l 644 644 l 644 360 b 347 38 644 174 506 38 b 149 211 226 38 149 99 l 149 596 z "},"Ǧ":{"ha":942,"x_min":0,"x_max":0,"o":"m 522 1103 l 518 1103 l 347 1240 l 315 1201 l 500 1054 l 540 1054 l 725 1201 l 694 1240 z m 644 397 l 843 397 l 843 168 b 533 38 764 88 656 38 b 99 471 294 38 99 232 b 533 906 99 710 294 906 b 793 818 632 906 719 872 l 793 793 l 843 793 l 843 842 b 533 956 758 913 651 956 b 50 471 267 956 50 738 b 533 -12 50 204 267 -12 b 843 115 649 -12 767 47 l 843 0 l 893 0 l 893 446 l 644 446 z "},"ǧ":{"ha":694,"x_min":0,"x_max":0,"o":"m 349 806 l 344 806 l 174 943 l 142 904 l 326 757 l 367 757 l 551 904 l 521 943 z m 167 44 l 536 -44 b 632 -154 600 -60 632 -110 b 493 -249 632 -200 593 -249 l 240 -249 b 75 -126 117 -249 75 -192 b 167 44 75 -62 118 13 z m 128 126 b 201 243 128 150 151 193 b 347 199 242 215 293 199 b 596 428 482 199 596 300 b 517 596 596 494 565 554 l 669 596 l 669 644 l 428 644 b 347 657 403 653 376 657 b 99 428 213 657 99 557 b 163 274 99 368 122 314 b 78 126 133 243 78 179 b 113 64 78 113 79 85 b 25 -126 64 19 25 -54 b 240 -297 25 -215 85 -297 l 493 -297 b 682 -154 621 -297 682 -229 b 547 4 682 -85 631 -15 l 165 97 b 128 126 136 104 128 114 z m 149 428 b 347 608 149 526 236 608 b 546 428 457 608 546 526 b 347 249 546 329 458 249 b 149 428 236 249 149 329 z "},"Ǩ":{"ha":843,"x_min":0,"x_max":0,"o":"m 424 1103 l 419 1103 l 249 1240 l 217 1201 l 401 1054 l 442 1054 l 626 1201 l 596 1240 z m 151 335 l 149 335 l 149 943 l 99 943 l 99 0 l 149 0 l 149 258 l 315 453 l 647 63 b 793 0 683 21 715 0 l 793 50 b 686 94 731 50 714 63 l 349 492 l 690 893 l 744 893 l 744 943 l 667 943 z "},"ǩ":{"ha":743,"x_min":0,"x_max":0,"o":"m 399 1054 l 394 1054 l 224 1192 l 192 1153 l 376 1006 l 417 1006 l 601 1153 l 571 1192 z m 150 203 l 149 203 l 149 943 l 75 943 l 75 893 l 99 893 l 99 0 l 149 0 l 149 128 l 331 319 l 561 63 b 694 0 604 14 650 0 l 694 50 b 597 94 674 50 638 51 l 364 356 l 590 596 l 644 596 l 644 644 l 569 644 z "},"Ǫ":{"ha":1065,"x_min":0,"x_max":0,"o":"m 510 -137 b 689 14 510 -69 557 -61 b 1017 471 879 79 1017 258 b 533 956 1017 738 800 956 b 50 471 267 956 50 738 b 533 -12 50 204 267 -12 b 568 -11 546 -12 557 -12 b 460 -137 503 -42 460 -68 b 581 -249 460 -197 504 -249 b 658 -225 611 -249 639 -237 l 633 -183 b 581 -199 619 -192 601 -199 b 510 -137 524 -199 510 -162 z m 99 471 b 533 906 99 710 294 906 b 967 471 772 906 967 710 b 533 38 967 232 772 38 b 99 471 294 38 99 232 z "},"ǫ":{"ha":768,"x_min":0,"x_max":0,"o":"m 99 322 b 385 608 99 479 228 608 b 669 322 542 608 669 479 b 385 38 669 165 542 38 b 99 322 228 38 99 165 z m 385 657 b 50 322 200 657 50 507 b 385 -12 50 138 200 -12 l 399 -12 b 307 -136 343 -42 307 -72 b 426 -247 307 -196 350 -247 b 504 -225 457 -247 485 -237 l 481 -182 b 426 -197 467 -190 447 -197 b 356 -136 369 -197 356 -161 b 540 26 356 -67 406 -51 b 719 322 647 82 719 193 b 385 657 719 507 569 657 z "},"Ǭ":{"ha":1065,"x_min":0,"x_max":0,"o":"m 731 1017 l 731 1067 l 335 1067 l 335 1017 z m 510 -137 b 689 14 510 -69 557 -61 b 1017 471 879 79 1017 258 b 533 956 1017 738 800 956 b 50 471 267 956 50 738 b 533 -12 50 204 267 -12 b 568 -11 546 -12 557 -12 b 460 -137 503 -42 460 -68 b 581 -249 460 -197 504 -249 b 658 -225 611 -249 639 -237 l 633 -183 b 581 -199 619 -192 601 -199 b 510 -137 524 -199 510 -162 z m 99 471 b 533 906 99 710 294 906 b 967 471 772 906 967 710 b 533 38 967 232 772 38 b 99 471 294 38 99 232 z "},"ǭ":{"ha":768,"x_min":0,"x_max":0,"o":"m 582 719 l 582 769 l 186 769 l 186 719 z m 99 322 b 385 608 99 479 228 608 b 669 322 542 608 669 479 b 385 38 669 165 542 38 b 99 322 228 38 99 165 z m 385 657 b 50 322 200 657 50 507 b 385 -12 50 138 200 -12 l 399 -12 b 307 -136 343 -42 307 -72 b 426 -247 307 -196 350 -247 b 504 -225 457 -247 485 -237 l 481 -182 b 426 -197 467 -190 447 -197 b 356 -136 369 -197 356 -161 b 540 26 356 -67 406 -51 b 719 322 647 82 719 193 b 385 657 719 507 569 657 z "},"Ǵ":{"ha":942,"x_min":0,"x_max":0,"o":"m 644 397 l 843 397 l 843 168 b 533 38 764 88 656 38 b 99 471 294 38 99 232 b 533 906 99 710 294 906 b 793 818 632 906 719 872 l 793 793 l 843 793 l 843 842 b 533 956 758 913 651 956 b 50 471 267 956 50 738 b 533 -12 50 204 267 -12 b 843 115 649 -12 767 47 l 843 0 l 893 0 l 893 446 l 644 446 z m 492 1054 l 631 1193 l 594 1228 l 457 1089 z "},"ǵ":{"ha":694,"x_min":0,"x_max":0,"o":"m 318 757 l 457 896 l 421 931 l 283 792 z m 167 44 l 536 -44 b 632 -154 600 -60 632 -110 b 493 -249 632 -200 593 -249 l 240 -249 b 75 -126 117 -249 75 -192 b 167 44 75 -62 118 13 z m 128 126 b 201 243 128 150 151 193 b 347 199 242 215 293 199 b 596 428 482 199 596 300 b 517 596 596 494 565 554 l 669 596 l 669 644 l 428 644 b 347 657 403 653 376 657 b 99 428 213 657 99 557 b 163 274 99 368 122 314 b 78 126 133 243 78 179 b 113 64 78 113 79 85 b 25 -126 64 19 25 -54 b 240 -297 25 -215 85 -297 l 493 -297 b 682 -154 621 -297 682 -229 b 547 4 682 -85 631 -15 l 165 97 b 128 126 136 104 128 114 z m 149 428 b 347 608 149 526 236 608 b 546 428 457 608 546 526 b 347 249 546 329 458 249 b 149 428 236 249 149 329 z "},"Ȁ":{"ha":843,"x_min":0,"x_max":0,"o":"m 575 1054 l 611 1089 l 474 1228 l 438 1193 z m 326 1054 l 363 1089 l 225 1228 l 189 1193 z m 433 864 l 661 297 l 210 297 z m 681 249 l 783 -8 l 829 8 l 453 954 l 415 954 l 57 50 l 38 50 l 38 0 l 92 0 l 190 249 z "},"ȁ":{"ha":743,"x_min":0,"x_max":0,"o":"m 596 167 b 322 38 554 85 425 38 b 99 192 200 38 99 106 b 322 347 99 267 167 347 l 596 347 z m 594 101 l 596 101 l 596 0 l 669 0 l 669 50 l 644 50 l 644 433 b 378 657 644 600 511 657 b 149 600 296 657 206 636 l 149 546 l 199 546 l 199 571 b 378 608 243 592 308 608 b 596 433 479 608 596 572 l 596 397 l 322 397 b 50 192 144 397 50 299 b 322 -12 50 78 172 -12 b 594 101 417 -12 529 26 z m 519 757 l 556 792 l 418 931 l 382 896 z m 271 757 l 307 792 l 169 931 l 133 896 z "},"Ș":{"ha":843,"x_min":0,"x_max":0,"o":"m 388 -125 b 418 -165 388 -143 401 -160 b 368 -276 418 -212 396 -249 l 390 -299 b 474 -125 439 -250 474 -189 b 431 -81 474 -101 454 -81 b 388 -125 407 -81 388 -101 z m 99 156 l 99 181 l 50 181 l 50 135 l 57 128 b 422 -12 113 74 265 -12 b 793 218 650 -12 793 85 b 450 515 793 393 601 461 b 149 736 271 579 149 629 b 422 906 149 836 271 906 b 694 810 514 906 624 874 l 694 785 l 744 785 l 744 831 l 736 839 b 422 956 649 925 514 956 b 99 736 242 956 99 867 b 433 469 99 583 283 524 b 744 218 607 406 744 349 b 422 38 744 129 640 38 b 99 156 289 38 154 107 z "},"ș":{"ha":644,"x_min":0,"x_max":0,"o":"m 289 -125 b 319 -165 289 -143 303 -160 b 269 -276 319 -212 297 -249 l 292 -299 b 375 -125 340 -250 375 -189 b 332 -81 375 -101 356 -81 b 289 -125 308 -81 289 -101 z m 322 367 b 149 501 229 399 149 431 b 322 608 149 543 221 608 b 496 550 388 608 450 590 l 496 533 l 546 533 l 546 571 l 539 578 b 322 657 481 635 401 657 b 99 501 207 657 99 583 b 322 315 99 394 211 353 b 546 156 435 278 546 246 b 322 38 546 103 478 38 b 99 117 193 38 128 83 l 99 136 l 50 136 l 50 99 l 54 93 b 322 -12 96 40 183 -12 b 596 156 488 -12 596 57 b 322 367 596 285 449 325 z "},"Ț":{"ha":843,"x_min":0,"x_max":0,"o":"m 388 -114 b 418 -154 388 -132 401 -149 b 368 -265 418 -201 396 -237 l 390 -287 b 474 -114 439 -239 474 -178 b 431 -69 474 -90 454 -69 b 388 -114 407 -69 388 -90 z m 50 943 l 50 868 l 99 868 l 99 893 l 397 893 l 397 0 l 446 0 l 446 893 l 744 893 l 744 868 l 793 868 l 793 943 z "},"ț":{"ha":594,"x_min":0,"x_max":0,"o":"m 264 -125 b 294 -165 264 -143 278 -160 b 244 -276 294 -212 272 -249 l 267 -299 b 350 -125 315 -250 350 -189 b 307 -81 350 -101 331 -81 b 264 -125 283 -81 264 -101 z m 50 596 l 149 596 l 149 199 b 360 -12 149 82 243 -12 b 542 93 438 -12 506 29 l 546 99 l 546 124 l 496 124 l 496 113 b 360 38 467 67 417 38 b 199 199 271 38 199 110 l 199 596 l 496 596 l 496 644 l 199 644 l 199 793 l 149 793 l 149 644 l 50 644 z "},"Ȧ":{"ha":843,"x_min":0,"x_max":0,"o":"m 390 1147 b 435 1103 390 1124 411 1103 b 478 1147 458 1103 478 1124 b 435 1190 478 1171 458 1190 b 390 1147 411 1190 390 1171 z m 433 864 l 661 297 l 210 297 z m 681 249 l 783 -8 l 829 8 l 453 954 l 415 954 l 57 50 l 38 50 l 38 0 l 92 0 l 190 249 z "},"ȧ":{"ha":743,"x_min":0,"x_max":0,"o":"m 335 850 b 379 806 335 826 356 806 b 422 850 403 806 422 826 b 379 893 422 874 403 893 b 335 850 356 893 335 874 z m 596 167 b 322 38 554 85 425 38 b 99 192 200 38 99 106 b 322 347 99 267 167 347 l 596 347 z m 594 101 l 596 101 l 596 0 l 669 0 l 669 50 l 644 50 l 644 433 b 378 657 644 600 511 657 b 149 600 296 657 206 636 l 149 546 l 199 546 l 199 571 b 378 608 243 592 308 608 b 596 433 479 608 596 572 l 596 397 l 322 397 b 50 192 144 397 50 299 b 322 -12 50 78 172 -12 b 594 101 417 -12 529 26 z "},"ȷ":{"ha":222,"x_min":0,"x_max":0,"o":"m 75 644 l 75 596 l 99 596 l 99 -111 b -37 -249 99 -186 38 -249 b -149 -190 -83 -249 -124 -225 l -149 -174 l -199 -174 l -199 -204 l -194 -211 b -37 -297 -161 -264 -103 -297 b 149 -111 65 -297 149 -214 l 149 644 z "},"ˆ":{"ha":544,"x_min":0,"x_max":0,"o":"m 275 881 l 446 744 l 478 782 l 293 931 l 253 931 l 68 782 l 99 744 l 271 881 z "},"ˇ":{"ha":544,"x_min":0,"x_max":0,"o":"m 275 806 l 271 806 l 99 943 l 68 904 l 253 757 l 293 757 l 478 904 l 446 943 z "},"ˉ":{"ha":496,"x_min":0,"x_max":0,"o":"m 446 843 l 446 893 l 50 893 l 50 843 z "},"ˊ":{"ha":297,"x_min":0,"x_max":0,"o":"m 82 757 l 221 896 l 185 931 l 47 792 z "},"ˋ":{"ha":297,"x_min":0,"x_max":0,"o":"m 200 757 l 236 792 l 99 931 l 63 896 z "},"˘":{"ha":396,"x_min":0,"x_max":0,"o":"m 199 843 b 49 919 133 843 83 867 l 7 890 b 199 793 31 856 85 793 b 389 890 313 793 365 856 l 349 919 b 199 843 314 867 264 843 z "},"˙":{"ha":197,"x_min":0,"x_max":0,"o":"m 56 850 b 99 806 56 826 75 806 b 143 850 122 806 143 826 b 99 893 143 874 122 893 b 56 850 75 893 56 874 z "},"˚":{"ha":347,"x_min":0,"x_max":0,"o":"m 174 943 b 89 906 144 943 115 931 b 50 818 63 881 50 850 b 89 733 50 786 63 758 b 174 694 115 708 144 694 b 258 732 203 694 232 707 b 297 818 285 757 297 786 b 258 906 297 850 285 881 b 174 943 232 931 203 943 z m 174 906 b 233 878 186 906 206 903 b 261 818 250 861 261 842 b 233 758 261 794 250 775 b 174 732 206 733 186 732 b 114 758 161 732 140 732 b 86 818 88 785 86 806 b 114 878 86 842 97 861 b 174 906 142 903 161 906 z "},"˛":{"ha":347,"x_min":0,"x_max":0,"o":"m 99 -137 b 283 25 99 -68 149 -53 l 269 53 b 50 -137 147 -19 50 -33 b 169 -249 50 -197 93 -249 b 249 -225 200 -249 229 -237 l 224 -183 b 169 -199 210 -192 190 -199 b 99 -137 113 -199 99 -162 z "},"˜":{"ha":396,"x_min":0,"x_max":0,"o":"m 246 871 l 168 913 b 110 926 150 922 129 926 b 17 843 68 926 28 903 l 11 810 l 60 801 l 67 835 b 110 878 72 865 89 878 b 151 865 122 878 136 872 l 228 824 b 288 810 246 814 268 810 b 379 893 329 810 368 833 l 386 926 l 338 935 l 331 901 b 288 858 325 871 308 858 b 246 871 275 858 261 864 z "},"˝":{"ha":594,"x_min":0,"x_max":0,"o":"m 411 757 l 549 896 l 514 931 l 375 792 z m 163 757 l 300 896 l 265 931 l 126 792 z "},"˵":{"ha":544,"x_min":0,"x_max":0,"o":"m 464 757 l 500 792 l 363 931 l 326 896 z m 215 757 l 251 792 l 114 931 l 78 896 z "},"̀":{"ha":0,"x_min":0,"x_max":0,"o":"m -156 757 l -121 792 l -258 931 l -294 896 z "},"́":{"ha":0,"x_min":0,"x_max":0,"o":"m -215 757 l -76 896 l -112 931 l -250 792 z "},"̂":{"ha":0,"x_min":0,"x_max":0,"o":"m -271 881 l -99 744 l -68 782 l -253 931 l -293 931 l -478 782 l -446 744 l -275 881 z "},"̃":{"ha":0,"x_min":0,"x_max":0,"o":"m -151 871 l -228 913 b -287 926 -246 922 -268 926 b -379 843 -329 926 -368 903 l -386 810 l -337 801 l -331 835 b -287 878 -325 865 -308 878 b -246 865 -275 878 -261 872 l -168 824 b -110 810 -150 814 -129 810 b -17 893 -68 810 -28 833 l -11 926 l -60 935 l -67 901 b -110 858 -72 871 -89 858 b -151 871 -122 858 -136 864 z "},"̄":{"ha":0,"x_min":0,"x_max":0,"o":"m -50 843 l -50 893 l -446 893 l -446 843 z "},"̅":{"ha":0,"x_min":0,"x_max":0,"o":"m 0 843 l 0 893 l -496 893 l -496 843 z "},"̆":{"ha":0,"x_min":0,"x_max":0,"o":"m -199 843 b -349 919 -264 843 -314 867 l -389 890 b -199 793 -365 856 -312 793 b -7 890 -85 793 -31 856 l -49 919 b -199 843 -83 867 -133 843 z "},"̇":{"ha":0,"x_min":0,"x_max":0,"o":"m -143 850 b -99 806 -143 826 -122 806 b -56 850 -75 806 -56 826 b -99 893 -56 874 -75 893 b -143 850 -122 893 -143 874 z "},"̈":{"ha":0,"x_min":0,"x_max":0,"o":"m -143 825 b -99 781 -143 801 -122 781 b -56 825 -75 781 -56 801 b -99 868 -56 849 -75 868 b -143 825 -122 868 -143 849 z m -433 825 b -390 781 -433 801 -414 781 b -347 825 -367 781 -347 801 b -390 868 -347 849 -367 868 b -433 825 -414 868 -433 849 z "},"̉":{"ha":197,"x_min":0,"x_max":0,"o":"m 38 831 b 99 553 38 796 64 553 b 161 831 133 553 161 796 b 99 893 161 865 133 893 b 38 831 64 893 38 865 z "},"̊":{"ha":0,"x_min":0,"x_max":0,"o":"m -174 943 b -258 906 -203 943 -232 931 b -297 818 -285 881 -297 850 b -258 733 -297 786 -285 758 b -174 694 -232 708 -203 694 b -89 732 -144 694 -115 707 b -50 818 -62 757 -50 786 b -89 906 -50 850 -62 881 b -174 943 -115 931 -144 943 z m -174 906 b -114 878 -161 906 -142 903 b -86 818 -97 861 -86 842 b -114 758 -86 794 -97 775 b -174 732 -142 733 -161 732 b -233 758 -186 732 -207 732 b -261 818 -260 785 -261 806 b -233 878 -261 842 -250 861 b -174 906 -206 903 -186 906 z "},"̋":{"ha":0,"x_min":0,"x_max":0,"o":"m -185 757 l -47 896 l -82 931 l -221 792 z m -433 757 l -294 896 l -331 931 l -469 792 z "},"̌":{"ha":0,"x_min":0,"x_max":0,"o":"m -271 806 l -275 806 l -446 943 l -478 904 l -293 757 l -253 757 l -68 904 l -99 943 z "},"̍":{"ha":197,"x_min":0,"x_max":0,"o":"m 38 831 b 99 769 38 796 64 769 b 161 831 133 769 161 796 b 99 893 161 865 133 893 b 38 831 64 893 38 865 z "},"̏":{"ha":0,"x_min":0,"x_max":0,"o":"m -82 757 l -46 792 l -183 931 l -219 896 z m -331 757 l -294 792 l -432 931 l -468 896 z "},"̑":{"ha":0,"x_min":0,"x_max":0,"o":"m -199 868 b -49 793 -133 868 -83 846 l -7 821 b -199 918 -31 856 -85 918 b -389 821 -312 918 -365 856 l -349 793 b -199 868 -314 846 -264 868 z "},"Ω":{"ha":1042,"x_min":0,"x_max":0,"o":"m 918 0 l 918 50 l 694 50 l 694 57 b 992 496 868 126 992 297 b 521 967 992 757 782 967 b 50 496 260 967 50 757 b 347 57 50 297 174 126 l 347 50 l 124 50 l 124 0 l 397 0 l 397 92 l 365 104 b 99 496 210 167 99 317 b 521 918 99 728 289 918 b 943 496 754 918 943 729 b 676 104 943 317 832 167 l 644 92 l 644 0 z "},"π":{"ha":743,"x_min":0,"x_max":0,"o":"m 694 644 l 50 644 l 50 596 l 149 596 l 149 0 l 199 0 l 199 596 l 546 596 l 546 99 b 644 0 546 44 590 0 l 669 0 l 669 50 l 644 50 b 596 99 617 50 596 71 l 596 596 l 694 596 z "},"Ẁ":{"ha":1339,"x_min":0,"x_max":0,"o":"m 700 1054 l 735 1089 l 597 1228 l 561 1193 z m 38 893 l 57 893 l 390 -11 l 428 -11 l 669 631 l 908 -11 l 944 -11 l 1297 933 l 1250 951 l 926 82 l 694 707 l 694 843 l 644 843 l 644 707 l 410 82 l 92 943 l 38 943 z "},"ẁ":{"ha":1115,"x_min":0,"x_max":0,"o":"m 347 72 l 90 644 l 38 644 l 38 596 l 58 596 l 331 -11 l 364 -11 l 571 446 l 776 -11 l 811 -11 l 1100 635 l 1056 654 l 793 72 l 596 513 l 596 619 l 546 619 l 546 513 z m 601 757 l 636 792 l 499 931 l 463 896 z "},"Ẃ":{"ha":1339,"x_min":0,"x_max":0,"o":"m 640 1054 l 779 1193 l 743 1228 l 606 1089 z m 669 629 l 908 -24 l 944 -24 l 1297 933 l 1251 951 l 928 75 l 925 75 l 694 707 l 694 843 l 644 843 l 644 708 l 411 75 l 408 75 l 92 943 l 38 943 l 38 893 l 57 893 l 390 -24 l 428 -24 l 668 629 z "},"ẃ":{"ha":1115,"x_min":0,"x_max":0,"o":"m 347 72 l 90 644 l 38 644 l 38 596 l 58 596 l 331 -11 l 364 -11 l 571 446 l 776 -11 l 811 -11 l 1100 635 l 1056 654 l 793 72 l 596 513 l 596 619 l 546 619 l 546 513 z m 542 757 l 681 896 l 644 931 l 507 792 z "},"Ẅ":{"ha":1339,"x_min":0,"x_max":0,"o":"m 775 1122 b 818 1079 775 1099 794 1079 b 863 1122 842 1079 863 1099 b 818 1165 863 1146 842 1165 b 775 1122 794 1165 775 1146 z m 483 1122 b 526 1079 483 1099 503 1079 b 571 1122 550 1079 571 1099 b 526 1165 571 1146 550 1165 b 483 1122 503 1165 483 1146 z m 669 629 l 908 -24 l 944 -24 l 1297 933 l 1251 951 l 928 75 l 925 75 l 694 707 l 694 843 l 644 843 l 644 708 l 411 75 l 408 75 l 92 943 l 38 943 l 38 893 l 57 893 l 390 -24 l 428 -24 l 668 629 z "},"ẅ":{"ha":1115,"x_min":0,"x_max":0,"o":"m 675 825 b 719 781 675 801 696 781 b 763 825 743 781 763 801 b 719 868 763 849 743 868 b 675 825 696 868 675 849 z m 385 825 b 428 781 385 801 404 781 b 471 825 451 781 471 801 b 428 868 471 849 451 868 b 385 825 404 868 385 849 z m 347 72 l 90 644 l 38 644 l 38 596 l 58 596 l 331 -11 l 364 -11 l 571 446 l 776 -11 l 811 -11 l 1100 635 l 1056 654 l 793 72 l 596 513 l 596 619 l 546 619 l 546 513 z "},"Ẇ":{"ha":1339,"x_min":0,"x_max":0,"o":"m 626 1147 b 669 1104 626 1124 646 1104 b 713 1147 693 1104 713 1124 b 669 1190 713 1171 693 1190 b 626 1147 646 1190 626 1171 z m 669 629 l 908 -24 l 944 -24 l 1297 933 l 1251 951 l 928 75 l 925 75 l 694 707 l 694 843 l 644 843 l 644 708 l 411 75 l 408 75 l 92 943 l 38 943 l 38 893 l 57 893 l 390 -24 l 428 -24 l 668 629 z "},"ẇ":{"ha":1115,"x_min":0,"x_max":0,"o":"m 526 850 b 571 806 526 826 547 806 b 614 850 594 806 614 826 b 571 893 614 874 594 893 b 526 850 547 893 526 874 z m 347 72 l 90 644 l 38 644 l 38 596 l 58 596 l 331 -11 l 364 -11 l 571 446 l 776 -11 l 811 -11 l 1100 635 l 1056 654 l 793 72 l 596 513 l 596 619 l 546 619 l 546 513 z "},"Ẏ":{"ha":843,"x_min":0,"x_max":0,"o":"m 378 1147 b 422 1104 378 1124 399 1104 b 465 1147 446 1104 465 1124 b 422 1190 465 1171 446 1190 b 378 1147 399 1190 378 1171 z m 422 396 l 421 396 l 88 943 l 38 943 l 38 893 l 61 893 l 397 339 l 397 0 l 446 0 l 446 339 l 804 931 l 760 956 z "},"ẏ":{"ha":743,"x_min":0,"x_max":0,"o":"m 329 850 b 372 806 329 826 349 806 b 415 850 396 806 415 826 b 372 893 415 874 396 893 b 329 850 349 893 329 874 z m 719 613 l 719 644 l 669 644 l 669 625 l 374 10 l 372 10 l 90 644 l 38 644 l 38 596 l 58 596 l 344 -50 l 300 -143 b 179 -249 260 -225 217 -249 b 75 -186 139 -249 99 -219 l 75 -175 l 25 -175 l 25 -201 l 29 -207 b 179 -297 57 -249 113 -297 b 344 -165 239 -297 299 -261 z "},"ẞ":{"ha":892,"x_min":0,"x_max":0,"o":"m 297 121 l 297 136 l 249 136 l 249 103 l 253 97 b 546 -12 313 18 440 -12 b 843 161 715 -12 843 57 b 347 508 843 396 347 336 b 588 640 347 613 478 640 b 692 632 621 640 656 638 l 719 632 l 719 701 b 397 956 719 875 553 956 b 99 744 253 956 99 888 l 99 644 l 50 644 l 50 596 l 99 596 l 99 0 l 149 0 l 149 744 b 397 906 149 843 264 906 b 669 701 536 906 669 836 l 669 685 b 588 689 640 688 614 689 b 297 508 432 689 297 640 b 793 161 297 286 793 349 b 546 38 793 86 679 38 b 297 121 440 38 342 68 z "},"Ỳ":{"ha":843,"x_min":0,"x_max":0,"o":"m 422 396 l 421 396 l 88 943 l 38 943 l 38 893 l 61 893 l 397 339 l 397 0 l 446 0 l 446 339 l 801 928 l 758 953 z m 453 1054 l 488 1089 l 350 1228 l 314 1193 z "},"ỳ":{"ha":743,"x_min":0,"x_max":0,"o":"m 403 757 l 438 792 l 300 931 l 264 896 z m 719 613 l 719 644 l 669 644 l 669 625 l 374 10 l 372 10 l 90 644 l 38 644 l 38 596 l 58 596 l 344 -50 l 300 -143 b 179 -249 260 -225 217 -249 b 75 -186 139 -249 99 -219 l 75 -175 l 25 -175 l 25 -201 l 29 -207 b 179 -297 57 -249 113 -297 b 344 -165 239 -297 299 -261 z "}," ":{"ha":644,"x_min":0,"x_max":0,"o":""}," ":{"ha":1239,"x_min":0,"x_max":0,"o":""}," ":{"ha":644,"x_min":0,"x_max":0,"o":""}," ":{"ha":1239,"x_min":0,"x_max":0,"o":""}," ":{"ha":446,"x_min":0,"x_max":0,"o":""}," ":{"ha":347,"x_min":0,"x_max":0,"o":""}," ":{"ha":197,"x_min":0,"x_max":0,"o":""}," ":{"ha":743,"x_min":0,"x_max":0,"o":""}," ":{"ha":247,"x_min":0,"x_max":0,"o":""}," ":{"ha":247,"x_min":0,"x_max":0,"o":""}," ":{"ha":99,"x_min":0,"x_max":0,"o":""},"​":{"ha":0,"x_min":0,"x_max":0,"o":""},"‐":{"ha":446,"x_min":0,"x_max":0,"o":"m 397 347 l 397 397 l 50 397 l 50 347 z "},"‑":{"ha":446,"x_min":0,"x_max":0,"o":"m 397 347 l 397 397 l 50 397 l 50 347 z "},"‒":{"ha":743,"x_min":0,"x_max":0,"o":"m 694 347 l 694 397 l 50 397 l 50 347 z "},"–":{"ha":644,"x_min":0,"x_max":0,"o":"m 596 347 l 596 397 l 50 397 l 50 347 z "},"—":{"ha":1239,"x_min":0,"x_max":0,"o":"m 1190 347 l 1190 397 l 50 397 l 50 347 z "},"―":{"ha":1389,"x_min":0,"x_max":0,"o":"m 1339 347 l 1339 397 l 50 397 l 50 347 z "},"‘":{"ha":247,"x_min":0,"x_max":0,"o":"m 174 806 b 143 847 174 824 160 842 b 192 957 143 894 164 929 l 169 979 b 86 806 121 931 86 869 b 131 763 86 782 107 763 b 174 806 154 763 174 782 z "},"’":{"ha":247,"x_min":0,"x_max":0,"o":"m 75 936 b 106 896 75 918 89 901 b 56 785 106 849 83 813 l 78 763 b 161 936 126 811 161 872 b 118 979 161 960 142 979 b 75 936 94 979 75 960 z "},"‚":{"ha":247,"x_min":0,"x_max":0,"o":"m 75 31 b 106 -10 75 13 89 -4 b 56 -121 106 -57 83 -93 l 78 -143 b 161 31 126 -94 161 -33 b 118 75 161 54 142 75 b 75 31 94 75 75 54 z "},"‛":{"ha":247,"x_min":0,"x_max":0,"o":"m 143 936 b 99 979 143 960 122 979 b 56 936 75 979 56 960 b 139 763 56 872 90 811 l 161 785 b 111 896 133 813 111 849 b 143 936 128 901 143 918 z "},"“":{"ha":396,"x_min":0,"x_max":0,"o":"m 174 806 b 143 847 174 824 160 842 b 192 957 143 894 164 929 l 169 979 b 86 806 121 931 86 869 b 131 763 86 782 107 763 b 174 806 154 763 174 782 z m 322 806 b 292 847 322 824 308 842 b 342 957 292 894 314 929 l 318 979 b 236 806 269 931 236 869 b 279 763 236 782 256 763 b 322 806 303 763 322 782 z "},"”":{"ha":396,"x_min":0,"x_max":0,"o":"m 224 936 b 254 896 224 918 238 901 b 204 785 254 849 232 813 l 226 763 b 310 936 275 811 310 872 b 267 981 310 960 290 981 b 224 936 243 981 224 960 z m 75 936 b 106 896 75 918 89 901 b 56 785 106 849 83 813 l 78 763 b 161 936 126 811 161 872 b 118 981 161 960 142 981 b 75 936 94 981 75 960 z "},"„":{"ha":396,"x_min":0,"x_max":0,"o":"m 224 31 b 254 -10 224 13 238 -4 b 204 -121 254 -57 232 -93 l 226 -143 b 310 31 275 -94 310 -33 b 267 75 310 54 290 75 b 224 31 243 75 224 54 z m 75 31 b 106 -10 75 13 89 -4 b 56 -121 106 -57 83 -93 l 78 -143 b 161 31 126 -94 161 -33 b 118 75 161 54 142 75 b 75 31 94 75 75 54 z "},"‟":{"ha":396,"x_min":0,"x_max":0,"o":"m 143 936 b 99 979 143 960 122 979 b 56 936 75 979 56 960 b 139 763 56 872 90 811 l 161 785 b 111 896 133 813 111 849 b 143 936 128 901 143 918 z m 292 936 b 249 979 292 960 272 979 b 204 936 225 979 204 960 b 288 763 204 872 239 811 l 310 785 b 261 896 282 813 261 849 b 292 936 278 901 292 918 z "},"†":{"ha":743,"x_min":0,"x_max":0,"o":"m 50 583 l 347 596 l 335 -199 l 410 -199 l 397 596 l 694 583 l 694 657 l 397 644 l 410 943 l 335 943 l 347 644 l 50 657 z "},"‡":{"ha":743,"x_min":0,"x_max":0,"o":"m 50 583 l 347 596 l 347 372 l 347 149 l 50 161 l 50 86 l 347 99 l 335 -199 l 410 -199 l 397 99 l 694 86 l 694 161 l 397 149 l 397 372 l 397 596 l 694 583 l 694 657 l 397 644 l 410 943 l 335 943 l 347 644 l 50 657 z "},"•":{"ha":347,"x_min":0,"x_max":0,"o":"m 50 322 b 174 199 50 254 106 199 b 297 322 242 199 297 254 b 174 446 297 390 242 446 b 50 322 106 446 50 390 z "},"‣":{"ha":297,"x_min":0,"x_max":0,"o":"m 50 446 l 50 199 l 249 322 z "},"․":{"ha":247,"x_min":0,"x_max":0,"o":"m 75 31 b 118 -12 75 7 94 -12 b 161 31 142 -12 161 7 b 118 75 161 54 142 75 b 75 31 94 75 75 54 z "},"‥":{"ha":446,"x_min":0,"x_max":0,"o":"m 272 31 b 317 -12 272 7 293 -12 b 360 31 340 -12 360 7 b 317 75 360 54 340 75 b 272 31 293 75 272 54 z m 75 31 b 118 -12 75 7 94 -12 b 161 31 142 -12 161 7 b 118 75 161 54 142 75 b 75 31 94 75 75 54 z "},"…":{"ha":644,"x_min":0,"x_max":0,"o":"m 471 31 b 515 -12 471 7 492 -12 b 558 31 539 -12 558 7 b 515 75 558 54 539 75 b 471 31 492 75 471 54 z m 272 31 b 317 -12 272 7 293 -12 b 360 31 340 -12 360 7 b 317 75 360 54 340 75 b 272 31 293 75 272 54 z m 75 31 b 118 -12 75 7 94 -12 b 161 31 142 -12 161 7 b 118 75 161 54 142 75 b 75 31 94 75 75 54 z "},"‰":{"ha":1339,"x_min":0,"x_max":0,"o":"m 775 860 l 81 65 l 118 33 l 813 828 z m 397 719 b 224 893 397 806 339 893 b 50 719 108 893 50 806 b 224 546 50 632 110 546 b 397 719 338 546 397 632 z m 224 843 b 347 719 310 843 347 781 b 224 596 347 657 310 596 b 99 719 138 596 99 657 b 224 843 99 779 138 843 z m 843 174 b 669 347 843 260 785 347 b 496 174 554 347 496 260 b 669 0 496 86 556 0 b 843 174 783 0 843 86 z m 669 297 b 793 174 756 297 793 235 b 669 50 793 111 756 50 b 546 174 583 50 546 111 b 669 297 546 233 583 297 z m 1290 174 b 1117 347 1290 260 1232 347 b 943 174 1001 347 943 260 b 1117 0 943 86 1003 0 b 1290 174 1231 0 1290 86 z m 1117 297 b 1240 174 1203 297 1240 235 b 1117 50 1240 111 1203 50 b 992 174 1031 50 992 111 b 1117 297 992 233 1031 297 z "},"‹":{"ha":297,"x_min":0,"x_max":0,"o":"m 86 324 l 249 521 l 210 553 l 38 342 l 38 303 l 210 94 l 249 125 l 86 319 z "},"›":{"ha":297,"x_min":0,"x_max":0,"o":"m 211 324 l 211 319 l 50 125 l 88 94 l 261 303 l 261 342 l 88 553 l 50 521 z "},"⁄":{"ha":149,"x_min":0,"x_max":0,"o":"m 403 860 l -292 65 l -254 33 l 440 828 z "},"⁰":{"ha":496,"x_min":0,"x_max":0,"o":"m 446 868 b 249 1154 446 1015 367 1154 b 50 868 131 1154 50 1015 b 249 583 50 721 131 583 b 446 868 367 583 446 721 z m 249 1104 b 397 868 333 1104 397 993 b 249 632 397 746 335 632 b 99 868 164 632 99 743 b 249 1104 99 990 163 1104 z "},"⁴":{"ha":446,"x_min":0,"x_max":0,"o":"m 297 943 l 297 744 l 90 744 b 257 1142 207 922 257 1019 l 207 1142 b 29 742 207 1032 160 939 l 25 736 l 25 694 l 297 694 l 297 596 l 347 596 l 347 694 l 397 694 l 397 744 l 347 744 l 347 943 z "},"⁵":{"ha":446,"x_min":0,"x_max":0,"o":"m 50 864 l 99 856 b 224 943 115 907 181 943 b 347 788 292 943 347 874 b 217 632 347 701 289 632 b 99 694 174 632 122 657 l 99 704 l 50 704 l 50 689 l 50 682 l 53 676 b 217 583 86 615 160 583 b 397 788 315 583 397 675 b 224 992 397 900 319 992 b 104 946 189 992 142 975 l 114 1092 l 310 1092 l 310 1064 l 360 1064 l 360 1142 l 67 1142 l 65 1118 b 50 864 60 1033 56 949 z "},"⁶":{"ha":446,"x_min":0,"x_max":0,"o":"m 99 782 b 231 931 99 867 160 931 b 347 782 292 931 347 868 b 231 632 347 696 292 632 b 99 782 160 632 99 697 z m 231 979 b 99 918 178 979 131 956 b 224 1104 110 1019 143 1104 b 318 1061 261 1104 296 1088 l 318 1050 l 367 1050 l 367 1078 l 363 1085 b 224 1154 331 1126 281 1154 b 50 810 57 1154 50 921 l 50 782 b 231 583 50 674 129 583 b 397 782 326 583 397 676 b 231 979 397 888 326 979 z "},"⁷":{"ha":396,"x_min":0,"x_max":0,"o":"m 25 1142 l 25 1067 l 74 1067 l 74 1092 l 308 1092 l 265 1033 b 149 596 167 900 149 725 l 199 596 b 306 1003 199 726 218 882 l 376 1100 l 376 1142 z "},"⁸":{"ha":446,"x_min":0,"x_max":0,"o":"m 367 1014 b 224 1154 367 1092 303 1154 b 79 1014 144 1154 79 1092 b 151 900 79 967 110 924 l 151 899 b 50 753 90 872 50 817 b 224 583 50 658 128 583 b 397 753 319 583 397 658 b 294 899 397 817 356 872 l 294 900 b 367 1014 336 924 367 967 z m 347 753 b 224 632 347 688 293 632 b 99 753 154 632 99 688 b 224 874 99 818 154 874 b 347 753 293 874 347 818 z m 129 1014 b 224 1104 129 1064 171 1104 b 318 1014 276 1104 318 1064 b 224 922 318 964 276 922 b 129 1014 171 922 129 964 z "},"⁹":{"ha":446,"x_min":0,"x_max":0,"o":"m 347 956 b 215 807 347 871 286 807 b 99 956 154 807 99 869 b 215 1104 99 1042 154 1104 b 347 956 286 1104 347 1040 z m 215 757 b 347 818 268 757 315 781 b 224 632 336 717 304 632 b 129 676 186 632 151 650 l 129 686 l 79 686 l 79 658 l 85 653 b 224 583 117 611 167 583 b 397 926 390 583 397 815 l 397 956 b 215 1154 397 1064 317 1154 b 50 956 119 1154 50 1061 b 215 757 50 850 119 757 z "},"₀":{"ha":496,"x_min":0,"x_max":0,"o":"m 446 -25 b 249 261 446 122 367 261 b 50 -25 131 261 50 122 b 249 -310 50 -172 131 -310 b 446 -25 367 -310 446 -172 z m 249 211 b 397 -25 333 211 397 100 b 249 -261 397 -147 335 -261 b 99 -25 164 -261 99 -150 b 249 211 99 97 163 211 z "},"₁":{"ha":247,"x_min":0,"x_max":0,"o":"m 99 167 l 99 -297 l 149 -297 l 149 249 l 106 249 l 39 172 l 75 140 z "},"₂":{"ha":446,"x_min":0,"x_max":0,"o":"m 397 -297 l 397 -225 l 347 -225 l 347 -249 l 132 -249 l 276 -115 b 397 86 361 -36 397 22 b 224 261 397 182 319 261 b 50 86 128 261 50 182 l 99 86 b 224 211 99 154 156 211 b 347 86 292 211 347 154 b 243 -78 347 43 325 -3 l 50 -256 l 50 -297 z "},"₃":{"ha":446,"x_min":0,"x_max":0,"o":"m 99 -140 l 50 -140 b 224 -310 50 -235 128 -310 b 397 -140 319 -310 397 -235 b 294 6 397 -76 356 -21 l 294 7 b 367 121 336 31 367 74 b 224 261 367 199 303 261 b 79 121 144 261 79 199 l 129 121 b 224 211 129 171 171 211 b 318 121 276 211 318 171 b 224 29 318 71 276 29 l 224 -19 b 347 -140 293 -19 347 -75 b 224 -261 347 -206 293 -261 b 99 -140 154 -261 99 -206 z "},"₄":{"ha":446,"x_min":0,"x_max":0,"o":"m 297 50 l 297 -149 l 90 -149 b 257 249 207 29 257 126 l 207 249 b 29 -151 207 139 160 46 l 25 -157 l 25 -199 l 297 -199 l 297 -297 l 347 -297 l 347 -199 l 397 -199 l 397 -149 l 347 -149 l 347 50 z "},"₅":{"ha":446,"x_min":0,"x_max":0,"o":"m 50 -29 l 99 -37 b 224 50 115 14 181 50 b 347 -106 292 50 347 -19 b 217 -261 347 -192 289 -261 b 99 -199 174 -261 122 -236 l 99 -189 l 50 -189 l 50 -204 l 50 -211 l 53 -217 b 217 -310 86 -278 160 -310 b 397 -106 315 -310 397 -218 b 224 99 397 7 319 99 b 104 53 189 99 142 82 l 114 199 l 310 199 l 310 171 l 360 171 l 360 249 l 67 249 l 65 225 b 50 -29 60 140 56 56 z "},"₆":{"ha":446,"x_min":0,"x_max":0,"o":"m 99 -111 b 231 38 99 -26 160 38 b 347 -111 292 38 347 -25 b 231 -261 347 -197 292 -261 b 99 -111 160 -261 99 -196 z m 231 86 b 99 25 178 86 131 63 b 224 211 110 126 143 211 b 318 168 261 211 296 194 l 318 157 l 367 157 l 367 185 l 363 192 b 224 261 331 233 281 261 b 50 -83 57 261 50 28 l 50 -111 b 231 -310 50 -219 129 -310 b 397 -111 326 -310 397 -217 b 231 86 397 -6 326 86 z "},"₇":{"ha":396,"x_min":0,"x_max":0,"o":"m 25 249 l 25 174 l 74 174 l 74 199 l 308 199 l 265 140 b 149 -297 167 7 149 -168 l 199 -297 b 306 110 199 -167 218 -11 l 376 207 l 376 249 z "},"₈":{"ha":446,"x_min":0,"x_max":0,"o":"m 367 121 b 224 261 367 199 303 261 b 79 121 144 261 79 199 b 151 7 79 74 110 31 l 151 6 b 50 -140 90 -21 50 -76 b 224 -310 50 -235 128 -310 b 397 -140 319 -310 397 -235 b 294 6 397 -76 356 -21 l 294 7 b 367 121 336 31 367 74 z m 347 -140 b 224 -261 347 -206 293 -261 b 99 -140 154 -261 99 -206 b 224 -19 99 -75 154 -19 b 347 -140 293 -19 347 -75 z m 129 121 b 224 211 129 171 171 211 b 318 121 276 211 318 171 b 224 29 318 71 276 29 b 129 121 171 29 129 71 z "},"₉":{"ha":446,"x_min":0,"x_max":0,"o":"m 347 63 b 215 -86 347 -22 286 -86 b 99 63 154 -86 99 -24 b 215 211 99 149 154 211 b 347 63 286 211 347 147 z m 215 -136 b 347 -75 268 -136 315 -112 b 224 -261 336 -176 304 -261 b 129 -217 186 -261 151 -243 l 129 -207 l 79 -207 l 79 -235 l 85 -240 b 224 -310 117 -282 167 -310 b 397 33 390 -310 397 -78 l 397 63 b 215 261 397 171 317 261 b 50 63 119 261 50 168 b 215 -136 50 -43 119 -136 z "},"€":{"ha":942,"x_min":0,"x_max":0,"o":"m 167 347 l 632 347 l 639 397 l 156 397 b 149 471 151 422 149 446 b 150 496 149 479 150 488 l 657 496 l 664 546 l 156 546 b 596 918 192 757 374 918 b 843 842 688 918 772 889 l 843 818 l 893 818 l 893 868 l 883 875 b 596 967 803 933 703 967 b 104 546 347 967 140 785 l 56 546 l 50 496 l 99 496 l 99 471 b 104 397 99 446 100 422 l 31 397 l 25 347 l 115 347 b 596 -25 169 133 365 -25 b 883 67 703 -25 803 10 l 853 107 b 596 25 779 54 693 25 b 167 347 393 25 219 161 z "},"™":{"ha":1389,"x_min":0,"x_max":0,"o":"m 546 943 l 99 943 l 99 893 l 297 893 l 297 347 l 347 347 l 347 893 l 546 893 z m 907 332 l 953 332 l 1185 836 l 1247 353 l 1296 360 l 1219 946 l 1181 946 l 929 400 l 678 946 l 639 946 l 572 397 l 571 397 l 571 347 l 617 347 l 675 835 z "},"Ω":{"ha":1042,"x_min":0,"x_max":0,"o":"m 943 0 l 943 50 l 694 50 l 694 57 b 992 496 868 126 992 297 b 521 967 992 757 782 967 b 50 496 260 967 50 757 b 347 57 50 297 174 126 l 347 50 l 99 50 l 99 0 l 397 0 l 397 92 l 365 104 b 99 496 210 167 99 317 b 521 918 99 728 289 918 b 943 496 754 918 943 729 b 676 104 943 317 832 167 l 644 92 l 644 0 z "},"←":{"ha":992,"x_min":0,"x_max":0,"o":"m 119 347 l 261 521 l 222 551 l 50 342 l 50 303 l 222 93 l 261 124 l 119 297 l 943 297 l 943 347 z "},"↑":{"ha":544,"x_min":0,"x_max":0,"o":"m 297 824 l 471 682 l 503 721 l 293 893 l 253 893 l 43 721 l 75 682 l 249 824 l 249 0 l 297 0 z "},"→":{"ha":992,"x_min":0,"x_max":0,"o":"m 50 297 l 874 297 l 732 124 l 769 93 l 943 303 l 943 342 l 769 551 l 732 521 l 874 347 l 50 347 z "},"↓":{"ha":544,"x_min":0,"x_max":0,"o":"m 249 893 l 249 69 l 75 211 l 43 172 l 253 0 l 293 0 l 503 172 l 471 211 l 297 69 l 297 893 z "},"↔":{"ha":992,"x_min":0,"x_max":0,"o":"m 874 297 l 732 124 l 769 93 l 943 303 l 943 342 l 769 551 l 732 521 l 874 347 l 119 347 l 261 521 l 222 551 l 50 342 l 50 303 l 222 93 l 261 124 l 119 297 z "},"↕":{"ha":544,"x_min":0,"x_max":0,"o":"m 297 824 l 471 682 l 503 721 l 293 893 l 253 893 l 43 721 l 75 682 l 249 824 l 249 69 l 75 211 l 43 172 l 253 0 l 293 0 l 503 172 l 471 211 l 297 69 z "},"⇐":{"ha":992,"x_min":0,"x_max":0,"o":"m 99 324 l 158 397 l 943 397 l 943 446 l 200 446 l 261 521 l 222 551 l 50 342 l 50 303 l 222 93 l 261 124 l 200 199 l 943 199 l 943 249 l 158 249 l 99 321 z "},"⇑":{"ha":544,"x_min":0,"x_max":0,"o":"m 274 843 l 347 783 l 347 0 l 397 0 l 397 743 l 471 682 l 503 721 l 293 893 l 253 893 l 43 721 l 75 682 l 149 743 l 149 0 l 199 0 l 199 783 l 272 843 z "},"⇒":{"ha":992,"x_min":0,"x_max":0,"o":"m 793 446 l 50 446 l 50 397 l 833 397 l 893 324 l 893 321 l 833 249 l 50 249 l 50 199 l 793 199 l 732 124 l 769 93 l 943 303 l 943 342 l 769 551 l 732 521 z "},"⇓":{"ha":544,"x_min":0,"x_max":0,"o":"m 397 150 l 397 893 l 347 893 l 347 110 l 274 50 l 272 50 l 199 110 l 199 893 l 149 893 l 149 150 l 75 211 l 43 172 l 253 0 l 293 0 l 503 172 l 471 211 z "},"⇔":{"ha":992,"x_min":0,"x_max":0,"o":"m 793 446 z m 793 199 z m 833 397 l 893 324 l 893 321 l 833 249 l 158 249 l 99 321 l 99 324 l 158 397 z m 793 446 l 200 446 l 261 521 l 222 551 l 50 342 l 50 303 l 222 93 l 261 124 l 200 199 l 793 199 l 732 124 l 769 93 l 943 303 l 943 342 l 769 551 l 732 521 z "},"⇕":{"ha":544,"x_min":0,"x_max":0,"o":"m 397 743 l 471 682 l 503 721 l 293 893 l 253 893 l 43 721 l 75 682 l 149 743 l 149 150 l 75 211 l 43 172 l 253 0 l 293 0 l 503 172 l 471 211 l 397 150 z m 274 843 l 347 783 l 347 110 l 274 50 l 272 50 l 199 110 l 199 783 l 272 843 z "},"∂":{"ha":644,"x_min":0,"x_max":0,"o":"m 326 619 b 543 518 388 619 476 582 b 546 439 546 492 546 465 b 294 25 546 188 449 25 b 99 296 204 25 99 113 b 326 619 99 511 228 619 z m 533 593 b 331 669 469 640 393 669 b 50 294 197 669 50 532 b 293 -25 50 92 171 -25 b 596 439 478 -25 596 163 b 331 918 596 643 539 918 b 188 865 282 918 232 900 l 179 858 l 176 818 l 225 818 l 225 833 b 328 868 257 856 296 868 b 533 593 446 868 508 744 z "},"∅":{"ha":992,"x_min":0,"x_max":0,"o":"m 142 57 l 199 114 b 496 0 278 43 382 0 b 943 446 743 0 943 199 b 829 744 943 560 900 665 l 886 800 l 850 835 l 794 779 b 496 893 715 850 611 893 b 50 446 249 893 50 693 b 164 149 50 332 93 228 l 107 92 z m 793 708 b 893 446 856 639 893 546 b 496 50 893 226 715 50 b 233 149 396 50 303 86 z m 758 744 l 199 183 b 99 446 136 253 99 346 b 496 843 99 665 276 843 b 758 744 597 843 689 807 z "},"∆":{"ha":694,"x_min":0,"x_max":0,"o":"m 388 793 l 307 793 l 38 0 l 657 0 z m 350 744 l 589 50 l 106 50 l 344 744 z "},"∊":{"ha":644,"x_min":0,"x_max":0,"o":"m 150 347 b 372 546 163 458 258 546 l 546 546 l 546 596 l 372 596 b 99 322 222 596 99 472 b 372 50 99 172 222 51 l 546 50 l 546 99 l 372 99 b 150 297 258 100 163 186 l 546 297 l 546 347 z "},"∏":{"ha":843,"x_min":0,"x_max":0,"o":"m 50 -249 l 99 -249 l 99 893 l 744 893 l 744 -249 l 793 -249 l 793 943 l 50 943 z "},"∑":{"ha":843,"x_min":0,"x_max":0,"o":"m 793 -174 l 744 -174 l 744 -199 l 124 -199 l 603 331 l 603 364 l 124 893 l 744 893 l 744 868 l 793 868 l 793 943 l 50 943 l 50 900 l 550 347 l 50 -206 l 50 -249 l 793 -249 z "},"−":{"ha":644,"x_min":0,"x_max":0,"o":"m 596 446 l 596 496 l 50 496 l 50 446 z "},"√":{"ha":694,"x_min":0,"x_max":0,"o":"m 38 257 l 50 210 l 160 238 l 256 -28 l 300 -28 l 590 943 l 694 943 l 694 992 l 553 992 l 275 64 l 192 296 z "},"∞":{"ha":1389,"x_min":0,"x_max":0,"o":"m 660 347 l 653 340 b 322 149 564 251 475 149 b 99 347 178 149 99 238 b 322 546 99 458 179 546 b 653 354 476 546 564 443 z m 729 347 l 736 354 b 1067 546 825 443 913 546 b 1290 347 1210 546 1290 458 b 1067 149 1290 238 1211 149 b 736 340 914 149 825 251 z m 688 306 l 694 313 l 701 306 b 1067 99 786 221 888 99 b 1339 347 1239 99 1339 211 b 1067 596 1339 483 1238 596 b 701 389 888 596 786 474 l 694 382 l 688 389 b 322 596 603 474 501 596 b 50 347 151 596 50 483 b 322 99 50 211 150 99 b 688 306 501 99 603 221 z "},"∧":{"ha":694,"x_min":0,"x_max":0,"o":"m 349 496 l 599 86 l 642 111 l 376 546 l 318 546 l 53 111 l 96 86 l 346 496 z "},"∨":{"ha":694,"x_min":0,"x_max":0,"o":"m 642 533 l 599 558 l 349 149 l 346 149 l 96 558 l 53 533 l 318 99 l 376 99 z "},"∩":{"ha":644,"x_min":0,"x_max":0,"o":"m 50 272 l 50 99 l 99 99 l 99 272 b 322 494 100 394 200 494 b 546 272 444 494 546 394 l 546 99 l 596 99 l 596 272 b 322 544 596 422 472 544 b 50 272 172 544 51 422 z "},"∪":{"ha":644,"x_min":0,"x_max":0,"o":"m 99 372 l 99 546 l 50 546 l 50 372 b 322 99 51 222 172 99 b 596 372 472 99 596 222 l 596 546 l 546 546 l 546 372 b 322 149 546 250 444 149 b 99 372 200 149 100 250 z "},"∫":{"ha":499,"x_min":0,"x_max":0,"o":"m 131 -199 b 90 -186 114 -199 100 -193 l 61 -225 b 131 -249 83 -242 110 -249 b 249 -132 194 -249 246 -196 l 297 922 b 365 992 300 963 328 992 b 406 979 382 992 396 986 l 435 1019 b 365 1042 413 1036 386 1042 b 249 925 301 1042 251 989 l 199 -129 b 131 -199 196 -169 168 -199 z "},"∬":{"ha":743,"x_min":0,"x_max":0,"o":"m 378 -199 b 339 -186 361 -199 349 -193 l 308 -225 b 378 -249 331 -242 357 -249 b 496 -132 442 -249 493 -196 l 546 922 b 614 992 549 963 576 992 b 654 979 631 992 644 986 l 683 1019 b 614 1042 661 1036 635 1042 b 496 925 550 1042 499 989 l 446 -129 b 378 -199 443 -169 415 -199 z m 121 -199 b 81 -186 104 -199 90 -193 l 51 -225 b 121 -249 74 -242 100 -249 b 238 -132 185 -249 235 -196 l 288 922 b 356 992 290 963 318 992 b 396 979 372 992 386 986 l 425 1019 b 356 1042 403 1036 376 1042 b 238 925 292 1042 240 989 l 189 -129 b 121 -199 186 -169 158 -199 z "},"∭":{"ha":994,"x_min":0,"x_max":0,"o":"m 131 -199 b 90 -186 114 -199 100 -193 l 61 -225 b 131 -249 83 -242 110 -249 b 249 -132 194 -249 246 -196 l 297 922 b 365 992 300 963 328 992 b 406 979 382 992 396 986 l 435 1019 b 365 1042 413 1036 386 1042 b 249 925 301 1042 251 989 l 199 -129 b 131 -199 196 -169 168 -199 z m 378 -199 b 339 -186 361 -199 349 -193 l 308 -225 b 378 -249 331 -242 357 -249 b 496 -132 442 -249 493 -196 l 546 922 b 614 992 549 963 576 992 b 654 979 631 992 644 986 l 683 1019 b 614 1042 661 1036 635 1042 b 496 925 550 1042 499 989 l 446 -129 b 378 -199 443 -169 415 -199 z m 626 -199 b 586 -186 610 -199 596 -193 l 557 -225 b 626 -249 579 -242 606 -249 b 744 -132 690 -249 742 -196 l 793 922 b 863 992 796 963 825 992 b 901 979 879 992 892 986 l 932 1019 b 863 1042 910 1036 883 1042 b 744 925 799 1042 747 989 l 694 -129 b 626 -199 692 -169 664 -199 z "},"∼":{"ha":544,"x_min":0,"x_max":0,"o":"m 408 411 b 433 419 418 411 426 415 b 500 499 467 435 488 465 l 453 515 b 414 464 440 481 424 469 b 408 461 411 463 410 461 b 364 474 400 461 386 467 l 199 531 b 138 546 179 536 157 546 b 111 539 135 546 126 544 b 46 458 82 526 58 494 l 93 444 b 132 493 103 474 121 488 b 138 496 135 494 135 496 b 181 483 146 496 158 490 l 347 426 b 408 411 367 419 389 411 z "},"∽":{"ha":544,"x_min":0,"x_max":0,"o":"m 138 411 b 199 426 157 411 179 419 l 364 483 b 408 496 386 490 400 496 b 414 493 411 496 411 494 b 453 444 425 488 443 474 l 500 458 b 433 539 488 494 463 526 b 408 546 418 544 411 546 b 347 531 389 546 367 536 l 181 474 b 138 461 158 467 146 461 b 132 464 136 461 135 463 b 93 515 122 469 106 481 l 46 499 b 111 419 58 465 78 435 b 138 411 118 415 128 411 z "},"≈":{"ha":544,"x_min":0,"x_max":0,"o":"m 142 610 b 42 521 94 610 51 582 l 92 514 b 142 561 94 526 101 561 b 179 550 153 561 164 556 l 344 496 b 406 481 367 489 386 481 b 503 571 458 481 493 517 l 454 579 b 406 531 451 568 446 531 b 367 540 396 531 383 535 l 201 596 b 142 610 182 603 161 610 z m 142 394 b 42 304 94 394 51 365 l 92 294 b 142 344 94 307 101 344 b 179 335 153 344 164 340 l 344 278 b 406 263 367 271 386 263 b 503 353 458 263 493 299 l 454 363 b 406 313 451 351 446 313 b 367 322 396 313 383 317 l 201 379 b 142 394 182 386 161 394 z "},"≠":{"ha":644,"x_min":0,"x_max":0,"o":"m 171 136 l 264 297 l 596 297 l 596 347 l 293 347 l 410 546 l 596 546 l 596 596 l 438 596 l 518 732 l 474 757 l 381 596 l 50 596 l 50 546 l 353 546 l 236 347 l 50 347 l 50 297 l 207 297 l 126 161 z "},"≤":{"ha":446,"x_min":0,"x_max":0,"o":"m 422 215 l 99 444 l 99 449 l 422 667 l 394 710 l 50 475 l 50 419 l 393 175 z m 422 50 l 422 99 l 50 99 l 50 50 z "},"≥":{"ha":446,"x_min":0,"x_max":0,"o":"m 50 215 l 78 175 l 422 419 l 422 475 l 76 710 l 50 667 l 372 449 l 372 444 z m 50 50 l 422 50 l 422 99 l 50 99 z "},"⊂":{"ha":644,"x_min":0,"x_max":0,"o":"m 372 50 l 546 50 l 546 99 l 372 99 b 149 322 250 100 149 200 b 372 546 149 444 250 546 l 546 546 l 546 596 l 372 596 b 99 322 222 596 99 472 b 372 50 99 172 222 51 z "},"⋀":{"ha":992,"x_min":0,"x_max":0,"o":"m 499 893 l 894 -244 l 942 -226 l 533 943 l 458 943 l 51 -226 l 99 -244 l 493 893 z "},"⋁":{"ha":992,"x_min":0,"x_max":0,"o":"m 942 921 l 894 939 l 499 -199 l 493 -199 l 99 939 l 51 921 l 458 -249 l 533 -249 z "},"⌀":{"ha":793,"x_min":0,"x_max":0,"o":"m 640 724 l 589 674 b 397 744 536 718 471 744 b 99 446 233 744 99 610 b 169 254 99 372 125 307 l 119 203 l 154 168 l 204 219 b 397 149 257 175 324 149 b 694 446 561 149 694 282 b 624 639 694 519 668 586 l 675 689 z m 554 639 l 204 289 b 149 446 169 332 149 386 b 397 694 149 582 261 694 b 554 639 457 694 511 674 z m 589 604 b 644 446 624 561 644 506 b 397 199 644 310 533 199 b 239 254 338 199 282 219 z "},"◊":{"ha":594,"x_min":0,"x_max":0,"o":"m 325 943 l 271 943 l 49 471 l 271 0 l 325 0 l 547 471 z m 297 60 l 103 471 l 297 883 l 492 471 z "},"":{"ha":594,"x_min":0,"x_max":0,"o":"m 50 596 l 149 596 l 149 199 b 360 -12 149 82 243 -12 b 542 93 438 -12 506 29 l 546 99 l 546 124 l 496 124 l 496 113 b 360 38 467 67 417 38 b 199 199 271 38 199 110 l 199 596 l 546 596 l 546 644 l 199 644 l 199 793 l 149 793 l 149 644 l 50 644 z "},"":{"ha":446,"x_min":0,"x_max":0,"o":"m 446 936 b 360 956 419 949 390 956 b 149 744 243 956 149 861 l 149 644 l 50 644 l 50 596 l 149 596 l 149 0 l 199 0 l 199 596 l 397 596 l 397 644 l 199 644 l 199 744 b 360 906 199 833 271 906 b 397 901 372 906 385 904 l 397 893 l 446 893 z "},"":{"ha":496,"x_min":0,"x_max":0,"o":"m 446 224 b 249 510 446 371 367 510 b 50 224 131 510 50 371 b 249 -61 50 76 131 -61 b 446 224 367 -61 446 76 z m 249 460 b 397 224 333 460 397 349 b 249 -12 397 101 335 -12 b 99 224 164 -12 99 99 b 249 460 99 346 163 460 z "},"":{"ha":247,"x_min":0,"x_max":0,"o":"m 99 415 l 99 -49 l 149 -49 l 149 497 l 106 497 l 39 421 l 75 389 z "},"":{"ha":446,"x_min":0,"x_max":0,"o":"m 397 -49 l 397 24 l 347 24 l 347 0 l 132 0 l 276 133 b 397 335 361 213 397 271 b 224 510 397 431 319 510 b 50 335 128 510 50 431 l 99 335 b 224 460 99 403 156 460 b 347 335 292 460 347 403 b 243 171 347 292 325 246 l 50 -7 l 50 -49 z "},"":{"ha":446,"x_min":0,"x_max":0,"o":"m 99 108 l 50 108 b 224 -61 50 14 128 -61 b 397 108 319 -61 397 14 b 294 254 397 172 356 228 l 294 256 b 367 369 336 279 367 322 b 224 510 367 447 303 510 b 79 369 144 510 79 447 l 129 369 b 224 460 129 419 171 460 b 318 369 276 460 318 419 b 224 278 318 319 276 278 l 224 229 b 347 108 293 229 347 174 b 224 -12 347 43 293 -12 b 99 108 154 -12 99 43 z "},"":{"ha":446,"x_min":0,"x_max":0,"o":"m 297 299 l 297 100 l 90 100 b 257 497 207 278 257 375 l 207 497 b 29 97 207 388 160 294 l 25 92 l 25 50 l 297 50 l 297 -49 l 347 -49 l 347 50 l 397 50 l 397 100 l 347 100 l 347 299 z "},"":{"ha":446,"x_min":0,"x_max":0,"o":"m 50 219 l 99 211 b 224 299 115 263 181 299 b 347 143 292 299 347 229 b 217 -12 347 57 289 -12 b 99 50 174 -12 122 13 l 99 60 l 50 60 l 50 44 l 50 38 l 53 32 b 217 -61 86 -29 160 -61 b 397 143 315 -61 397 31 b 224 347 397 256 319 347 b 104 301 189 347 142 331 l 114 447 l 310 447 l 310 419 l 360 419 l 360 497 l 67 497 l 65 474 b 50 219 60 389 56 304 z "},"":{"ha":446,"x_min":0,"x_max":0,"o":"m 99 138 b 231 286 99 222 160 286 b 347 138 292 286 347 224 b 231 -12 347 51 292 -12 b 99 138 160 -12 99 53 z m 231 335 b 99 274 178 335 131 311 b 224 460 110 375 143 460 b 318 417 261 460 296 443 l 318 406 l 367 406 l 367 433 l 363 440 b 224 510 331 482 281 510 b 50 165 57 510 50 276 l 50 138 b 231 -61 50 29 129 -61 b 397 138 326 -61 397 32 b 231 335 397 243 326 335 z "},"":{"ha":396,"x_min":0,"x_max":0,"o":"m 25 497 l 25 422 l 74 422 l 74 447 l 308 447 l 265 389 b 149 -49 167 256 149 81 l 199 -49 b 306 358 199 82 218 238 l 376 456 l 376 497 z "},"":{"ha":446,"x_min":0,"x_max":0,"o":"m 367 369 b 224 510 367 447 303 510 b 79 369 144 510 79 447 b 151 256 79 322 110 279 l 151 254 b 50 108 90 228 50 172 b 224 -61 50 14 128 -61 b 397 108 319 -61 397 14 b 294 254 397 172 356 228 l 294 256 b 367 369 336 279 367 322 z m 347 108 b 224 -12 347 43 293 -12 b 99 108 154 -12 99 43 b 224 229 99 174 154 229 b 347 108 293 229 347 174 z m 129 369 b 224 460 129 419 171 460 b 318 369 276 460 318 419 b 224 278 318 319 276 278 b 129 369 171 278 129 319 z "},"":{"ha":446,"x_min":0,"x_max":0,"o":"m 347 311 b 215 163 347 226 286 163 b 99 311 154 163 99 225 b 215 460 99 397 154 460 b 347 311 286 460 347 396 z m 215 113 b 347 174 268 113 315 136 b 224 -12 336 72 304 -12 b 129 32 186 -12 151 6 l 129 42 l 79 42 l 79 14 l 85 8 b 224 -61 117 -33 167 -61 b 397 282 390 -61 397 171 l 397 311 b 215 510 397 419 317 510 b 50 311 119 510 50 417 b 215 113 50 206 119 113 z "},"":{"ha":496,"x_min":0,"x_max":0,"o":"m 446 669 b 249 956 446 817 367 956 b 50 669 131 956 50 817 b 249 385 50 522 131 385 b 446 669 367 385 446 522 z m 249 906 b 397 669 333 906 397 794 b 249 433 397 547 335 433 b 99 669 164 433 99 544 b 249 906 99 792 163 906 z "},"":{"ha":247,"x_min":0,"x_max":0,"o":"m 99 861 l 99 397 l 149 397 l 149 943 l 106 943 l 39 867 l 75 835 z "},"":{"ha":446,"x_min":0,"x_max":0,"o":"m 397 397 l 397 469 l 347 469 l 347 446 l 132 446 l 276 579 b 397 781 361 658 397 717 b 224 956 397 876 319 956 b 50 781 128 956 50 876 l 99 781 b 224 906 99 849 156 906 b 347 781 292 906 347 849 b 243 617 347 738 325 692 l 50 439 l 50 397 z "},"":{"ha":446,"x_min":0,"x_max":0,"o":"m 99 554 l 50 554 b 224 385 50 460 128 385 b 397 554 319 385 397 460 b 294 700 397 618 356 674 l 294 701 b 367 815 336 725 367 768 b 224 956 367 893 303 956 b 79 815 144 956 79 893 l 129 815 b 224 906 129 865 171 906 b 318 815 276 906 318 865 b 224 724 318 765 276 724 l 224 675 b 347 554 293 675 347 619 b 224 433 347 489 293 433 b 99 554 154 433 99 489 z "},"":{"ha":446,"x_min":0,"x_max":0,"o":"m 297 744 l 297 546 l 90 546 b 257 943 207 724 257 821 l 207 943 b 29 543 207 833 160 740 l 25 538 l 25 496 l 297 496 l 297 397 l 347 397 l 347 496 l 397 496 l 397 546 l 347 546 l 347 744 z "},"":{"ha":446,"x_min":0,"x_max":0,"o":"m 50 665 l 99 657 b 224 744 115 708 181 744 b 347 589 292 744 347 675 b 217 433 347 503 289 433 b 99 496 174 433 122 458 l 99 506 l 50 506 l 50 490 l 50 483 l 53 478 b 217 385 86 417 160 385 b 397 589 315 385 397 476 b 224 793 397 701 319 793 b 104 747 189 793 142 776 l 114 893 l 310 893 l 310 865 l 360 865 l 360 943 l 67 943 l 65 919 b 50 665 60 835 56 750 z "},"":{"ha":446,"x_min":0,"x_max":0,"o":"m 99 583 b 231 732 99 668 160 732 b 347 583 292 732 347 669 b 231 433 347 497 292 433 b 99 583 160 433 99 499 z m 231 781 b 99 719 178 781 131 757 b 224 906 110 821 143 906 b 318 863 261 906 296 889 l 318 851 l 367 851 l 367 879 l 363 886 b 224 956 331 928 281 956 b 50 611 57 956 50 722 l 50 583 b 231 385 50 475 129 385 b 397 583 326 385 397 478 b 231 781 397 689 326 781 z "},"":{"ha":396,"x_min":0,"x_max":0,"o":"m 25 943 l 25 868 l 74 868 l 74 893 l 308 893 l 265 835 b 149 397 167 701 149 526 l 199 397 b 306 804 199 528 218 683 l 376 901 l 376 943 z "},"":{"ha":446,"x_min":0,"x_max":0,"o":"m 367 815 b 224 956 367 893 303 956 b 79 815 144 956 79 893 b 151 701 79 768 110 725 l 151 700 b 50 554 90 674 50 618 b 224 385 50 460 128 385 b 397 554 319 385 397 460 b 294 700 397 618 356 674 l 294 701 b 367 815 336 725 367 768 z m 347 554 b 224 433 347 489 293 433 b 99 554 154 433 99 489 b 224 675 99 619 154 675 b 347 554 293 675 347 619 z m 129 815 b 224 906 129 865 171 906 b 318 815 276 906 318 865 b 224 724 318 765 276 724 b 129 815 171 724 129 765 z "},"":{"ha":446,"x_min":0,"x_max":0,"o":"m 347 757 b 215 608 347 672 286 608 b 99 757 154 608 99 671 b 215 906 99 843 154 906 b 347 757 286 906 347 842 z m 215 558 b 347 619 268 558 315 582 b 224 433 336 518 304 433 b 129 478 186 433 151 451 l 129 488 l 79 488 l 79 460 l 85 454 b 224 385 117 413 167 385 b 397 728 390 385 397 617 l 397 757 b 215 956 397 865 317 956 b 50 757 119 956 50 863 b 215 558 50 651 119 558 z "},"":{"ha":322,"x_min":0,"x_max":0,"o":"m 174 850 b 218 806 174 826 194 806 b 261 850 242 806 261 826 b 218 893 261 874 242 893 b 174 850 194 893 174 874 z m 149 644 l 149 596 l 199 596 l 199 -111 b 63 -249 199 -186 138 -249 l 50 -249 l 50 -297 l 63 -297 b 249 -111 165 -297 249 -214 l 249 644 z "},"":{"ha":322,"x_min":0,"x_max":0,"o":"m 225 881 l 347 783 l 378 822 l 243 931 l 203 931 l 68 822 l 99 783 l 221 881 z m 149 644 l 149 596 l 199 596 l 199 -111 b 63 -249 199 -186 138 -249 l 50 -249 l 50 -297 l 63 -297 b 249 -111 165 -297 249 -214 l 249 644 z "},"":{"ha":322,"x_min":0,"x_max":0,"o":"m 149 644 l 149 596 l 199 596 l 199 -111 b 63 -249 199 -186 138 -249 l 50 -249 l 50 -297 l 63 -297 b 249 -111 165 -297 249 -214 l 249 644 z "},"":{"ha":594,"x_min":0,"x_max":0,"o":"m 50 596 l 149 596 l 149 199 b 288 0 149 107 207 29 l 261 -106 l 292 -114 b 350 -97 314 -104 326 -97 b 417 -174 394 -97 417 -136 b 344 -249 417 -211 394 -249 b 268 -208 311 -249 283 -233 l 236 -226 b 344 -285 258 -264 300 -285 b 467 -179 401 -285 467 -251 b 350 -60 467 -121 425 -60 b 311 -64 335 -60 324 -60 l 326 -10 b 360 -12 338 -11 349 -12 b 542 93 438 -12 506 29 l 546 99 l 546 124 l 496 124 l 496 113 b 360 38 467 67 417 38 b 199 199 271 38 199 110 l 199 596 l 546 596 l 546 644 l 199 644 l 199 793 l 149 793 l 149 644 l 50 644 z "},"":{"ha":594,"x_min":0,"x_max":0,"o":"m 50 596 l 149 596 l 149 446 l 99 446 l 99 397 l 149 397 l 149 199 b 360 -12 149 82 243 -12 b 542 93 438 -12 506 29 l 546 99 l 546 124 l 496 124 l 496 113 b 360 38 467 67 417 38 b 199 199 271 38 199 110 l 199 397 l 446 397 l 446 446 l 199 446 l 199 596 l 546 596 l 546 644 l 199 644 l 199 793 l 149 793 l 149 644 l 50 644 z "},"":{"ha":594,"x_min":0,"x_max":0,"o":"m 264 -125 b 294 -167 264 -143 278 -161 b 244 -278 294 -214 272 -250 l 267 -300 b 350 -125 315 -251 350 -189 b 307 -81 350 -101 331 -81 b 264 -125 283 -81 264 -101 z m 50 596 l 149 596 l 149 199 b 360 -12 149 82 243 -12 b 542 93 438 -12 506 29 l 546 99 l 546 124 l 496 124 l 496 113 b 360 38 467 67 417 38 b 199 199 271 38 199 110 l 199 596 l 546 596 l 546 644 l 199 644 l 199 793 l 149 793 l 149 644 l 50 644 z "},"":{"ha":644,"x_min":0,"x_max":0,"o":"m 483 199 l 161 199 l 322 572 z m 25 0 l 76 0 l 140 149 l 504 149 l 572 -10 l 618 10 l 340 657 l 306 657 l 43 50 l 25 50 z "},"":{"ha":644,"x_min":0,"x_max":0,"o":"m 149 397 l 149 596 l 293 596 b 471 503 424 596 471 544 b 293 397 471 461 425 397 z m 149 347 l 357 347 b 546 179 479 344 546 253 b 367 50 546 107 490 50 l 149 50 z m 428 379 b 521 503 489 404 521 451 b 293 644 521 582 439 644 l 75 644 l 75 596 l 99 596 l 99 0 l 367 0 b 596 179 517 0 596 78 b 428 378 596 263 533 349 z "},"":{"ha":694,"x_min":0,"x_max":0,"o":"m 571 539 l 571 521 l 619 521 l 619 561 l 611 568 b 385 657 551 622 472 657 b 50 322 200 657 50 507 b 385 -12 50 138 200 -12 b 631 93 482 -12 568 28 l 593 128 b 385 38 540 72 467 38 b 99 322 228 38 99 165 b 385 608 99 479 228 608 b 571 539 457 608 519 582 z "},"":{"ha":694,"x_min":0,"x_max":0,"o":"m 149 50 l 149 596 l 307 596 b 596 322 467 596 596 474 b 307 50 596 171 467 50 z m 99 596 l 99 0 l 304 0 b 644 322 493 0 644 143 b 304 644 644 501 493 644 l 75 644 l 75 596 z "},"":{"ha":594,"x_min":0,"x_max":0,"o":"m 149 596 l 446 596 l 446 571 l 496 571 l 496 644 l 75 644 l 75 596 l 99 596 l 99 0 l 546 0 l 546 75 l 496 75 l 496 50 l 149 50 l 149 297 l 397 297 l 397 347 l 149 347 z "},"":{"ha":594,"x_min":0,"x_max":0,"o":"m 99 596 l 99 0 l 149 0 l 149 297 l 397 297 l 397 347 l 149 347 l 149 596 l 496 596 l 496 571 l 546 571 l 546 644 l 75 644 l 75 596 z "},"":{"ha":694,"x_min":0,"x_max":0,"o":"m 385 608 b 571 539 457 608 519 582 l 571 521 l 619 521 l 619 561 l 611 568 b 385 657 551 622 472 657 b 50 322 201 657 50 507 b 385 -12 50 138 200 -12 b 596 93 465 -12 546 40 l 597 93 l 604 0 l 644 0 l 644 297 l 465 297 l 465 249 l 596 249 l 596 144 b 385 38 556 90 461 38 b 99 322 226 38 99 164 b 385 608 99 481 228 608 z "},"":{"ha":694,"x_min":0,"x_max":0,"o":"m 99 644 l 99 0 l 149 0 l 149 297 l 546 297 l 546 0 l 596 0 l 596 644 l 546 644 l 546 347 l 149 347 l 149 644 z "},"":{"ha":247,"x_min":0,"x_max":0,"o":"m 149 0 l 149 644 l 99 644 l 99 0 z "},"":{"ha":446,"x_min":0,"x_max":0,"o":"m 99 56 l 99 75 l 50 75 l 50 29 l 60 22 b 174 -12 97 -4 144 -12 b 347 151 260 -12 347 46 l 347 644 l 75 644 l 75 596 l 297 596 l 297 151 b 174 38 297 78 236 38 b 99 56 151 38 121 43 z "},"":{"ha":644,"x_min":0,"x_max":0,"o":"m 515 596 l 546 596 l 546 644 l 492 644 l 149 247 l 149 644 l 99 644 l 99 0 l 149 0 l 149 172 l 150 172 l 272 315 l 489 53 b 578 0 522 13 540 0 l 596 0 l 596 50 l 578 50 b 526 85 561 50 553 53 l 306 353 z "},"":{"ha":594,"x_min":0,"x_max":0,"o":"m 496 75 l 496 50 l 149 50 l 149 644 l 99 644 l 99 0 l 546 0 l 546 75 z "},"":{"ha":942,"x_min":0,"x_max":0,"o":"m 38 0 l 99 0 l 171 550 l 447 -12 l 494 -12 l 771 550 l 843 -6 l 893 3 l 808 657 l 769 657 l 471 51 l 172 657 l 133 657 l 56 50 l 38 50 z "},"":{"ha":694,"x_min":0,"x_max":0,"o":"m 157 644 l 75 644 l 75 596 l 99 596 l 99 0 l 149 0 l 149 571 l 544 -12 l 596 -12 l 596 644 l 546 644 l 546 75 z "},"":{"ha":743,"x_min":0,"x_max":0,"o":"m 372 657 b 50 322 193 657 50 506 b 372 -12 50 139 193 -12 b 694 322 551 -12 694 139 b 372 657 694 506 551 657 z m 99 322 b 372 608 99 481 224 608 b 644 322 521 608 644 481 b 372 38 644 164 521 38 b 99 322 224 38 99 164 z "},"":{"ha":644,"x_min":0,"x_max":0,"o":"m 149 596 l 358 596 b 546 422 461 596 546 519 b 358 249 546 325 461 249 l 149 249 z m 99 596 l 99 0 l 149 0 l 149 199 l 367 199 b 596 422 493 199 596 297 b 360 644 596 547 490 644 l 75 644 l 75 596 z "},"":{"ha":743,"x_min":0,"x_max":0,"o":"m 372 608 b 644 322 529 608 644 479 b 372 38 644 165 529 38 b 99 322 215 38 99 165 b 372 608 99 479 215 608 z m 385 -12 b 694 322 564 -7 694 142 b 372 657 694 507 558 657 b 50 322 186 657 50 507 b 258 7 50 178 133 54 b 93 -224 151 -46 93 -156 l 93 -249 l 147 -249 l 153 -229 b 276 -164 163 -192 228 -164 b 561 -247 389 -164 461 -247 b 676 -136 628 -247 676 -189 l 626 -136 b 561 -197 626 -158 603 -197 b 276 -114 476 -197 404 -114 b 168 -143 247 -114 204 -124 b 385 -12 204 -79 276 -12 z "},"":{"ha":644,"x_min":0,"x_max":0,"o":"m 308 297 l 149 297 l 149 596 l 310 596 b 496 454 438 596 496 526 b 308 297 496 378 431 297 z m 578 0 l 596 0 l 596 50 l 578 50 b 526 85 557 50 550 57 l 424 208 b 372 261 404 233 389 250 b 546 456 488 286 546 371 b 310 644 546 551 468 644 l 75 644 l 75 596 l 99 596 l 99 0 l 149 0 l 149 249 l 249 249 b 388 176 336 249 336 239 l 489 53 b 578 0 522 13 542 0 z "},"":{"ha":644,"x_min":0,"x_max":0,"o":"m 99 117 l 99 136 l 50 136 l 50 99 l 54 93 b 322 -12 96 40 183 -12 b 596 156 488 -12 596 57 b 149 501 596 381 149 336 b 322 608 149 543 221 608 b 496 550 388 608 450 590 l 496 533 l 546 533 l 546 571 l 539 578 b 322 657 481 635 401 657 b 99 501 207 657 99 583 b 546 156 99 288 546 335 b 322 38 546 103 478 38 b 99 117 193 38 128 83 z "},"":{"ha":644,"x_min":0,"x_max":0,"o":"m 50 644 l 50 571 l 99 571 l 99 596 l 297 596 l 297 0 l 347 0 l 347 596 l 546 596 l 546 571 l 596 571 l 596 644 z "},"":{"ha":694,"x_min":0,"x_max":0,"o":"m 149 236 l 149 644 l 75 644 l 75 596 l 99 596 l 99 236 b 347 -12 99 100 211 -12 b 596 236 483 -12 596 100 l 596 644 l 546 644 l 546 236 b 347 38 546 126 457 38 b 149 236 238 38 149 126 z "},"":{"ha":644,"x_min":0,"x_max":0,"o":"m 75 644 l 25 644 l 25 596 l 44 596 l 306 -12 l 340 -12 l 618 635 l 572 654 l 322 72 z "},"":{"ha":942,"x_min":0,"x_max":0,"o":"m 90 644 l 38 644 l 38 596 l 54 596 l 279 -11 l 317 -11 l 471 432 l 626 -11 l 664 -11 l 903 636 l 856 654 l 644 83 l 496 511 l 496 619 l 446 619 l 446 511 l 297 83 z "},"":{"ha":644,"x_min":0,"x_max":0,"o":"m 107 644 l 63 644 l 63 596 l 83 596 l 290 338 l 29 17 l 69 -17 l 322 299 l 575 -17 l 615 17 l 354 338 l 590 629 l 550 661 l 322 376 z "},"":{"ha":644,"x_min":0,"x_max":0,"o":"m 94 644 l 38 644 l 38 596 l 67 596 l 297 229 l 297 0 l 347 0 l 347 229 l 604 636 l 561 664 l 322 283 z "},"":{"ha":594,"x_min":0,"x_max":0,"o":"m 533 613 l 533 644 l 63 644 l 63 571 l 111 571 l 111 596 l 458 596 l 38 29 l 38 0 l 546 0 l 546 75 l 496 75 l 496 50 l 114 50 z "},"":{"ha":644,"x_min":0,"x_max":0,"o":"m 483 199 l 161 199 l 322 572 z m 25 0 l 76 0 l 140 149 l 504 149 l 572 -10 l 618 10 l 340 657 l 306 657 l 43 50 l 25 50 z m 353 757 l 388 792 l 250 931 l 214 896 z "},"":{"ha":644,"x_min":0,"x_max":0,"o":"m 483 199 l 161 199 l 322 572 z m 25 0 l 76 0 l 140 149 l 504 149 l 572 -10 l 618 10 l 340 657 l 306 657 l 43 50 l 25 50 z m 293 757 l 432 896 l 396 931 l 258 792 z "},"":{"ha":644,"x_min":0,"x_max":0,"o":"m 483 199 l 161 199 l 322 572 z m 25 0 l 76 0 l 140 149 l 504 149 l 572 -10 l 618 10 l 340 657 l 306 657 l 43 50 l 25 50 z m 325 881 l 497 744 l 528 782 l 343 931 l 303 931 l 118 782 l 150 744 l 321 881 z "},"":{"ha":644,"x_min":0,"x_max":0,"o":"m 369 871 l 293 913 b 233 926 275 922 253 926 b 142 843 192 926 153 903 l 135 810 l 183 801 l 190 835 b 233 878 196 865 213 878 b 275 865 246 878 260 872 l 353 824 b 411 810 371 814 392 810 b 504 893 453 810 493 833 l 510 926 l 461 935 l 454 901 b 411 858 449 871 432 858 b 369 871 399 858 385 864 z m 483 199 l 161 199 l 322 572 z m 25 0 l 76 0 l 140 149 l 504 149 l 572 -10 l 618 10 l 340 657 l 306 657 l 43 50 l 25 50 z "},"":{"ha":644,"x_min":0,"x_max":0,"o":"m 428 825 b 472 781 428 801 449 781 b 515 825 496 781 515 801 b 472 868 515 849 496 868 b 428 825 449 868 428 849 z m 138 825 b 181 781 138 801 157 781 b 224 825 204 781 224 801 b 181 868 224 849 204 868 b 138 825 157 868 138 849 z m 483 199 l 161 199 l 322 572 z m 25 0 l 76 0 l 140 149 l 504 149 l 572 -10 l 618 10 l 340 657 l 306 657 l 43 50 l 25 50 z "},"":{"ha":644,"x_min":0,"x_max":0,"o":"m 322 943 b 238 906 293 943 264 931 b 199 818 211 881 199 850 b 238 733 199 786 211 758 b 322 694 264 708 293 694 b 407 732 351 694 381 707 b 446 818 433 757 446 786 b 407 906 446 850 433 881 b 322 943 381 931 351 943 z m 322 906 b 382 878 335 906 354 903 b 410 818 399 861 410 842 b 382 758 410 794 399 775 b 322 732 354 733 335 732 b 263 758 310 732 289 732 b 235 818 236 785 235 806 b 263 878 235 842 246 861 b 322 906 290 903 310 906 z m 483 199 l 161 199 l 322 572 z m 25 0 l 76 0 l 140 149 l 504 149 l 572 -10 l 618 10 l 340 657 l 306 657 l 43 50 l 25 50 z "},"":{"ha":892,"x_min":0,"x_max":0,"o":"m 446 596 l 446 199 l 179 199 l 381 596 z m 81 0 l 156 149 l 446 149 l 446 0 l 843 0 l 843 75 l 793 75 l 793 50 l 496 50 l 496 297 l 694 297 l 694 347 l 496 347 l 496 596 l 744 596 l 744 571 l 793 571 l 793 644 l 351 644 l 49 50 l 25 50 l 25 0 z "},"":{"ha":669,"x_min":0,"x_max":0,"o":"m 571 539 l 571 521 l 619 521 l 619 561 l 611 568 b 385 657 551 622 472 657 b 50 322 200 657 50 507 b 324 -7 50 158 168 22 l 294 -110 l 326 -119 b 385 -101 349 -110 361 -101 b 451 -179 429 -101 451 -142 b 379 -253 451 -217 429 -253 b 303 -214 346 -253 318 -239 l 271 -232 b 379 -290 293 -269 335 -290 b 501 -183 436 -290 501 -256 b 385 -64 501 -125 460 -64 b 346 -69 369 -64 358 -65 l 363 -11 b 385 -12 369 -12 378 -12 b 631 93 482 -12 568 28 l 593 128 b 385 38 540 72 467 38 b 99 322 228 38 99 165 b 385 608 99 479 228 608 b 571 539 457 608 519 582 z "},"":{"ha":594,"x_min":0,"x_max":0,"o":"m 328 757 l 363 792 l 225 931 l 189 896 z m 149 596 l 446 596 l 446 571 l 496 571 l 496 644 l 75 644 l 75 596 l 99 596 l 99 0 l 546 0 l 546 75 l 496 75 l 496 50 l 149 50 l 149 297 l 397 297 l 397 347 l 149 347 z "},"":{"ha":594,"x_min":0,"x_max":0,"o":"m 268 757 l 407 896 l 371 931 l 233 792 z m 149 596 l 446 596 l 446 571 l 496 571 l 496 644 l 75 644 l 75 596 l 99 596 l 99 0 l 546 0 l 546 75 l 496 75 l 496 50 l 149 50 l 149 297 l 397 297 l 397 347 l 149 347 z "},"":{"ha":594,"x_min":0,"x_max":0,"o":"m 300 881 l 472 744 l 503 782 l 318 931 l 278 931 l 93 782 l 125 744 l 296 881 z m 149 596 l 446 596 l 446 571 l 496 571 l 496 644 l 75 644 l 75 596 l 99 596 l 99 0 l 546 0 l 546 75 l 496 75 l 496 50 l 149 50 l 149 297 l 397 297 l 397 347 l 149 347 z "},"":{"ha":594,"x_min":0,"x_max":0,"o":"m 403 825 b 447 781 403 801 424 781 b 490 825 471 781 490 801 b 447 868 490 849 471 868 b 403 825 424 868 403 849 z m 113 825 b 156 781 113 801 132 781 b 199 825 179 781 199 801 b 156 868 199 849 179 868 b 113 825 132 868 113 849 z m 149 596 l 446 596 l 446 571 l 496 571 l 496 644 l 75 644 l 75 596 l 99 596 l 99 0 l 546 0 l 546 75 l 496 75 l 496 50 l 149 50 l 149 297 l 397 297 l 397 347 l 149 347 z "},"":{"ha":247,"x_min":0,"x_max":0,"o":"m 154 757 l 189 792 l 51 931 l 15 896 z m 149 0 l 149 644 l 99 644 l 99 0 z "},"":{"ha":247,"x_min":0,"x_max":0,"o":"m 94 757 l 233 896 l 197 931 l 60 792 z m 149 0 l 149 644 l 99 644 l 99 0 z "},"":{"ha":247,"x_min":0,"x_max":0,"o":"m 126 881 l 299 744 l 329 782 l 144 931 l 104 931 l -81 782 l -49 744 l 122 881 z m 149 0 l 149 644 l 99 644 l 99 0 z "},"":{"ha":247,"x_min":0,"x_max":0,"o":"m 229 825 b 274 781 229 801 250 781 b 317 825 297 781 317 801 b 274 868 317 849 297 868 b 229 825 250 868 229 849 z m -61 825 b -18 781 -61 801 -42 781 b 25 825 6 781 25 801 b -18 868 25 849 6 868 b -61 825 -42 868 -61 849 z m 149 0 l 149 644 l 99 644 l 99 0 z "},"":{"ha":694,"x_min":0,"x_max":0,"o":"m 149 50 l 149 297 l 297 297 l 297 347 l 149 347 l 149 596 l 307 596 b 596 322 467 596 596 474 b 307 50 596 171 467 50 z m 75 644 l 75 596 l 99 596 l 99 347 l 25 347 l 25 297 l 99 297 l 99 0 l 304 0 b 644 322 493 0 644 143 b 304 644 644 501 493 644 z "},"":{"ha":694,"x_min":0,"x_max":0,"o":"m 394 871 l 318 913 b 258 926 300 922 278 926 b 167 843 217 926 178 903 l 160 810 l 208 801 l 215 835 b 258 878 221 865 238 878 b 300 865 271 878 285 872 l 378 824 b 436 810 396 814 417 810 b 529 893 478 810 518 833 l 535 926 l 486 935 l 479 901 b 436 858 474 871 457 858 b 394 871 424 858 410 864 z m 157 644 l 75 644 l 75 596 l 99 596 l 99 0 l 149 0 l 149 571 l 544 -12 l 596 -12 l 596 644 l 546 644 l 546 75 z "},"":{"ha":743,"x_min":0,"x_max":0,"o":"m 403 757 l 438 792 l 300 931 l 264 896 z m 372 657 b 50 322 193 657 50 506 b 372 -12 50 139 193 -12 b 694 322 551 -12 694 139 b 372 657 694 506 551 657 z m 99 322 b 372 608 99 481 224 608 b 644 322 521 608 644 481 b 372 38 644 164 521 38 b 99 322 224 38 99 164 z "},"":{"ha":743,"x_min":0,"x_max":0,"o":"m 343 757 l 482 896 l 446 931 l 308 792 z m 372 657 b 50 322 193 657 50 506 b 372 -12 50 139 193 -12 b 694 322 551 -12 694 139 b 372 657 694 506 551 657 z m 99 322 b 372 608 99 481 224 608 b 644 322 521 608 644 481 b 372 38 644 164 521 38 b 99 322 224 38 99 164 z "},"":{"ha":743,"x_min":0,"x_max":0,"o":"m 374 881 l 546 744 l 576 782 l 392 931 l 351 931 l 167 782 l 199 744 l 369 881 z m 372 657 b 50 322 193 657 50 506 b 372 -12 50 139 193 -12 b 694 322 551 -12 694 139 b 372 657 694 506 551 657 z m 99 322 b 372 608 99 481 224 608 b 644 322 521 608 644 481 b 372 38 644 164 521 38 b 99 322 224 38 99 164 z "},"":{"ha":743,"x_min":0,"x_max":0,"o":"m 419 871 l 343 913 b 283 926 325 922 303 926 b 192 843 242 926 203 903 l 185 810 l 233 801 l 240 835 b 283 878 246 865 263 878 b 325 865 296 878 310 872 l 403 824 b 461 810 421 814 442 810 b 554 893 503 810 543 833 l 560 926 l 511 935 l 504 901 b 461 858 499 871 482 858 b 419 871 449 858 435 864 z m 372 657 b 50 322 193 657 50 506 b 372 -12 50 139 193 -12 b 694 322 551 -12 694 139 b 372 657 694 506 551 657 z m 99 322 b 372 608 99 481 224 608 b 644 322 521 608 644 481 b 372 38 644 164 521 38 b 99 322 224 38 99 164 z "},"":{"ha":743,"x_min":0,"x_max":0,"o":"m 476 825 b 521 781 476 801 497 781 b 564 825 544 781 564 801 b 521 868 564 849 544 868 b 476 825 497 868 476 849 z m 186 825 b 229 781 186 801 206 781 b 272 825 253 781 272 801 b 229 868 272 849 253 868 b 186 825 206 868 186 849 z m 372 657 b 50 322 193 657 50 506 b 372 -12 50 139 193 -12 b 694 322 551 -12 694 139 b 372 657 694 506 551 657 z m 99 322 b 372 608 99 481 224 608 b 644 322 521 608 644 481 b 372 38 644 164 521 38 b 99 322 224 38 99 164 z "},"":{"ha":793,"x_min":0,"x_max":0,"o":"m 104 -6 l 168 60 b 397 -25 229 7 311 -25 b 744 322 589 -25 744 131 b 660 550 744 408 713 489 l 724 615 l 689 650 l 625 585 b 397 669 564 638 483 669 b 50 322 206 669 50 514 b 133 94 50 236 81 156 l 69 29 z m 624 515 b 694 322 668 463 694 396 b 397 25 694 158 561 25 b 204 96 324 25 257 51 z m 589 550 l 169 131 b 99 322 125 183 99 249 b 397 619 99 486 233 619 b 589 550 471 619 536 594 z "},"":{"ha":694,"x_min":0,"x_max":0,"o":"m 378 757 l 413 792 l 275 931 l 239 896 z m 149 236 l 149 644 l 75 644 l 75 596 l 99 596 l 99 236 b 347 -12 99 100 211 -12 b 596 236 483 -12 596 100 l 596 644 l 546 644 l 546 236 b 347 38 546 126 457 38 b 149 236 238 38 149 126 z "},"":{"ha":694,"x_min":0,"x_max":0,"o":"m 318 757 l 457 896 l 421 931 l 283 792 z m 149 236 l 149 644 l 75 644 l 75 596 l 99 596 l 99 236 b 347 -12 99 100 211 -12 b 596 236 483 -12 596 100 l 596 644 l 546 644 l 546 236 b 347 38 546 126 457 38 b 149 236 238 38 149 126 z "},"":{"ha":694,"x_min":0,"x_max":0,"o":"m 349 881 l 521 744 l 551 782 l 367 931 l 326 931 l 142 782 l 174 744 l 344 881 z m 149 236 l 149 644 l 75 644 l 75 596 l 99 596 l 99 236 b 347 -12 99 100 211 -12 b 596 236 483 -12 596 100 l 596 644 l 546 644 l 546 236 b 347 38 546 126 457 38 b 149 236 238 38 149 126 z "},"":{"ha":694,"x_min":0,"x_max":0,"o":"m 453 825 b 497 781 453 801 474 781 b 540 825 521 781 540 801 b 497 868 540 849 521 868 b 453 825 474 868 453 849 z m 163 825 b 206 781 163 801 182 781 b 249 825 229 781 249 801 b 206 868 249 849 229 868 b 163 825 182 868 163 849 z m 149 236 l 149 644 l 75 644 l 75 596 l 99 596 l 99 236 b 347 -12 99 100 211 -12 b 596 236 483 -12 596 100 l 596 644 l 546 644 l 546 236 b 347 38 546 126 457 38 b 149 236 238 38 149 126 z "},"":{"ha":644,"x_min":0,"x_max":0,"o":"m 293 757 l 432 896 l 396 931 l 258 792 z m 94 644 l 38 644 l 38 596 l 67 596 l 297 229 l 297 0 l 347 0 l 347 229 l 604 636 l 561 664 l 322 283 z "},"":{"ha":644,"x_min":0,"x_max":0,"o":"m 149 546 l 358 546 b 546 374 461 546 546 471 b 358 199 546 276 461 199 l 149 199 z m 99 644 l 99 0 l 149 0 l 149 149 l 367 149 b 596 372 493 149 596 247 b 360 596 596 497 490 596 l 149 596 l 149 644 z "},"":{"ha":644,"x_min":0,"x_max":0,"o":"m 521 843 l 521 893 l 125 893 l 125 843 z m 483 199 l 161 199 l 322 572 z m 25 0 l 76 0 l 140 149 l 504 149 l 572 -10 l 618 10 l 340 657 l 306 657 l 43 50 l 25 50 z "},"":{"ha":644,"x_min":0,"x_max":0,"o":"m 322 843 b 172 919 257 843 207 867 l 132 890 b 322 793 156 856 208 793 b 514 890 436 793 490 856 l 472 919 b 322 843 438 867 388 843 z m 483 199 l 161 199 l 322 572 z m 25 0 l 76 0 l 140 149 l 504 149 l 572 -10 l 618 10 l 340 657 l 306 657 l 43 50 l 25 50 z "},"":{"ha":644,"x_min":0,"x_max":0,"o":"m 306 657 l 43 50 l 25 50 l 25 0 l 76 0 l 140 149 l 504 149 l 561 17 b 438 -137 474 -35 438 -86 b 561 -249 438 -199 490 -249 b 639 -225 592 -249 619 -237 l 614 -183 b 561 -199 600 -192 582 -199 b 488 -133 521 -199 488 -172 b 606 4 488 -94 519 -47 l 618 10 l 340 657 z m 483 199 l 161 199 l 322 572 z "},"":{"ha":694,"x_min":0,"x_max":0,"o":"m 343 757 l 482 896 l 446 931 l 308 792 z m 571 539 l 571 521 l 619 521 l 619 561 l 611 568 b 385 657 551 622 472 657 b 50 322 200 657 50 507 b 385 -12 50 138 200 -12 b 631 93 482 -12 568 28 l 593 128 b 385 38 540 72 467 38 b 99 322 228 38 99 165 b 385 608 99 479 228 608 b 571 539 457 608 519 582 z "},"":{"ha":694,"x_min":0,"x_max":0,"o":"m 374 881 l 546 744 l 576 782 l 392 931 l 351 931 l 167 782 l 199 744 l 369 881 z m 571 539 l 571 521 l 619 521 l 619 561 l 611 568 b 385 657 551 622 472 657 b 50 322 200 657 50 507 b 385 -12 50 138 200 -12 b 631 93 482 -12 568 28 l 593 128 b 385 38 540 72 467 38 b 99 322 228 38 99 165 b 385 608 99 479 228 608 b 571 539 457 608 519 582 z "},"":{"ha":694,"x_min":0,"x_max":0,"o":"m 328 850 b 372 806 328 826 349 806 b 415 850 396 806 415 826 b 372 893 415 874 396 893 b 328 850 349 893 328 874 z m 571 539 l 571 521 l 619 521 l 619 561 l 611 568 b 385 657 551 622 472 657 b 50 322 200 657 50 507 b 385 -12 50 138 200 -12 b 631 93 482 -12 568 28 l 593 128 b 385 38 540 72 467 38 b 99 322 228 38 99 165 b 385 608 99 479 228 608 b 571 539 457 608 519 582 z "},"":{"ha":694,"x_min":0,"x_max":0,"o":"m 374 806 l 369 806 l 199 943 l 167 904 l 351 757 l 392 757 l 576 904 l 546 943 z m 571 539 l 571 521 l 619 521 l 619 561 l 611 568 b 385 657 551 622 472 657 b 50 322 200 657 50 507 b 385 -12 50 138 200 -12 b 631 93 482 -12 568 28 l 593 128 b 385 38 540 72 467 38 b 99 322 228 38 99 165 b 385 608 99 479 228 608 b 571 539 457 608 519 582 z "},"":{"ha":694,"x_min":0,"x_max":0,"o":"m 636 900 b 667 860 636 882 650 865 b 617 749 667 813 644 776 l 639 726 b 722 900 688 775 722 836 b 679 944 722 924 703 944 b 636 900 656 944 636 924 z m 149 50 l 149 596 l 307 596 b 596 322 467 596 596 474 b 307 50 596 171 467 50 z m 99 596 l 99 0 l 304 0 b 644 322 493 0 644 143 b 304 644 644 501 493 644 l 75 644 l 75 596 z "},"":{"ha":694,"x_min":0,"x_max":0,"o":"m 149 50 l 149 297 l 297 297 l 297 347 l 149 347 l 149 596 l 307 596 b 596 322 467 596 596 474 b 307 50 596 171 467 50 z m 99 644 l 99 347 l 25 347 l 25 297 l 99 297 l 99 0 l 304 0 b 644 322 493 0 644 143 b 304 644 644 501 493 644 z "},"":{"ha":594,"x_min":0,"x_max":0,"o":"m 496 843 l 496 893 l 100 893 l 100 843 z m 149 596 l 446 596 l 446 571 l 496 571 l 496 644 l 75 644 l 75 596 l 99 596 l 99 0 l 546 0 l 546 75 l 496 75 l 496 50 l 149 50 l 149 297 l 397 297 l 397 347 l 149 347 z "},"":{"ha":594,"x_min":0,"x_max":0,"o":"m 297 843 b 147 919 232 843 182 867 l 107 890 b 297 793 131 856 183 793 b 489 890 411 793 465 856 l 447 919 b 297 843 413 867 363 843 z m 149 596 l 446 596 l 446 571 l 496 571 l 496 644 l 75 644 l 75 596 l 99 596 l 99 0 l 546 0 l 546 75 l 496 75 l 496 50 l 149 50 l 149 297 l 397 297 l 397 347 l 149 347 z "},"":{"ha":594,"x_min":0,"x_max":0,"o":"m 254 850 b 299 806 254 826 275 806 b 342 850 322 806 342 826 b 299 893 342 874 322 893 b 254 850 275 893 254 874 z m 149 596 l 446 596 l 446 571 l 496 571 l 496 644 l 75 644 l 75 596 l 99 596 l 99 0 l 546 0 l 546 75 l 496 75 l 496 50 l 149 50 l 149 297 l 397 297 l 397 347 l 149 347 z "},"":{"ha":594,"x_min":0,"x_max":0,"o":"m 99 0 l 431 0 b 313 -137 360 -36 313 -64 b 433 -249 313 -197 357 -249 b 511 -225 464 -249 492 -237 l 486 -183 b 433 -199 472 -192 454 -199 b 363 -137 376 -199 363 -162 b 503 0 363 -76 401 -58 l 546 24 l 546 75 l 496 75 l 496 50 l 149 50 l 149 297 l 397 297 l 397 347 l 149 347 l 149 596 l 446 596 l 446 571 l 496 571 l 496 644 l 75 644 l 75 596 l 99 596 z "},"":{"ha":594,"x_min":0,"x_max":0,"o":"m 300 806 l 296 806 l 125 943 l 93 904 l 278 757 l 318 757 l 503 904 l 472 943 z m 149 596 l 446 596 l 446 571 l 496 571 l 496 644 l 75 644 l 75 596 l 99 596 l 99 0 l 546 0 l 546 75 l 496 75 l 496 50 l 149 50 l 149 297 l 397 297 l 397 347 l 149 347 z "},"":{"ha":694,"x_min":0,"x_max":0,"o":"m 385 608 b 571 539 457 608 519 582 l 571 521 l 619 521 l 619 561 l 611 568 b 385 657 551 622 472 657 b 50 322 201 657 50 507 b 385 -12 50 138 200 -12 b 596 93 465 -12 546 40 l 597 93 l 604 0 l 644 0 l 644 297 l 465 297 l 465 249 l 596 249 l 596 144 b 385 38 556 90 461 38 b 99 322 226 38 99 164 b 385 608 99 481 228 608 z m 374 865 l 546 729 l 576 767 l 392 915 l 351 915 l 167 767 l 199 729 l 369 865 z "},"":{"ha":694,"x_min":0,"x_max":0,"o":"m 372 828 b 222 904 307 828 257 851 l 182 875 b 372 778 206 840 258 778 b 564 875 486 778 540 840 l 522 904 b 372 828 488 851 438 828 z m 385 608 b 571 539 457 608 519 582 l 571 521 l 619 521 l 619 561 l 611 568 b 385 657 551 622 472 657 b 50 322 201 657 50 507 b 385 -12 50 138 200 -12 b 596 93 465 -12 546 40 l 597 93 l 604 0 l 644 0 l 644 297 l 465 297 l 465 249 l 596 249 l 596 144 b 385 38 556 90 461 38 b 99 322 226 38 99 164 b 385 608 99 481 228 608 z "},"":{"ha":694,"x_min":0,"x_max":0,"o":"m 328 835 b 372 790 328 811 349 790 b 415 835 396 790 415 811 b 372 878 415 858 396 878 b 328 835 349 878 328 858 z m 385 608 b 571 539 457 608 519 582 l 571 521 l 619 521 l 619 561 l 611 568 b 385 657 551 622 472 657 b 50 322 201 657 50 507 b 385 -12 50 138 200 -12 b 596 93 465 -12 546 40 l 597 93 l 604 0 l 644 0 l 644 297 l 465 297 l 465 249 l 596 249 l 596 144 b 385 38 556 90 461 38 b 99 322 226 38 99 164 b 385 608 99 481 228 608 z "},"":{"ha":694,"x_min":0,"x_max":0,"o":"m 385 608 b 571 539 457 608 519 582 l 571 521 l 619 521 l 619 561 l 611 568 b 385 657 551 622 472 657 b 50 322 201 657 50 507 b 385 -12 50 138 200 -12 b 596 93 465 -12 546 40 l 597 93 l 604 0 l 644 0 l 644 297 l 465 297 l 465 249 l 596 249 l 596 144 b 385 38 556 90 461 38 b 99 322 226 38 99 164 b 385 608 99 481 228 608 z m 303 -125 b 333 -165 303 -143 317 -160 b 283 -276 333 -212 311 -249 l 306 -299 b 389 -125 354 -250 389 -189 b 346 -81 389 -101 369 -81 b 303 -125 322 -81 303 -101 z "},"":{"ha":694,"x_min":0,"x_max":0,"o":"m 349 881 l 521 744 l 551 782 l 367 931 l 326 931 l 142 782 l 174 744 l 344 881 z m 99 644 l 99 0 l 149 0 l 149 297 l 546 297 l 546 0 l 596 0 l 596 644 l 546 644 l 546 347 l 149 347 l 149 644 z "},"":{"ha":694,"x_min":0,"x_max":0,"o":"m 50 446 l 99 446 l 99 0 l 149 0 l 149 297 l 546 297 l 546 0 l 596 0 l 596 446 l 644 446 l 644 496 l 596 496 l 596 644 l 546 644 l 546 496 l 149 496 l 149 644 l 99 644 l 99 496 l 50 496 z m 546 446 l 546 347 l 149 347 l 149 446 z "},"":{"ha":247,"x_min":0,"x_max":0,"o":"m 149 0 l 149 644 l 99 644 l 99 0 z m 272 861 l 278 896 l 229 903 l 224 871 b 221 863 218 846 222 867 b 204 846 217 851 213 846 b 176 856 199 846 189 849 l 97 900 b 43 915 74 914 53 915 b -19 865 36 915 -3 915 b -24 850 -19 863 -22 856 l -29 818 l 18 808 l 25 843 b 28 850 26 849 28 850 b 43 865 33 865 38 865 b 72 857 49 865 60 864 l 151 813 b 204 796 175 799 194 796 b 268 846 232 796 257 811 b 272 861 269 850 272 861 z "},"":{"ha":247,"x_min":0,"x_max":0,"o":"m 149 0 l 149 644 l 99 644 l 99 0 z m 249 843 l 249 893 l 0 893 l 0 843 z "},"":{"ha":247,"x_min":0,"x_max":0,"o":"m 124 843 b -26 919 58 843 8 867 l -67 890 b 124 793 -43 856 10 793 b 315 890 238 793 292 856 l 274 919 b 124 843 239 867 189 843 z m 149 0 l 149 644 l 99 644 l 99 0 z "},"":{"ha":247,"x_min":0,"x_max":0,"o":"m 149 -12 l 149 644 l 99 644 l 99 0 b -19 -137 26 -36 -19 -64 b 100 -249 -19 -197 24 -249 b 179 -225 131 -249 160 -237 l 154 -183 b 100 -199 140 -192 121 -199 b 29 -137 43 -199 29 -162 b 149 -12 29 -81 63 -61 z "},"":{"ha":446,"x_min":0,"x_max":0,"o":"m 200 881 l 372 744 l 403 782 l 218 931 l 178 931 l -7 782 l 25 744 l 196 881 z m 99 56 l 99 75 l 50 75 l 50 29 l 60 22 b 174 -12 97 -4 144 -12 b 347 151 260 -12 347 46 l 347 644 l 75 644 l 75 596 l 297 596 l 297 151 b 174 38 297 78 236 38 b 99 56 151 38 121 43 z "},"":{"ha":644,"x_min":0,"x_max":0,"o":"m 314 -114 b 344 -154 314 -132 328 -149 b 294 -265 344 -201 322 -237 l 317 -287 b 400 -114 365 -239 400 -178 b 357 -69 400 -90 381 -69 b 314 -114 333 -69 314 -90 z m 515 596 l 546 596 l 546 644 l 492 644 l 149 247 l 149 644 l 99 644 l 99 0 l 149 0 l 149 172 l 150 172 l 272 315 l 489 53 b 578 0 522 13 540 0 l 596 0 l 596 50 l 578 50 b 526 85 561 50 553 53 l 306 353 z "},"":{"ha":594,"x_min":0,"x_max":0,"o":"m 268 757 l 407 896 l 371 931 l 233 792 z m 496 75 l 496 50 l 149 50 l 149 644 l 99 644 l 99 0 l 546 0 l 546 75 z "},"":{"ha":594,"x_min":0,"x_max":0,"o":"m 289 -114 b 319 -154 289 -132 303 -149 b 269 -265 319 -201 297 -237 l 292 -287 b 375 -114 340 -239 375 -178 b 332 -69 375 -90 356 -69 b 289 -114 308 -69 289 -90 z m 496 75 l 496 50 l 149 50 l 149 644 l 99 644 l 99 0 l 546 0 l 546 75 z "},"":{"ha":594,"x_min":0,"x_max":0,"o":"m 342 900 b 372 860 342 882 356 865 b 322 749 372 813 350 776 l 344 726 b 428 900 393 775 428 836 b 385 944 428 924 408 944 b 342 900 361 944 342 924 z m 496 75 l 496 50 l 149 50 l 149 644 l 99 644 l 99 0 l 546 0 l 546 75 z "},"":{"ha":594,"x_min":0,"x_max":0,"o":"m 347 328 b 390 285 347 304 367 285 b 433 328 414 285 433 304 b 390 372 433 351 414 372 b 347 328 367 372 347 351 z "},"":{"ha":594,"x_min":0,"x_max":0,"o":"m 40 206 l 99 249 l 99 0 l 546 0 l 546 75 l 496 75 l 496 50 l 149 50 l 149 283 l 379 449 l 350 489 l 149 344 l 149 644 l 99 644 l 99 310 l 10 246 z "},"":{"ha":694,"x_min":0,"x_max":0,"o":"m 318 757 l 457 896 l 421 931 l 283 792 z m 157 644 l 75 644 l 75 596 l 99 596 l 99 0 l 149 0 l 149 571 l 544 -12 l 596 -12 l 596 644 l 546 644 l 546 75 z "},"":{"ha":694,"x_min":0,"x_max":0,"o":"m 301 -125 b 332 -165 301 -143 315 -160 b 282 -276 332 -212 310 -249 l 304 -299 b 388 -125 353 -250 388 -189 b 344 -81 388 -101 368 -81 b 301 -125 321 -81 301 -101 z m 157 644 l 75 644 l 75 596 l 99 596 l 99 0 l 149 0 l 149 571 l 544 -12 l 596 -12 l 596 644 l 546 644 l 546 75 z "},"":{"ha":694,"x_min":0,"x_max":0,"o":"m 349 806 l 344 806 l 174 943 l 142 904 l 326 757 l 367 757 l 551 904 l 521 943 z m 157 644 l 75 644 l 75 596 l 99 596 l 99 0 l 149 0 l 149 571 l 544 -12 l 596 -12 l 596 644 l 546 644 l 546 75 z "},"":{"ha":793,"x_min":0,"x_max":0,"o":"m 99 596 l 99 0 l 149 0 l 149 285 b 446 608 149 471 288 608 b 644 433 567 608 644 546 l 644 -99 b 561 -249 644 -169 614 -219 l 533 -249 l 533 -297 l 567 -297 l 572 -297 l 578 -294 b 694 -99 650 -260 694 -192 l 694 433 b 446 657 694 572 594 657 b 149 478 321 657 210 588 l 149 644 l 75 644 l 75 596 z "},"":{"ha":743,"x_min":0,"x_max":0,"o":"m 569 843 l 569 893 l 174 893 l 174 843 z m 372 657 b 50 322 193 657 50 506 b 372 -12 50 139 193 -12 b 694 322 551 -12 694 139 b 372 657 694 506 551 657 z m 99 322 b 372 608 99 481 224 608 b 644 322 521 608 644 481 b 372 38 644 164 521 38 b 99 322 224 38 99 164 z "},"":{"ha":743,"x_min":0,"x_max":0,"o":"m 372 843 b 222 919 307 843 257 867 l 182 890 b 372 793 206 856 258 793 b 564 890 486 793 540 856 l 522 919 b 372 843 488 867 438 843 z m 372 657 b 50 322 193 657 50 506 b 372 -12 50 139 193 -12 b 694 322 551 -12 694 139 b 372 657 694 506 551 657 z m 99 322 b 372 608 99 481 224 608 b 644 322 521 608 644 481 b 372 38 644 164 521 38 b 99 322 224 38 99 164 z "},"":{"ha":743,"x_min":0,"x_max":0,"o":"m 485 757 l 622 896 l 588 931 l 449 792 z m 236 757 l 375 896 l 339 931 l 200 792 z m 372 657 b 50 322 193 657 50 506 b 372 -12 50 139 193 -12 b 694 322 551 -12 694 139 b 372 657 694 506 551 657 z m 99 322 b 372 608 99 481 224 608 b 644 322 521 608 644 481 b 372 38 644 164 521 38 b 99 322 224 38 99 164 z "},"":{"ha":892,"x_min":0,"x_max":0,"o":"m 446 50 l 388 50 b 99 322 228 50 99 171 b 388 596 99 474 228 596 l 446 596 z m 793 75 l 793 50 l 496 50 l 496 297 l 694 297 l 694 347 l 496 347 l 496 596 l 744 596 l 744 571 l 793 571 l 793 644 l 390 644 b 50 322 201 644 50 501 b 390 0 50 143 201 0 l 843 0 l 843 75 z "},"":{"ha":644,"x_min":0,"x_max":0,"o":"m 268 757 l 407 896 l 371 931 l 233 792 z m 308 297 l 149 297 l 149 596 l 310 596 b 496 454 438 596 496 526 b 308 297 496 378 431 297 z m 578 0 l 596 0 l 596 50 l 578 50 b 526 85 557 50 550 57 l 424 208 b 372 261 404 233 389 250 b 546 456 488 286 546 371 b 310 644 546 551 468 644 l 75 644 l 75 596 l 99 596 l 99 0 l 149 0 l 149 249 l 249 249 b 388 176 336 249 336 239 l 489 53 b 578 0 522 13 542 0 z "},"":{"ha":644,"x_min":0,"x_max":0,"o":"m 301 -114 b 332 -154 301 -132 315 -149 b 282 -265 332 -201 310 -237 l 304 -287 b 388 -114 353 -239 388 -178 b 344 -69 388 -90 368 -69 b 301 -114 321 -69 301 -90 z m 308 297 l 149 297 l 149 596 l 310 596 b 496 454 438 596 496 526 b 308 297 496 378 431 297 z m 578 0 l 596 0 l 596 50 l 578 50 b 526 85 557 50 550 57 l 424 208 b 372 261 404 233 389 250 b 546 456 488 286 546 371 b 310 644 546 551 468 644 l 75 644 l 75 596 l 99 596 l 99 0 l 149 0 l 149 249 l 249 249 b 388 176 336 249 336 239 l 489 53 b 578 0 522 13 542 0 z "},"":{"ha":644,"x_min":0,"x_max":0,"o":"m 300 806 l 296 806 l 125 943 l 93 904 l 278 757 l 318 757 l 503 904 l 472 943 z m 308 297 l 149 297 l 149 596 l 310 596 b 496 454 438 596 496 526 b 308 297 496 378 431 297 z m 578 0 l 596 0 l 596 50 l 578 50 b 526 85 557 50 550 57 l 424 208 b 372 261 404 233 389 250 b 546 456 488 286 546 371 b 310 644 546 551 468 644 l 75 644 l 75 596 l 99 596 l 99 0 l 149 0 l 149 249 l 249 249 b 388 176 336 249 336 239 l 489 53 b 578 0 522 13 542 0 z "},"":{"ha":644,"x_min":0,"x_max":0,"o":"m 293 757 l 432 896 l 396 931 l 258 792 z m 99 117 l 99 136 l 50 136 l 50 99 l 54 93 b 322 -12 96 40 183 -12 b 596 156 488 -12 596 57 b 149 501 596 381 149 336 b 322 608 149 543 221 608 b 496 550 388 608 450 590 l 496 533 l 546 533 l 546 571 l 539 578 b 322 657 481 635 401 657 b 99 501 207 657 99 583 b 546 156 99 288 546 335 b 322 38 546 103 478 38 b 99 117 193 38 128 83 z "},"":{"ha":644,"x_min":0,"x_max":0,"o":"m 325 881 l 497 744 l 528 782 l 343 931 l 303 931 l 118 782 l 150 744 l 321 881 z m 99 117 l 99 136 l 50 136 l 50 99 l 54 93 b 322 -12 96 40 183 -12 b 596 156 488 -12 596 57 b 149 501 596 381 149 336 b 322 608 149 543 221 608 b 496 550 388 608 450 590 l 496 533 l 546 533 l 546 571 l 539 578 b 322 657 481 635 401 657 b 99 501 207 657 99 583 b 546 156 99 288 546 335 b 322 38 546 103 478 38 b 99 117 193 38 128 83 z "},"":{"ha":644,"x_min":0,"x_max":0,"o":"m 276 -119 b 335 -101 299 -110 311 -101 b 401 -179 379 -101 401 -142 b 331 -253 401 -217 381 -253 b 253 -214 297 -253 268 -239 l 221 -232 b 331 -290 243 -269 286 -290 b 451 -183 388 -290 451 -256 b 335 -64 451 -125 410 -64 b 296 -69 319 -64 308 -65 l 311 -12 l 322 -12 b 596 156 488 -12 596 57 b 149 501 596 381 149 336 b 322 608 149 543 221 608 b 496 550 388 608 450 590 l 496 533 l 546 533 l 546 571 l 539 578 b 322 657 481 635 401 657 b 99 501 207 657 99 583 b 546 156 99 288 546 335 b 322 38 546 103 478 38 b 99 117 193 38 128 83 l 99 136 l 50 136 l 50 99 l 54 93 b 274 -10 92 46 164 1 l 246 -110 z "},"":{"ha":644,"x_min":0,"x_max":0,"o":"m 325 806 l 321 806 l 150 943 l 118 904 l 303 757 l 343 757 l 528 904 l 497 943 z m 99 117 l 99 136 l 50 136 l 50 99 l 54 93 b 322 -12 96 40 183 -12 b 596 156 488 -12 596 57 b 149 501 596 381 149 336 b 322 608 149 543 221 608 b 496 550 388 608 450 590 l 496 533 l 546 533 l 546 571 l 539 578 b 322 657 481 635 401 657 b 99 501 207 657 99 583 b 546 156 99 288 546 335 b 322 38 546 103 478 38 b 99 117 193 38 128 83 z "},"":{"ha":644,"x_min":0,"x_max":0,"o":"m 304 -107 b 363 -89 326 -97 339 -89 b 429 -167 407 -89 429 -129 b 357 -240 429 -204 407 -240 b 281 -201 324 -240 296 -226 l 249 -219 b 357 -278 271 -257 313 -278 b 479 -171 414 -278 479 -243 b 363 -53 479 -112 438 -53 b 324 -57 347 -53 336 -53 l 340 0 l 347 0 l 347 596 l 546 596 l 546 571 l 596 571 l 596 644 l 50 644 l 50 571 l 99 571 l 99 596 l 297 596 l 297 0 l 301 0 l 272 -99 z "},"":{"ha":644,"x_min":0,"x_max":0,"o":"m 325 806 l 321 806 l 150 943 l 118 904 l 303 757 l 343 757 l 528 904 l 497 943 z m 50 644 l 50 571 l 99 571 l 99 596 l 297 596 l 297 0 l 347 0 l 347 596 l 546 596 l 546 571 l 596 571 l 596 644 z "},"":{"ha":644,"x_min":0,"x_max":0,"o":"m 347 596 l 546 596 l 546 571 l 596 571 l 596 644 l 50 644 l 50 571 l 99 571 l 99 596 l 297 596 l 297 446 l 199 446 l 199 397 l 297 397 l 297 0 l 347 0 l 347 397 l 446 397 l 446 446 l 347 446 z "},"":{"ha":694,"x_min":0,"x_max":0,"o":"m 394 871 l 318 913 b 258 926 300 922 278 926 b 167 843 217 926 178 903 l 160 810 l 208 801 l 215 835 b 258 878 221 865 238 878 b 300 865 271 878 285 872 l 378 824 b 436 810 396 814 417 810 b 529 893 478 810 518 833 l 535 926 l 486 935 l 479 901 b 436 858 474 871 457 858 b 394 871 424 858 410 864 z m 149 236 l 149 644 l 75 644 l 75 596 l 99 596 l 99 236 b 347 -12 99 100 211 -12 b 596 236 483 -12 596 100 l 596 644 l 546 644 l 546 236 b 347 38 546 126 457 38 b 149 236 238 38 149 126 z "},"":{"ha":694,"x_min":0,"x_max":0,"o":"m 546 843 l 546 893 l 150 893 l 150 843 z m 149 236 l 149 644 l 75 644 l 75 596 l 99 596 l 99 236 b 347 -12 99 100 211 -12 b 596 236 483 -12 596 100 l 596 644 l 546 644 l 546 236 b 347 38 546 126 457 38 b 149 236 238 38 149 126 z "},"":{"ha":694,"x_min":0,"x_max":0,"o":"m 347 843 b 197 919 282 843 232 867 l 157 890 b 347 793 181 856 233 793 b 539 890 461 793 515 856 l 497 919 b 347 843 463 867 413 843 z m 149 236 l 149 644 l 75 644 l 75 596 l 99 596 l 99 236 b 347 -12 99 100 211 -12 b 596 236 483 -12 596 100 l 596 644 l 546 644 l 546 236 b 347 38 546 126 457 38 b 149 236 238 38 149 126 z "},"":{"ha":694,"x_min":0,"x_max":0,"o":"m 347 943 b 263 906 318 943 289 931 b 224 818 236 881 224 850 b 263 733 224 786 236 758 b 347 694 289 708 318 694 b 432 732 376 694 406 707 b 471 818 458 757 471 786 b 432 906 471 850 458 881 b 347 943 406 931 376 943 z m 347 906 b 407 878 360 906 379 903 b 435 818 424 861 435 842 b 407 758 435 794 424 775 b 347 732 379 733 360 732 b 288 758 335 732 314 732 b 260 818 261 785 260 806 b 288 878 260 842 271 861 b 347 906 315 903 335 906 z m 149 236 l 149 644 l 75 644 l 75 596 l 99 596 l 99 236 b 347 -12 99 100 211 -12 b 596 236 483 -12 596 100 l 596 644 l 546 644 l 546 236 b 347 38 546 126 457 38 b 149 236 238 38 149 126 z "},"":{"ha":694,"x_min":0,"x_max":0,"o":"m 460 757 l 597 896 l 563 931 l 424 792 z m 211 757 l 350 896 l 314 931 l 175 792 z m 149 236 l 149 644 l 75 644 l 75 596 l 99 596 l 99 236 b 347 -12 99 100 211 -12 b 596 236 483 -12 596 100 l 596 644 l 546 644 l 546 236 b 347 38 546 126 457 38 b 149 236 238 38 149 126 z "},"":{"ha":694,"x_min":0,"x_max":0,"o":"m 300 -137 b 446 8 300 -76 343 -50 b 596 236 533 46 596 135 l 596 644 l 546 644 l 546 236 b 347 38 546 126 457 38 b 149 236 238 38 149 126 l 149 644 l 75 644 l 75 596 l 99 596 l 99 236 b 338 -12 99 103 206 -7 b 250 -137 285 -44 250 -76 b 371 -249 250 -197 294 -249 b 449 -225 401 -249 429 -237 l 424 -183 b 371 -199 410 -192 392 -199 b 300 -137 314 -199 300 -162 z "},"":{"ha":942,"x_min":0,"x_max":0,"o":"m 474 881 l 646 744 l 676 782 l 492 931 l 451 931 l 267 782 l 299 744 l 469 881 z m 90 644 l 38 644 l 38 596 l 54 596 l 279 -11 l 317 -11 l 471 432 l 626 -11 l 664 -11 l 903 636 l 856 654 l 644 83 l 496 511 l 496 619 l 446 619 l 446 511 l 297 83 z "},"":{"ha":644,"x_min":0,"x_max":0,"o":"m 325 881 l 497 744 l 528 782 l 343 931 l 303 931 l 118 782 l 150 744 l 321 881 z m 94 644 l 38 644 l 38 596 l 67 596 l 297 229 l 297 0 l 347 0 l 347 229 l 604 636 l 561 664 l 322 283 z "},"":{"ha":644,"x_min":0,"x_max":0,"o":"m 428 825 b 472 781 428 801 449 781 b 515 825 496 781 515 801 b 472 868 515 849 496 868 b 428 825 449 868 428 849 z m 138 825 b 181 781 138 801 157 781 b 224 825 204 781 224 801 b 181 868 224 849 204 868 b 138 825 157 868 138 849 z m 94 644 l 38 644 l 38 596 l 67 596 l 297 229 l 297 0 l 347 0 l 347 229 l 604 636 l 561 664 l 322 283 z "},"":{"ha":594,"x_min":0,"x_max":0,"o":"m 268 757 l 407 896 l 371 931 l 233 792 z m 533 613 l 533 644 l 63 644 l 63 571 l 111 571 l 111 596 l 458 596 l 38 29 l 38 0 l 546 0 l 546 75 l 496 75 l 496 50 l 114 50 z "},"":{"ha":594,"x_min":0,"x_max":0,"o":"m 254 850 b 299 806 254 826 275 806 b 342 850 322 806 342 826 b 299 893 342 874 322 893 b 254 850 275 893 254 874 z m 533 613 l 533 644 l 63 644 l 63 571 l 111 571 l 111 596 l 458 596 l 38 29 l 38 0 l 546 0 l 546 75 l 496 75 l 496 50 l 114 50 z "},"":{"ha":594,"x_min":0,"x_max":0,"o":"m 300 806 l 296 806 l 125 943 l 93 904 l 278 757 l 318 757 l 503 904 l 472 943 z m 533 613 l 533 644 l 63 644 l 63 571 l 111 571 l 111 596 l 458 596 l 38 29 l 38 0 l 546 0 l 546 75 l 496 75 l 496 50 l 114 50 z "}}}
